<svg xmlns="http://www.w3.org/2000/svg" xmlns:xlink="http://www.w3.org/1999/xlink" viewBox="0 0 984.45 554.84"><defs><style>.cls-1,.cls-10,.cls-13,.cls-5,.cls-6,.cls-9{fill:none;}.cls-2{fill:url(#linear-gradient);}.cls-3{fill:#3b3c72;}.cls-4{fill:url(#linear-gradient-2);}.cls-10,.cls-13,.cls-22,.cls-23,.cls-25,.cls-26,.cls-28,.cls-29,.cls-30,.cls-31,.cls-32,.cls-33,.cls-34,.cls-35,.cls-36,.cls-37,.cls-38,.cls-39,.cls-40,.cls-41,.cls-42,.cls-43,.cls-44,.cls-45,.cls-46,.cls-47,.cls-48,.cls-49,.cls-5,.cls-50,.cls-51,.cls-52,.cls-53,.cls-54,.cls-56,.cls-57,.cls-58,.cls-59,.cls-6,.cls-60,.cls-61,.cls-62,.cls-63,.cls-64,.cls-65,.cls-66,.cls-67,.cls-68,.cls-69,.cls-71,.cls-72,.cls-73,.cls-74,.cls-75,.cls-76,.cls-77,.cls-78,.cls-79,.cls-80,.cls-81,.cls-82,.cls-83,.cls-84,.cls-86,.cls-9{stroke-miterlimit:10;}.cls-5{stroke:url(#linear-gradient-3);}.cls-6{stroke:url(#linear-gradient-4);}.cls-7{fill:url(#linear-gradient-5);}.cls-8{fill:url(#linear-gradient-6);}.cls-9{stroke:url(#linear-gradient-7);}.cls-10{stroke:url(#linear-gradient-8);}.cls-11{fill:url(#linear-gradient-9);}.cls-12{fill:url(#linear-gradient-10);}.cls-13{stroke:#4f70b6;}.cls-14{fill:url(#linear-gradient-11);}.cls-15{fill:url(#linear-gradient-12);}.cls-16{fill:url(#linear-gradient-13);}.cls-17{fill:#aebce0;}.cls-18{fill:url(#linear-gradient-14);}.cls-19{fill:#3e68b1;}.cls-20{fill:#222457;}.cls-21{fill:#273c8c;}.cls-22,.cls-85{fill:#272d67;}.cls-22{stroke:#644497;}.cls-23{fill:#25255b;stroke:#3374a9;}.cls-122,.cls-24{fill:#1e1e4e;}.cls-25{fill:#070808;}.cls-25,.cls-26,.cls-28,.cls-29,.cls-30,.cls-31,.cls-32,.cls-33,.cls-34,.cls-35,.cls-36,.cls-37,.cls-38,.cls-39,.cls-40,.cls-41,.cls-42,.cls-43,.cls-44,.cls-45,.cls-46,.cls-47,.cls-48,.cls-49,.cls-50,.cls-51,.cls-52,.cls-53,.cls-54,.cls-56,.cls-57,.cls-58,.cls-59,.cls-60,.cls-61,.cls-62,.cls-63,.cls-64,.cls-65,.cls-66,.cls-67,.cls-68,.cls-69,.cls-71,.cls-72,.cls-73,.cls-74,.cls-75,.cls-76,.cls-77,.cls-78,.cls-79,.cls-80,.cls-81,.cls-82,.cls-83,.cls-84{stroke:#000;stroke-width:0.1px;}.cls-26{fill:#d1d0e9;}.cls-27{fill:#52499e;}.cls-28{fill:#6163ac;}.cls-29{fill:#bc90b1;}.cls-30{fill:#584b9f;}.cls-31{fill:#6a6ab1;}.cls-32{fill:#be8caf;}.cls-33{fill:#456db2;}.cls-34{fill:#dcdcdb;}.cls-35{fill:#493c95;}.cls-36{fill:#4e72b8;}.cls-37{fill:#4070b3;}.cls-38{fill:#a37691;}.cls-39{fill:#3e70b7;}.cls-40{fill:#a8789d;}.cls-41{fill:#cec9c8;}.cls-42{fill:#a17595;}.cls-43{fill:#4e86c6;}.cls-44{fill:#d0d0cf;}.cls-45{fill:#d5d5d5;}.cls-46{fill:#e6e7e7;}.cls-47{fill:#cbcbca;}.cls-48{fill:#b3b4b4;}.cls-49{fill:#dbd6d8;}.cls-50{fill:#b48bad;}.cls-51{fill:#dbddde;}.cls-52{fill:#dad9dc;}.cls-53{fill:#c7c8ca;}.cls-54{fill:#b284b1;}.cls-55{fill:#6066af;}.cls-56{fill:#446fb6;}.cls-57{fill:#b7b6db;}.cls-58{fill:#c8e0f4;}.cls-59{fill:#9b77b5;}.cls-60{fill:#768bc5;}.cls-61{fill:#d4d5eb;}.cls-62{fill:#5d72b6;}.cls-63{fill:#9a94ad;}.cls-64{fill:#a5a9c3;}.cls-65{fill:#d9d5ea;}.cls-66{fill:#937fbb;}.cls-67{fill:#7298cf;}.cls-68{fill:#4c87c6;}.cls-69{fill:#6b9dd3;}.cls-70{fill:#27397e;}.cls-71{fill:#2770b3;}.cls-72{fill:#282f6b;}.cls-73{fill:#3e65ae;}.cls-74{fill:#2167a5;}.cls-75{fill:#acbdde;}.cls-76{fill:#3762ae;}.cls-77{fill:#1b4a99;}.cls-78{fill:#182c55;}.cls-79{fill:#28377b;}.cls-80{fill:#194896;}.cls-81{fill:#3660ad;}.cls-82{fill:#213b73;}.cls-83{fill:#1a2a55;}.cls-84{fill:#1e2957;}.cls-86{fill:#d8d4ea;stroke:#262d67;stroke-width:0.4px;}.cls-87{fill:url(#linear-gradient-15);}.cls-88{fill:#d0a0c9;}.cls-89{fill:#6d5424;}.cls-90{fill:#4a3a1e;}.cls-91{fill:#efb384;}.cls-92{fill:#4b77bb;}.cls-93{fill:#cda077;}.cls-94{fill:#f2d7e0;}.cls-95{fill:url(#linear-gradient-16);}.cls-96{fill:#db8bb0;}.cls-97{fill:#a43360;}.cls-98{fill:#3b65af;}.cls-99{fill:#2b337a;}.cls-100{fill:#5079bc;}.cls-101{fill:#194b99;}.cls-102{fill:#355caa;}.cls-103{fill:#3259a6;}.cls-104{fill:#9e9ac2;}.cls-105{fill:#f6cf60;}.cls-106{fill:#f3cbb0;}.cls-107{fill:url(#linear-gradient-17);}.cls-108{fill:url(#linear-gradient-18);}.cls-109{fill:#fff2cb;}.cls-110{fill:url(#linear-gradient-19);}.cls-111{fill:url(#linear-gradient-20);}.cls-112{fill:#d2eefc;}.cls-113{fill:url(#linear-gradient-21);}.cls-114{fill:url(#linear-gradient-22);}.cls-115{fill:#d6dff2;}.cls-116{fill:url(#linear-gradient-23);}.cls-117{fill:url(#linear-gradient-24);}.cls-118{fill:#e6beda;}.cls-119{fill:url(#linear-gradient-25);}.cls-120{fill:url(#linear-gradient-26);}.cls-121{fill:#d0edfc;}.cls-122{font-size:31px;font-family:Chalkduster;}.cls-123{letter-spacing:0.02em;}.cls-124{letter-spacing:-0.09em;}.cls-125{letter-spacing:0.02em;}.cls-126{letter-spacing:0.01em;}.cls-127{letter-spacing:0.01em;}.cls-128{letter-spacing:-0.02em;}</style><linearGradient id="linear-gradient" x1="317.92" y1="307.34" x2="984.45" y2="307.34" gradientUnits="userSpaceOnUse"><stop offset="0" stop-color="#084ca1"/><stop offset="1" stop-color="#1d2f73"/></linearGradient><linearGradient id="linear-gradient-2" x1="816.88" y1="17.54" x2="828.67" y2="17.54" gradientTransform="translate(122.49 272.9)" gradientUnits="userSpaceOnUse"><stop offset="0" stop-color="#3862ae"/><stop offset="1" stop-color="#225297"/><stop offset="1" stop-color="#57a2d9"/><stop offset="1"/></linearGradient><linearGradient id="linear-gradient-3" x1="864.33" y1="209.88" x2="864.33" y2="225.01" gradientTransform="translate(26.88 522.45) rotate(-34.13)" gradientUnits="userSpaceOnUse"><stop offset="0" stop-color="#d970ab"/><stop offset="0.01" stop-color="#d771ac"/><stop offset="0.15" stop-color="#b080b9"/><stop offset="0.31" stop-color="#908cc5"/><stop offset="0.46" stop-color="#7796ce"/><stop offset="0.63" stop-color="#659dd4"/><stop offset="0.8" stop-color="#5aa1d8"/><stop offset="1" stop-color="#57a2d9"/><stop offset="1"/></linearGradient><linearGradient id="linear-gradient-4" x1="890.85" y1="496.84" x2="890.85" y2="511.97" gradientTransform="translate(-128.44 590.27) rotate(-34.13)" gradientUnits="userSpaceOnUse"><stop offset="0" stop-color="#d970ab"/><stop offset="0.14" stop-color="#d273ae"/><stop offset="0.34" stop-color="#be7ab5"/><stop offset="0.59" stop-color="#9d87c0"/><stop offset="0.86" stop-color="#7098d0"/><stop offset="1" stop-color="#57a2d9"/><stop offset="1"/></linearGradient><linearGradient id="linear-gradient-5" x1="365.26" y1="324.76" x2="365.26" y2="351.76" gradientTransform="translate(-131.68 263.12) rotate(-34.13)" gradientUnits="userSpaceOnUse"><stop offset="0" stop-color="#d970ab"/><stop offset="0.01" stop-color="#d771ac"/><stop offset="0.35" stop-color="#a086bf"/><stop offset="0.63" stop-color="#7895cd"/><stop offset="0.86" stop-color="#609fd6"/><stop offset="1" stop-color="#57a2d9"/><stop offset="1"/></linearGradient><linearGradient id="linear-gradient-6" x1="549.93" y1="138.63" x2="549.93" y2="154.43" gradientTransform="translate(3.36 336.55) rotate(-34.13)" xlink:href="#linear-gradient-5"/><linearGradient id="linear-gradient-7" x1="642.09" y1="59.04" x2="657.02" y2="59.04" gradientTransform="matrix(1, 0, 0, 1, 0, 0)" xlink:href="#linear-gradient-3"/><linearGradient id="linear-gradient-8" x1="426.13" y1="491.01" x2="439.02" y2="491.01" gradientTransform="matrix(1, 0, 0, 1, 0, 0)" xlink:href="#linear-gradient-3"/><linearGradient id="linear-gradient-9" x1="383" y1="164.75" x2="397.04" y2="164.75" gradientTransform="matrix(1, 0, 0, 1, 0, 0)" xlink:href="#linear-gradient-3"/><linearGradient id="linear-gradient-10" x1="512.9" y1="371.43" x2="837.3" y2="371.43" gradientUnits="userSpaceOnUse"><stop offset="0" stop-color="#273685"/><stop offset="0" stop-color="#383d8a"/><stop offset="0" stop-color="#634e96"/><stop offset="0.01" stop-color="#875c9f"/><stop offset="0.01" stop-color="#a368a7"/><stop offset="0.01" stop-color="#b770ad"/><stop offset="0.01" stop-color="#c374b0"/><stop offset="0.02" stop-color="#c776b1"/><stop offset="1" stop-color="#5aa8dd"/></linearGradient><linearGradient id="linear-gradient-11" x1="546.08" y1="290.82" x2="801.66" y2="438.38" gradientUnits="userSpaceOnUse"><stop offset="0" stop-color="#2f3683"/><stop offset="1" stop-color="#263b78"/></linearGradient><linearGradient id="linear-gradient-12" x1="544.55" y1="356.68" x2="806.72" y2="356.68" gradientUnits="userSpaceOnUse"><stop offset="0" stop-color="#273685"/><stop offset="0.05" stop-color="#273481"/><stop offset="0.37" stop-color="#252d6d"/><stop offset="0.68" stop-color="#242861"/><stop offset="1" stop-color="#24275d"/><stop offset="1" stop-color="#11083b"/></linearGradient><linearGradient id="linear-gradient-13" x1="540.69" y1="434.35" x2="619.57" y2="434.35" gradientTransform="translate(-218.66 -110.46) scale(1.42 1.17)" gradientUnits="userSpaceOnUse"><stop offset="0" stop-color="#293476"/><stop offset="0.78" stop-color="#2b2d68"/><stop offset="1" stop-color="#2c2a63"/><stop offset="1" stop-color="#25285f"/></linearGradient><linearGradient id="linear-gradient-14" x1="467.66" y1="431.92" x2="892.26" y2="431.92" xlink:href="#linear-gradient-10"/><linearGradient id="linear-gradient-15" x1="634.94" y1="269.27" x2="706.06" y2="310.33" gradientUnits="userSpaceOnUse"><stop offset="0" stop-color="#d478b1"/><stop offset="1" stop-color="#d9d5ea"/></linearGradient><linearGradient id="linear-gradient-16" x1="608.13" y1="271.37" x2="578.81" y2="322.17" gradientUnits="userSpaceOnUse"><stop offset="0" stop-color="#cf6e97"/><stop offset="1" stop-color="#a53461"/></linearGradient><linearGradient id="linear-gradient-17" x1="720.14" y1="188.48" x2="748.24" y2="216.59" gradientUnits="userSpaceOnUse"><stop offset="0" stop-color="#a96036"/><stop offset="0.14" stop-color="#bc783d"/><stop offset="0.34" stop-color="#d29445"/><stop offset="0.54" stop-color="#e1a84b"/><stop offset="0.74" stop-color="#ebb44f"/><stop offset="0.94" stop-color="#eeb850"/></linearGradient><linearGradient id="linear-gradient-18" x1="730.44" y1="181.9" x2="750.24" y2="216.18" gradientUnits="userSpaceOnUse"><stop offset="0" stop-color="#9e5b31"/><stop offset="0.62" stop-color="#eeb850"/><stop offset="0.72" stop-color="#e1a443"/><stop offset="0.9" stop-color="#ce852f"/><stop offset="1" stop-color="#c77a27"/></linearGradient><linearGradient id="linear-gradient-19" x1="656.21" y1="153.81" x2="684.31" y2="181.9" gradientUnits="userSpaceOnUse"><stop offset="0" stop-color="#006587"/><stop offset="0.01" stop-color="#04688b"/><stop offset="0.14" stop-color="#2685a9"/><stop offset="0.27" stop-color="#439dc3"/><stop offset="0.41" stop-color="#59afd6"/><stop offset="0.56" stop-color="#68bce4"/><stop offset="0.74" stop-color="#71c4ec"/><stop offset="1" stop-color="#74c6ef"/></linearGradient><linearGradient id="linear-gradient-20" x1="666.51" y1="147.21" x2="686.3" y2="181.5" gradientUnits="userSpaceOnUse"><stop offset="0" stop-color="#006587"/><stop offset="0.15" stop-color="#04688a"/><stop offset="0.28" stop-color="#0f7295"/><stop offset="0.41" stop-color="#2281a6"/><stop offset="0.54" stop-color="#3c97bd"/><stop offset="0.66" stop-color="#5bb2da"/><stop offset="0.7" stop-color="#48a2c9"/><stop offset="0.78" stop-color="#2988ad"/><stop offset="0.86" stop-color="#127598"/><stop offset="0.93" stop-color="#056a8c"/><stop offset="1" stop-color="#068"/></linearGradient><linearGradient id="linear-gradient-21" x1="614.12" y1="182.99" x2="642.23" y2="211.1" gradientUnits="userSpaceOnUse"><stop offset="0" stop-color="#293476"/><stop offset="0.05" stop-color="#353f80"/><stop offset="0.2" stop-color="#515a99"/><stop offset="0.36" stop-color="#6770ac"/><stop offset="0.53" stop-color="#777eba"/><stop offset="0.72" stop-color="#8087c2"/><stop offset="1" stop-color="#838ac4"/></linearGradient><linearGradient id="linear-gradient-22" x1="624.43" y1="176.41" x2="644.22" y2="210.69" gradientUnits="userSpaceOnUse"><stop offset="0" stop-color="#293476"/><stop offset="0.14" stop-color="#2d3879"/><stop offset="0.29" stop-color="#394384"/><stop offset="0.43" stop-color="#4d5695"/><stop offset="0.57" stop-color="#6870ad"/><stop offset="0.68" stop-color="#838ac4"/><stop offset="0.75" stop-color="#666eab"/><stop offset="0.86" stop-color="#454f8e"/><stop offset="0.94" stop-color="#303b7c"/><stop offset="1" stop-color="#293476"/></linearGradient><linearGradient id="linear-gradient-23" x1="750.52" y1="255.64" x2="778.63" y2="283.75" gradientUnits="userSpaceOnUse"><stop offset="0" stop-color="#a5147c"/><stop offset="0.13" stop-color="#ae2987"/><stop offset="0.35" stop-color="#bb4596"/><stop offset="0.57" stop-color="#c55aa1"/><stop offset="0.79" stop-color="#ca66a8"/><stop offset="1" stop-color="#cc6aaa"/><stop offset="1" stop-color="#232358"/></linearGradient><linearGradient id="linear-gradient-24" x1="760.83" y1="249.06" x2="780.62" y2="283.34" gradientUnits="userSpaceOnUse"><stop offset="0" stop-color="#a5147c"/><stop offset="0.19" stop-color="#ae2987"/><stop offset="0.57" stop-color="#c75ea4"/><stop offset="0.65" stop-color="#cc6aaa"/><stop offset="0.74" stop-color="#c0509c"/><stop offset="0.91" stop-color="#ad2585"/><stop offset="1" stop-color="#a5147c"/></linearGradient><linearGradient id="linear-gradient-25" x1="698.44" y1="133.87" x2="726.09" y2="161.51" gradientUnits="userSpaceOnUse"><stop offset="0" stop-color="#142360"/><stop offset="0.14" stop-color="#1f3677"/><stop offset="0.32" stop-color="#2a4b90"/><stop offset="0.52" stop-color="#3359a1"/><stop offset="0.72" stop-color="#3762ac"/><stop offset="0.97" stop-color="#3965af"/></linearGradient><linearGradient id="linear-gradient-26" x1="709.5" y1="126.11" x2="730.1" y2="161.78" gradientUnits="userSpaceOnUse"><stop offset="0" stop-color="#192a6b"/><stop offset="0.11" stop-color="#1d3173"/><stop offset="0.28" stop-color="#264388"/><stop offset="0.49" stop-color="#3760aa"/><stop offset="0.51" stop-color="#3965af"/><stop offset="0.66" stop-color="#2f5198"/><stop offset="0.88" stop-color="#21377a"/><stop offset="1" stop-color="#1c2d6f"/></linearGradient></defs><title>Asset 7</title><g id="Layer_2" data-name="Layer 2"><g id="Layer_3" data-name="Layer 3"><path class="cls-1" d="M984.45,0V554.84H0V0Z"/><path class="cls-2" d="M984.45,181V554.84H317.92L472.7,106.56C484.55,72.25,518.14,53.09,550.77,62Z"/><rect class="cls-3" x="82.75" y="65.85" width="39.07" height="39.07" rx="19.53"/></g><g id="main"><rect class="cls-4" x="939.36" y="284.54" width="11.79" height="11.79" rx="2.9" transform="translate(1018.29 -695.74) rotate(77.16)"/><rect class="cls-5" x="858.43" y="211.55" width="11.79" height="11.79" rx="2.9" transform="translate(270.91 -447.53) rotate(34.13)"/><rect class="cls-6" x="886.08" y="502.01" width="11.79" height="11.79" rx="2.9" transform="translate(1061.18 -504.5) rotate(69.83)"/><rect class="cls-7" x="349.47" y="327.15" width="22" height="22" rx="4.58" transform="translate(129.12 -98.61) rotate(18.92)"/><rect class="cls-8" x="534.46" y="142.95" width="12.62" height="12.62" rx="2.23" transform="translate(690.04 -391.51) rotate(90)"/><circle class="cls-9" cx="649.55" cy="59.04" r="6.97"/><circle class="cls-10" cx="432.57" cy="491.01" r="5.95"/><circle class="cls-11" cx="390.02" cy="164.75" r="7.02"/><ellipse class="cls-12" cx="675.1" cy="371.43" rx="162.2" ry="94.05"/><ellipse class="cls-13" cx="673.87" cy="366.98" rx="161.45" ry="94.05"/><ellipse class="cls-14" cx="673.87" cy="364.6" rx="161.45" ry="94.05"/><path class="cls-15" d="M547.18,336l156.6,91.79a28.71,28.71,0,0,0,29.14-.06L803.38,386a6.81,6.81,0,0,0-.15-11.81L646.42,286.56A38.88,38.88,0,0,0,606.05,288L547,327A5.32,5.32,0,0,0,547.18,336Z"/><ellipse class="cls-16" cx="607.81" cy="396.8" rx="56.19" ry="30.63" transform="translate(-99.91 235.51) rotate(-20.3)"/><path class="cls-17" d="M825.7,289.2s-116.5-92.13-276-16.13c0,0-107.6,48.63-44.84,129.06,0,0-102.33-74.73,39.66-151C544.55,251.17,703.2,176.27,825.7,289.2Z"/><path class="cls-18" d="M467.66,403.28S562,543.05,794.8,465.49c0,0,94-33,89.22-113.3,0,0,47.46,81.88-85.42,136.74S496.24,493.06,467.66,403.28Z"/><g id="table"><path class="cls-19" d="M772.14,323.88c-.06,1.56,6.28,53.36,6.28,53.36a1.18,1.18,0,0,0,1.28.78,1.29,1.29,0,0,0,1.06-1.23l-6.44-54.16Z"/><path class="cls-20" d="M778.33,320.36l4.36,56.14s-.65,1.74-2,.74l-6.34-54.61Z"/><path class="cls-19" d="M707.25,419.5c-.26.42-.34,1.09-1.1.92s-1.18-1.34-1.18-1.34l4.52-74.18,2.57,1.48Z"/><path class="cls-21" d="M716.08,348.67,709.43,419a1.25,1.25,0,0,1-2.18.51l4.81-73.12Z"/><path class="cls-22" d="M787.15,315.35l-58.13,33a13.75,13.75,0,0,1-13.64,0L605.61,285.13a13.64,13.64,0,0,1-6.86-12.78,13.56,13.56,0,0,0,6.67,9.45L715.18,345a13.75,13.75,0,0,0,13.64,0L787,312a5.06,5.06,0,0,0,2.42-3.1A5.14,5.14,0,0,1,787.15,315.35Z"/><path class="cls-23" d="M789.37,308.93A5.06,5.06,0,0,1,787,312l-58.13,33a13.75,13.75,0,0,1-13.64,0L605.42,281.8a13.74,13.74,0,0,1-.06-23.79l44.89-26.11a13.73,13.73,0,0,1,13.8,0L787,303.11A5.13,5.13,0,0,1,789.37,308.93Z"/><path class="cls-24" d="M734.44,306.7c0,2.08-3.5,3.78-8.38,3.78s-8.85-1.68-8.85-3.76c0-1.12,1.14-2.12,3-2.8v1a1.79,1.79,0,0,0,.53,1.29,7.23,7.23,0,0,0,4.87,1.67,8.47,8.47,0,0,0,4.89-1.45,1.85,1.85,0,0,0,.71-1.46v-1.34C733.43,304.33,734.44,305.43,734.44,306.7Z"/><path class="cls-24" d="M755,303.86a4.39,4.39,0,0,1-5,.83c-.91-.43-24.46-13.92-37.91-21.63a1.63,1.63,0,0,0,.15-.44,2.79,2.79,0,0,0-.16-1.62,3,3,0,0,0-1.64-2.72l-8.15-4.48-.63-.83c-1.4-1.78-3.13-3.78-3.45-4.14l20.71,11.8,20.17,11.52a3.49,3.49,0,0,0,.39.19l13.93,7.93S756.69,302.23,755,303.86Z"/><path class="cls-24" d="M756.72,286.2a4.66,4.66,0,0,0-4.94.72c-2.4,2-1.4,4.06-.26,5S770,303.4,770,303.4s3.34,1.22,5.88-.79.39-5.11-.69-5.74Z"/></g><g id="display"><polygon class="cls-25" points="740.92 290.44 658.17 243.05 658.17 186.7 740.92 233.35 740.92 290.44"/><path class="cls-26" d="M741.94,231.06l-82-46.21a2.88,2.88,0,0,0-4.3,2.51V242.8a2.89,2.89,0,0,0,1.46,2.51l38,21.7,3.07,1.76,20.76,11.86,20.17,11.52a3.49,3.49,0,0,0,.39.19,2.88,2.88,0,0,0,3.92-2.69V233.58A2.89,2.89,0,0,0,741.94,231.06Zm-1,58.59a.37.37,0,0,1-.19.33.36.36,0,0,1-.38,0l-82-46.84a.4.4,0,0,1-.2-.34V187.36a.37.37,0,0,1,.19-.33.36.36,0,0,1,.2-.06l.15,0,0,0,82,46.22h0a.4.4,0,0,1,.17.33Z"/><path class="cls-27" d="M671.63,203.84l-4.24-2.63a.73.73,0,0,1-.35-.62v-1.16s0-.15.16-.12,4.22,2.5,4.22,2.5a.75.75,0,0,1,.35.61s0,1.17,0,1.33S671.63,203.84,671.63,203.84Z"/><path class="cls-28" d="M671.44,208.84l-4.24-2.63a.72.72,0,0,1-.35-.62v-1.16s0-.15.16-.12,4.22,2.5,4.22,2.5a.73.73,0,0,1,.35.61s0,1.17,0,1.33S671.44,208.84,671.44,208.84Z"/><path class="cls-29" d="M684.61,213.07l-4.25-2.64a.73.73,0,0,1-.34-.62v-1.16s0-.15.15-.12,4.22,2.5,4.22,2.5a.74.74,0,0,1,.36.61s0,1.18,0,1.33S684.61,213.07,684.61,213.07Z"/><path class="cls-30" d="M684.78,220l-4.24-2.63a.76.76,0,0,1-.35-.62v-1.16s0-.15.16-.13,4.22,2.51,4.22,2.51a.73.73,0,0,1,.35.61s0,1.17,0,1.33S684.78,220,684.78,220Z"/><path class="cls-31" d="M698,220.48l-4.24-2.64a.72.72,0,0,1-.35-.62v-1.16s0-.15.16-.12,4.22,2.51,4.22,2.51a.7.7,0,0,1,.35.6s0,1.18,0,1.33S698,220.48,698,220.48Z"/><path class="cls-32" d="M711.07,234.13l-4.24-2.63a.73.73,0,0,1-.35-.62v-1.16s0-.15.16-.13,4.22,2.51,4.22,2.51a.73.73,0,0,1,.35.61s0,1.17,0,1.33S711.07,234.13,711.07,234.13Z"/><path class="cls-33" d="M723.55,234.81l-4.25-2.64a.72.72,0,0,1-.34-.61V230.4s0-.15.15-.13,4.22,2.51,4.22,2.51a.73.73,0,0,1,.36.6s0,1.18,0,1.34S723.55,234.81,723.55,234.81Z"/><path class="cls-34" d="M717.66,243.59,713.42,241a.72.72,0,0,1-.35-.62v-1.16s0-.15.16-.12,4.22,2.5,4.22,2.5a.73.73,0,0,1,.35.61s0,1.18,0,1.33S717.66,243.59,717.66,243.59Z"/><path class="cls-35" d="M731.11,241.67,726.87,239a.73.73,0,0,1-.35-.62v-1.16s0-.15.16-.13,4.22,2.51,4.22,2.51a.73.73,0,0,1,.35.61s0,1.17,0,1.33S731.11,241.67,731.11,241.67Z"/><path class="cls-36" d="M724.2,250.44,720,247.81a.75.75,0,0,1-.34-.62V246s0-.15.15-.13,4.22,2.51,4.22,2.51a.74.74,0,0,1,.36.61s0,1.17,0,1.33S724.2,250.44,724.2,250.44Z"/><path class="cls-37" d="M664.86,225.44l-4.24-2.63a.73.73,0,0,1-.35-.62V221s0-.15.15-.13,4.23,2.51,4.23,2.51a.75.75,0,0,1,.35.61s0,1.17,0,1.33S664.86,225.44,664.86,225.44Z"/><path class="cls-38" d="M667,238.25l-4.24-2.63a.72.72,0,0,1-.35-.62v-1.16s0-.15.16-.12,4.22,2.5,4.22,2.5a.75.75,0,0,1,.35.61s0,1.18,0,1.33S667,238.25,667,238.25Z"/><path class="cls-39" d="M672.45,243.82l-4.24-2.64a.72.72,0,0,1-.34-.62V239.4s0-.14.15-.12,4.22,2.51,4.22,2.51a.73.73,0,0,1,.36.6s0,1.18,0,1.33S672.45,243.82,672.45,243.82Z"/><path class="cls-40" d="M684.81,245.88l-4.24-2.64a.72.72,0,0,1-.34-.62v-1.16s0-.14.15-.12,4.22,2.51,4.22,2.51a.73.73,0,0,1,.36.6s0,1.18,0,1.33S684.81,245.88,684.81,245.88Z"/><path class="cls-41" d="M684.81,253.43l-4.24-2.63a.75.75,0,0,1-.34-.62V249s0-.15.15-.13,4.22,2.51,4.22,2.51a.76.76,0,0,1,.36.61s0,1.17,0,1.33S684.81,253.43,684.81,253.43Z"/><path class="cls-42" d="M691.44,257.75l-4.25-2.63a.73.73,0,0,1-.34-.62v-1.16s0-.15.15-.12,4.22,2.5,4.22,2.5a.74.74,0,0,1,.36.61s0,1.17,0,1.33S691.44,257.75,691.44,257.75Z"/><path class="cls-43" d="M698.1,264.62,693.86,262a.75.75,0,0,1-.34-.62v-1.16s0-.15.15-.13,4.22,2.51,4.22,2.51a.76.76,0,0,1,.36.61s0,1.17,0,1.33S698.1,264.62,698.1,264.62Z"/><path class="cls-44" d="M711.15,262.6,706.91,260a.73.73,0,0,1-.35-.62v-1.16s0-.15.16-.13,4.22,2.51,4.22,2.51a.73.73,0,0,1,.35.61s0,1.17,0,1.33S711.15,262.6,711.15,262.6Z"/><path class="cls-45" d="M720.28,271.28,716,268.65a.72.72,0,0,1-.35-.62v-1.16s0-.15.15-.12,4.22,2.5,4.22,2.5a.74.74,0,0,1,.36.61s0,1.18,0,1.33S720.28,271.28,720.28,271.28Z"/><path class="cls-46" d="M724.2,265.79,720,263.16a.75.75,0,0,1-.34-.62v-1.16s0-.15.15-.13,4.22,2.51,4.22,2.51a.74.74,0,0,1,.36.61s0,1.17,0,1.33S724.2,265.79,724.2,265.79Z"/><path class="cls-47" d="M725.93,259.77l-4.24-2.63a.73.73,0,0,1-.35-.62v-1.16s0-.15.16-.12,4.22,2.5,4.22,2.5a.73.73,0,0,1,.35.61s0,1.17,0,1.33S725.93,259.77,725.93,259.77Z"/><path class="cls-48" d="M730.7,270l-4.24-2.63a.73.73,0,0,1-.35-.62v-1.16s0-.15.16-.12,4.22,2.5,4.22,2.5a.73.73,0,0,1,.35.61s0,1.17,0,1.33S730.7,270,730.7,270Z"/><path class="cls-49" d="M736.69,278.74l-4.25-2.63a.75.75,0,0,1-.34-.62v-1.16s0-.15.15-.13,4.22,2.51,4.22,2.51a.74.74,0,0,1,.36.61s0,1.17,0,1.33S736.69,278.74,736.69,278.74Z"/><path class="cls-50" d="M738.09,285.54l-4.24-2.63a.74.74,0,0,1-.35-.62v-1.16s0-.15.16-.12,4.22,2.5,4.22,2.5a.73.73,0,0,1,.35.61s0,1.17,0,1.33S738.09,285.54,738.09,285.54Z"/><path class="cls-51" d="M738.29,275.32l-4.24-2.63a.73.73,0,0,1-.34-.62v-1.16s0-.15.15-.12,4.22,2.5,4.22,2.5a.74.74,0,0,1,.36.61s0,1.17,0,1.33S738.29,275.32,738.29,275.32Z"/><path class="cls-52" d="M704.63,266.19l-4.25-2.63a.73.73,0,0,1-.34-.62v-1.16s0-.15.15-.12,4.22,2.5,4.22,2.5a.74.74,0,0,1,.36.61s0,1.18,0,1.33S704.63,266.19,704.63,266.19Z"/><path class="cls-53" d="M664.57,242.82l-4.24-2.64a.72.72,0,0,1-.34-.62V238.4s0-.14.15-.12,4.22,2.51,4.22,2.51a.71.71,0,0,1,.36.6s0,1.18,0,1.33S664.57,242.82,664.57,242.82Z"/><path class="cls-54" d="M665.09,210l-4.25-2.63a.75.75,0,0,1-.34-.62V205.6s0-.15.15-.13,4.22,2.51,4.22,2.51a.74.74,0,0,1,.36.61s0,1.17,0,1.33S665.09,210,665.09,210Z"/><path class="cls-55" d="M664.13,203.84l-4.24-2.63a.75.75,0,0,1-.34-.62v-1.16s0-.15.15-.12,4.22,2.5,4.22,2.5a.76.76,0,0,1,.36.61s0,1.17,0,1.33S664.13,203.84,664.13,203.84Z"/><path class="cls-56" d="M703.65,276.41a1.18,1.18,0,0,1-.26.77,1.12,1.12,0,0,1-.4.32h0l-.2.11a1.24,1.24,0,0,1-1.26,0h0a1.68,1.68,0,0,1-.6-.63l-.75-2.26-.9-2.71-1-3.17,0-.07.05.06c.32.36,2,2.36,3.45,4.14l.63.83a11.65,11.65,0,0,1,1.11,1.69,2.46,2.46,0,0,1,.17.44v0a1,1,0,0,1,0,.24A1.64,1.64,0,0,1,703.65,276.41Z"/><path class="cls-57" d="M701.49,277.61l-9.15-5.23s-.62-.27-.56-.74a1.43,1.43,0,0,1,.31-.75l1.64-2.12L695.1,267l3.07,1.76,1.07,3.24,1.65,5A1.68,1.68,0,0,0,701.49,277.61Z"/><path class="cls-58" d="M712.09,281a1.91,1.91,0,0,1-.13.36,2.53,2.53,0,0,1-.9,1.1,7,7,0,0,1-2.91,1.1h0a7,7,0,0,1-1.91.13l-.32,0-.7-.1-.6-.13-.47-.14c-.29-.09-.46-.16-.46-.16l-.31-.19h0l-.22-.13-.41-.25-.44-.26-.78-.48-.59-.36-2.47-1.5-.79-.48-1.38-.83c-.21-.14-.43-.27-.65-.4l-1.06-.65-2.77-1.69-.54-.32-3-1.81-.58-.36-.36-.22-.52-.32-1-.6-.31-.19-.58-.37a1.92,1.92,0,0,1-.72-2.22,1.85,1.85,0,0,1,.21-.49c.37-.62,1.71-1.59,4.79-1.45a8.6,8.6,0,0,1,4.5,1.2l-.74,1-.9,1.17a1.43,1.43,0,0,0-.31.75.19.19,0,0,0,0,.13.74.74,0,0,0,0,.14,1.11,1.11,0,0,0,.51.47l9.15,5.23h0a1.24,1.24,0,0,0,1.26,0l.2-.11h0a1.12,1.12,0,0,0,.4-.32,1.18,1.18,0,0,0,.26-.77,1.64,1.64,0,0,0,0-.22,1,1,0,0,0,0-.24v0a2.46,2.46,0,0,0-.17-.44,11.65,11.65,0,0,0-1.11-1.69l8.15,4.48A3,3,0,0,1,712.09,281Z"/><path class="cls-59" d="M694.54,277.61l-1,1.13c-4.45-2.73-8.82-5.41-9.37-5.78-.84-.55-.78-1.73-.4-2.65a2.79,2.79,0,0,1,.49-.8,1.92,1.92,0,0,0,.72,2.22C685.49,272.1,690.06,274.89,694.54,277.61Z"/><path class="cls-60" d="M712.25,282.62a1.63,1.63,0,0,1-.15.44c-.82,1.83-4,2.24-4,2.24A8.4,8.4,0,0,1,704,285a3.28,3.28,0,0,1-.78-.37l-8.07-4.93-1.61-1,1-1.13,1.06.65.65.4,1.38.83.79.48,2.47,1.5.59.36.78.48.44.26.41.25.22.13h0a3.57,3.57,0,0,0,.77.35l.47.14.6.13.7.1.32,0a7,7,0,0,0,1.91-.13h0a7.56,7.56,0,0,0,2.85-1.13,2.89,2.89,0,0,0,1-1.07,1.91,1.91,0,0,0,.13-.36A2.79,2.79,0,0,1,712.25,282.62Z"/></g><g id="mug"><path class="cls-61" d="M732,294.44c.78,0,1.84.34,1.9,2.14a5.63,5.63,0,0,1-2.73,4.74v-6.76a3,3,0,0,1,.83-.12m0-1h0a4.37,4.37,0,0,0-1.14.17l-.69.23v9.3l1.54-1a6.61,6.61,0,0,0,3.19-5.63c-.07-1.93-1.15-3.09-2.9-3.09Z"/><path class="cls-61" d="M731.17,291.7V305a1.85,1.85,0,0,1-.71,1.46,8.47,8.47,0,0,1-4.89,1.45,7.23,7.23,0,0,1-4.87-1.67,1.79,1.79,0,0,1-.53-1.29V291.7Z"/><ellipse class="cls-62" cx="725.67" cy="291.7" rx="5.5" ry="3.54"/><ellipse class="cls-63" cx="725.7" cy="291.47" rx="4.32" ry="2.15"/><ellipse class="cls-64" cx="717.22" cy="315.72" rx="0.9" ry="0.58"/></g><g id="mouse"><path class="cls-65" d="M720.36,317.34c-.9.62-4.92,3.22-4.92,3.22a3.71,3.71,0,0,1-1.48.27,6.75,6.75,0,0,1-2.16-1.05s-1.35-.65-1.46-1.44a.9.9,0,0,1,.47-.88l4.68-3.11a2.1,2.1,0,0,1,3-.12,9.65,9.65,0,0,1,2.18,2.33h0A.6.6,0,0,1,720.36,317.34Z"/><path class="cls-66" d="M716.14,321.71a8.7,8.7,0,0,1-2.29,1,6.56,6.56,0,0,1-3.51-1.67c-.4-.55,0-2.7,0-2.7.11.79,1.46,1.44,1.46,1.44a6.75,6.75,0,0,0,2.16,1.05,3.71,3.71,0,0,0,1.48-.27Z"/><path class="cls-67" d="M721.08,318.62c-.67.55-4.94,3.09-4.94,3.09l-.7-1.15s4-2.6,4.92-3.22a.6.6,0,0,0,.27-.77h0S721.75,318.07,721.08,318.62Z"/></g><g id="chair"><path class="cls-68" d="M652.28,396.46h0a3.6,3.6,0,0,0-2.87,5.27,2.76,2.76,0,0,0,.28.39,3.79,3.79,0,1,1,2.59-5.67Z"/><path class="cls-69" d="M652.28,396.47a3.79,3.79,0,0,1-1.31,5.19,3.61,3.61,0,0,1-1.28.47,2.76,2.76,0,0,1-.28-.39,3.6,3.6,0,0,1,2.87-5.27Z"/><path class="cls-68" d="M622.33,421.29h0a3.62,3.62,0,0,0-1.62.33,3.49,3.49,0,0,0-1.82,4.59,2.18,2.18,0,0,0,.24.42,3.79,3.79,0,1,1,3.19-5.35Z"/><path class="cls-69" d="M622.34,421.3a3.79,3.79,0,0,1-1.88,5,3.52,3.52,0,0,1-1.32.33,2.18,2.18,0,0,1-.24-.42,3.49,3.49,0,0,1,1.82-4.59A3.62,3.62,0,0,1,622.34,421.3Z"/><path class="cls-68" d="M573,412.36v0a3.6,3.6,0,0,0-1.61-.37,3.5,3.5,0,0,0-3.57,3.42,2.61,2.61,0,0,0,.05.48,3.79,3.79,0,1,1,5.13-3.55Z"/><path class="cls-69" d="M573,412.38a3.8,3.8,0,0,1-3.79,3.78,3.71,3.71,0,0,1-1.34-.25,2.61,2.61,0,0,1-.05-.48,3.5,3.5,0,0,1,3.57-3.42A3.6,3.6,0,0,1,573,412.38Z"/><path class="cls-68" d="M573.58,382.35v0A3.6,3.6,0,0,0,572,382a3.5,3.5,0,0,0-3.57,3.42,2.61,2.61,0,0,0,.05.48,3.79,3.79,0,1,1,5.13-3.55Z"/><path class="cls-69" d="M573.58,382.37a3.8,3.8,0,0,1-3.79,3.78,3.71,3.71,0,0,1-1.34-.25,2.61,2.61,0,0,1-.05-.48A3.5,3.5,0,0,1,572,382,3.6,3.6,0,0,1,573.58,382.37Z"/><path class="cls-70" d="M623.71,368.79l-.08.8-.2,1.93h0l-.15,1.46,0,0L619,375.86h0l-.05,0L614.35,379h0l-5.53,3.7a6.22,6.22,0,0,0-.89.18h0a2.67,2.67,0,0,1-2.06-.19,1.84,1.84,0,0,1-.42-1.54c.09-.83.3-3.31.38-4.33,0-.28,0-.45,0-.45l6.74-3.92,3-1.39.52-.24,1.75-.82,4.53-2.71s.64-.42,1.09-.2S623.71,368.79,623.71,368.79Z"/><path class="cls-71" d="M605.44,381.11a1.84,1.84,0,0,0,.42,1.54,2.67,2.67,0,0,0,2.06.19c-.09.21-1.15,2.8-3.06,2.46a1.82,1.82,0,0,1-.78-.32l-.17-.12a4.62,4.62,0,0,1-1.28-2.85l-.52-2.45-1-4.59c0-.07,0-.13,0-.2-.14-.63-.29-1.25-.44-1.85-.07-.3-.14-.59-.22-.87s-.14-.54-.22-.81-.2-.74-.31-1.1-.23-.82-.36-1.22-.18-.6-.28-.89c-.26-.81-.53-1.59-.8-2.34s-.53-1.41-.8-2.07c-.16-.4-.32-.78-.48-1.16s-.24-.55-.37-.82c-.24-.54-.48-1.05-.73-1.55l-.37-.74c-.11-.21-.22-.43-.34-.64s-.21-.4-.32-.59c-.58-1.05-1.17-2-1.75-2.86l-.2-.31-.36-.51-.36-.5q-.17-.24-.36-.48l-.35-.45-.35-.43c-.21-.26-.42-.51-.63-.74s-.17-.18-.24-.27-.31-.34-.47-.5l-.44-.45a5.35,5.35,0,0,0-.42-.41,19.71,19.71,0,0,0-1.5-1.29l-.31-.24c-.3-.23-.57-.4-.78-.54l-.23-.14a4,4,0,0,0-.45-.25,2.36,2.36,0,0,1-3.18.12,1.92,1.92,0,0,1-.62-1c-.34-1.33.92-3,2.56-4.26a11.87,11.87,0,0,1,6.22-2.38,6.59,6.59,0,0,1,2.87.46,4.5,4.5,0,0,1,1.16.72h0l.1.09a10.9,10.9,0,0,1,2.6,4s2.31,6.66,4.49,12.87l.39,1.12.87,2.45c.21.6.42,1.17.61,1.72l.44,1.24c.76,2.11,1.31,3.61,1.46,3.89.64,1.22,1.9,1,3.65.14a16.23,16.23,0,0,0,3.14-2.36l-.46,3.92,0,.14a.34.34,0,0,0,0,.09,3.54,3.54,0,0,0,0,.56,2.33,2.33,0,0,0,.47,1.12l-6.74,3.92s0,.17,0,.45C605.74,377.8,605.53,380.28,605.44,381.11Z"/><path class="cls-72" d="M636,334.37c0,.92-1.06,1.52-1.06,1.52l-1.06.64-.24.14-.19.11L633,337l-1.29.77-.4.24-.09.05-1,.62-.06,0-.86.52-2,1.19-1.75,1.05-5.71,3.41h0l-1.61,1h0l-.73.44a3.24,3.24,0,0,0-.35.21l-.65.39-.12.06-.34.21-1.06.63-.63.37-.09.05a.15.15,0,0,1-.07,0l0,0h0a3.31,3.31,0,0,1-.41.18l-.17.07a9,9,0,0,1-.95.3,7.59,7.59,0,0,1-2,.29,4,4,0,0,1-3.24-1.37l-.3-.41a2.25,2.25,0,0,1-.26-.63,1.88,1.88,0,0,1,0-.33,2.22,2.22,0,0,1,1.12-2l0,0,11.93-6.83,1.1-.63,4.29-2.46,4.26-2.44a2.41,2.41,0,0,1,2.08-.08s1.42.47,2.51.85h0c.53.18,1,.34,1.14.42a1.17,1.17,0,0,1,.68.75A1.35,1.35,0,0,1,636,334.37Z"/><path class="cls-73" d="M636,336.56l-10.19,6.26-1.71,1.05-.32.2a.41.41,0,0,0-.11-.07,1.4,1.4,0,0,0-1,.07l-.48.31-4.54,3-.74,3-.29,1.17c0,.21-.1.42-.16.64s-.08.34-.13.51c-.12.51-.25,1-.38,1.58-.4,1.68-.84,3.51-1.28,5.33-.1.39-.19.79-.29,1.18l-.86,3.61c-.22.92-.42,1.79-.6,2.57l-.25,1.09q-.1.43-.18.81s0,.05,0,.07c-.05.23-.1.44-.14.63-.09.42-.16.73-.2.94l.46-3.92,1.09-5.51.23-1.19,1.05-5.32.42-2.09.84-4.24A14.91,14.91,0,0,1,612.6,350a6.87,6.87,0,0,1-2.35.37c-2.74-.11-3.23-3-3.23-3l.3.41a4,4,0,0,0,3.24,1.37,7.59,7.59,0,0,0,2-.29,9,9,0,0,0,.95-.3l.17-.07a3.31,3.31,0,0,0,.41-.18h0l0,0,.16-.08.63-.37,1.06-.63.34-.21.12-.06.65-.39a3.24,3.24,0,0,1,.35-.21l.73-.44h0l1.61-1h0l5.71-3.41,1.75-1.05,2-1.19.86-.52.06,0,1-.62.09-.05.4-.24L633,337l.36-.22.19-.11.24-.14,1.06-.64s1.06-.6,1.06-1.52a1.35,1.35,0,0,0-.07-.46l.07,0C637.46,335.76,636,336.56,636,336.56Z"/><path class="cls-74" d="M586.91,345.6C598.12,354,603.35,374,603.35,374s.15.77.52,1a1.32,1.32,0,0,0,1.23,0l5.27-3.09c.14-.72.32-2.16.32-2.16s-3.16,1.66-5,1.31c-.85-.16-1.35-1.35-1.35-1.35s-6.46-17.52-7.49-20.93a19,19,0,0,0-1.62-3.87,4.33,4.33,0,0,0-2.8-2.22,9.1,9.1,0,0,0-7.17,1.68s-1.39,1.29-.06,1.76A1.51,1.51,0,0,0,586.91,345.6Z"/><path class="cls-71" d="M647.87,357.31a.08.08,0,0,0,0,.05,6.49,6.49,0,0,1-2.53,3.09,3.54,3.54,0,0,1-2.21.16,3.31,3.31,0,0,1-.85-.41,1.69,1.69,0,0,0-1.34-.34,3.93,3.93,0,0,0-1.33.69l-.56.4c-1.75,1.23-6.34,4.33-10.09,6.86-2.91,2-5.33,3.6-5.51,3.71l.2-1.93.08-.8s.2-1.51-.25-1.74-1.09.2-1.09.2l-.17.1,0,0-1.33.8,0,0-3,1.77.35-1.47h0l.25-1.07h0l0-.15.6-2.48.39-1.61,19.22-11.49a10.6,10.6,0,0,1,4.84-1.63,4.15,4.15,0,0,1,2.78.92,4.54,4.54,0,0,1,1.06,1.33A5.8,5.8,0,0,1,647.87,357.31Z"/><path class="cls-74" d="M644.69,358.87a2.45,2.45,0,0,1-2.26-.18,1.57,1.57,0,0,0-1-.25,3.35,3.35,0,0,0-1.23.5l-16.58,10.65.08-.8s.2-1.51-.25-1.74-1.09.2-1.09.2L617.84,370l1.25-5.18,20.71-12.34s4.51-3,6.41.46A4.41,4.41,0,0,1,644.69,358.87Z"/><rect class="cls-75" x="617.92" y="366.48" width="4.74" height="1.87" rx="0.93" transform="translate(-100.6 359.37) rotate(-30)"/><path class="cls-76" d="M594.85,341.44a4.5,4.5,0,0,0-1.16-.72,6.59,6.59,0,0,0-2.87-.46,11.87,11.87,0,0,0-6.22,2.38c-1.64,1.25-2.9,2.93-2.56,4.26l-9.64-5.64-24.49-14.32-8-4.69s-.85-2.28,2.8-5.89,9.09-.33,9.09-.33l10.38,5.85,5.17,2.9,1.42.8.44.24,2,1.12.84.47,5.17,2.89c5.75,3.21,10.75,6,12.73,7l.46.24C594.71,339.78,594.85,341.44,594.85,341.44Z"/><path class="cls-77" d="M603.91,384.86l-3.4-2.24-1.79-1.18c-13.5-30.79-43.12-39.79-43.12-39.79l-7.69-14.71,34.13,20a1.92,1.92,0,0,0,.62,1,2.36,2.36,0,0,0,3.18-.12,4,4,0,0,1,.45.25l.23.14c.21.14.48.31.78.54l.31.24a19.71,19.71,0,0,1,1.5,1.29l.42.41.44.45.47.5c.07.09.16.18.24.27l.63.74.35.43.35.45.36.48.36.5.36.51c.64.94,1.3,2,1.95,3.17.11.19.22.39.32.59s.23.43.34.64l.37.74c.25.5.49,1,.73,1.55.13.27.25.54.37.82s.32.76.48,1.16c.27.66.54,1.35.8,2.07s.54,1.53.8,2.34c.09.29.19.59.28.89s.25.81.36,1.22.21.73.31,1.1.15.54.22.81.15.57.22.87c.15.6.3,1.22.44,1.85,0,.07,0,.13,0,.2l1,4.59.52,2.45A4.62,4.62,0,0,0,603.91,384.86Z"/><path class="cls-78" d="M559.11,358.3c1.21-1.33.45-4.44.45-4.44l-4-12.21s29.62,9,43.12,39.79Z"/><path class="cls-79" d="M614.32,394.05s0,.21.12.6c.74,3.72,4.64,23.47,4.81,24.5l-.27,1.37-1.82-.84-12.29-19.54a31,31,0,0,0-3.27-4.4c-.9-.68-2.76.39-2.76.39s-26.44,13.41-27.07,13.71a16,16,0,0,1-3.38.29l.49-2.15s19.06-15.1,23.17-18.37l.76-.61c.76-.63,0-.92,0-.92l-22.29-7.24-1.62-1.56,2.45-.7,29.18,4,3.4,2.24.17.12a1.82,1.82,0,0,0,.78.32c1.91.34,3-2.25,3.06-2.46h0a6.22,6.22,0,0,1,.89-.18l5.53-3.7h0l4.57-3.06.05,0h0v0h0l-.05.07c-.43.75-3.4,5.84-3.91,6.72a3.85,3.85,0,0,0-.75,1.94c0,.55,1,.71,1,.71l.49.13,34.12,9,.55,1.18-1.08.38s-33.84-3.55-34.54-3.5C613.92,392.58,614.32,394.05,614.32,394.05Z"/><path class="cls-80" d="M613.92,359.88l-.23,1.19-1.09,5.51a16.23,16.23,0,0,1-3.14,2.36c-1.75.85-3,1.08-3.65-.14-.15-.28-.7-1.78-1.46-3.89l-.44-1.24Z"/><path class="cls-80" d="M643.54,350.05a10.6,10.6,0,0,0-4.84,1.63l-19.22,11.49,1.2-5,.23-.95,18.21-6.88a12.94,12.94,0,0,1,1.64-.44h0A4.27,4.27,0,0,1,643.54,350.05Z"/><path class="cls-81" d="M592.81,389l-.76.61-22.9-7.7,1.35-1.07,22.29,7.24S593.57,388.37,592.81,389Z"/><path class="cls-81" d="M617.16,419.68l-.79,1.09-14.22-22.29c-1-1.62-1.6-1.39-1.6-1.39a2.32,2.32,0,0,0-1.49.46l-27.74,13.87.45-1.58c.63-.3,27.07-13.71,27.07-13.71s1.86-1.07,2.76-.39a31,31,0,0,1,3.27,4.4Z"/><path class="cls-81" d="M650.45,397.47l-36-2.82c-.08-.39-.12-.6-.12-.6s-.4-1.47.51-1.52c.7,0,34.54,3.5,34.54,3.5Z"/><path class="cls-81" d="M619.48,377.41h0l-3.7,8-.49-.13s-1-.16-1-.71a3.85,3.85,0,0,1,.75-1.94c.51-.88,3.48-6,3.91-6.72a3.07,3.07,0,0,0,.13,1,3.52,3.52,0,0,0,.18.45Z"/><path class="cls-69" d="M620.59,377.26a3.54,3.54,0,0,1-1.11.15h-.25a3.52,3.52,0,0,1-.18-.45,3.07,3.07,0,0,1-.13-1l.05-.07h0v0l4.26-2.85A3.76,3.76,0,0,1,620.59,377.26Z"/><ellipse class="cls-82" cx="607.22" cy="368.03" rx="0.99" ry="1.18" transform="translate(62.18 823.1) rotate(-71.08)"/><path class="cls-83" d="M615,354.56l-1.05,5.32-5.76,2.18-4.25,1.61c-.19-.55-.4-1.12-.61-1.72l-.87-2.45-.39-1.12Z"/><path class="cls-83" d="M640.77,349.92h0a12.94,12.94,0,0,0-1.64.44l-18.21,6.88,1.09-4.49.07-.28,17.81-5.26a5.31,5.31,0,0,1,.38.58A3.3,3.3,0,0,1,640.77,349.92Z"/><ellipse class="cls-84" cx="604.88" cy="388.08" rx="2.63" ry="1.49"/><path class="cls-72" d="M623.73,345.6l-1.66,6.87-.07.28-1.09,4.49-.23.95-1.2,5-.39,1.61-.6,2.48,0,.15h0l-.25,1.07h0l-.35,1.47-.18.74,0,.24v0s-.71,2.77-2.9,2.47a4.88,4.88,0,0,1-.62-.12,2.66,2.66,0,0,1-1.48-.91,2.33,2.33,0,0,1-.47-1.12,3.54,3.54,0,0,1,0-.56.34.34,0,0,1,0-.09s0-.09,0-.14c0-.21.11-.52.2-.94,0-.19.09-.4.14-.63,0,0,0,0,0-.07q.09-.37.18-.81l.25-1.09c.18-.78.38-1.65.6-2.57l.86-3.61h0c.09-.39.18-.79.28-1.18.44-1.82.88-3.65,1.28-5.33h0c.13-.55.26-1.07.38-1.58l.12-.51c.06-.22.11-.43.16-.64l.29-1.17.74-3,4.54-3,.48-.31a1.4,1.4,0,0,1,1-.07.41.41,0,0,1,.11.07C624.08,344.36,623.73,345.6,623.73,345.6Z"/></g><path class="cls-85" d="M710.35,297.26a1,1,0,0,1-.14.15l-16.13,13.07a.84.84,0,0,1-1,.07l-62.67-37.38a.49.49,0,0,1-.14-.11.86.86,0,0,1,0-1.3l16.11-13.08a.88.88,0,0,1,1-.07L710.11,296A.86.86,0,0,1,710.35,297.26Z"/><path class="cls-86" d="M687.17,284.89l2,1.22a.27.27,0,0,1,0,.44l-1.85,1.51a.27.27,0,0,1-.31,0l-2-1.22a.27.27,0,0,1,0-.44l1.85-1.51A.29.29,0,0,1,687.17,284.89Z"/><path class="cls-86" d="M702.62,297.39l1.87,1.12a.37.37,0,0,1,0,.61l-1.7,1.39a.33.33,0,0,1-.38,0l-1.92-1.14a.34.34,0,0,1,0-.55l1.75-1.42A.33.33,0,0,1,702.62,297.39Z"/><path class="cls-86" d="M700.32,299.26l1.92,1.15a.34.34,0,0,1,0,.55l-4.06,3.28a.33.33,0,0,1-.38,0l-1.92-1.14a.34.34,0,0,1,0-.55l4.06-3.29A.33.33,0,0,1,700.32,299.26Z"/><path class="cls-86" d="M689.7,286.41l2,1.21a.28.28,0,0,1,0,.45l-1.85,1.5a.26.26,0,0,1-.31,0l-2-1.22a.28.28,0,0,1,0-.45l1.86-1.5A.27.27,0,0,1,689.7,286.41Z"/><path class="cls-86" d="M692.23,287.92l2,1.22a.27.27,0,0,1,0,.44l-1.86,1.51a.27.27,0,0,1-.31,0l-2-1.22a.27.27,0,0,1,0-.44l1.86-1.51A.27.27,0,0,1,692.23,287.92Z"/><path class="cls-86" d="M684.86,286.76l2,1.22a.27.27,0,0,1,0,.44l-1.86,1.51a.27.27,0,0,1-.31,0l-2-1.21a.28.28,0,0,1,0-.45l1.85-1.51A.27.27,0,0,1,684.86,286.76Z"/><path class="cls-86" d="M687.39,288.28l2,1.21a.28.28,0,0,1,0,.45l-1.85,1.51a.27.27,0,0,1-.31,0l-2-1.22a.27.27,0,0,1,0-.44l1.85-1.51A.27.27,0,0,1,687.39,288.28Z"/><path class="cls-86" d="M689.93,289.79l2,1.22a.27.27,0,0,1,0,.44L690.14,293a.27.27,0,0,1-.31,0l-2-1.22a.27.27,0,0,1,0-.44l1.85-1.51A.29.29,0,0,1,689.93,289.79Z"/><path class="cls-86" d="M682.56,288.63l2,1.22a.28.28,0,0,1,0,.45l-1.86,1.5a.27.27,0,0,1-.31,0l-2-1.21a.28.28,0,0,1,0-.45l1.86-1.5A.26.26,0,0,1,682.56,288.63Z"/><path class="cls-86" d="M685.09,290.15l2,1.22a.27.27,0,0,1,0,.44l-1.86,1.51a.27.27,0,0,1-.31,0l-2-1.22a.27.27,0,0,1,0-.44l1.86-1.51A.27.27,0,0,1,685.09,290.15Z"/><path class="cls-86" d="M687.62,291.66l2,1.22a.28.28,0,0,1,0,.45l-1.86,1.5a.27.27,0,0,1-.31,0l-2-1.21a.28.28,0,0,1,0-.45l1.85-1.5A.26.26,0,0,1,687.62,291.66Z"/><path class="cls-86" d="M695,292.84,697,294a.34.34,0,0,1,0,.55L695.24,296a.35.35,0,0,1-.39,0l-1.92-1.15a.34.34,0,0,1,0-.55l1.75-1.42A.35.35,0,0,1,695,292.84Z"/><path class="cls-86" d="M697.56,294.36l1.92,1.15a.34.34,0,0,1,0,.55l-1.75,1.42a.33.33,0,0,1-.39,0l-1.91-1.14a.34.34,0,0,1,0-.55l1.75-1.42A.33.33,0,0,1,697.56,294.36Z"/><path class="cls-86" d="M700.09,295.87,702,297a.34.34,0,0,1,0,.55L700.3,299a.33.33,0,0,1-.38,0L698,297.87a.34.34,0,0,1,0-.55l1.75-1.42A.33.33,0,0,1,700.09,295.87Z"/><path class="cls-86" d="M692.72,294.72l1.92,1.14a.34.34,0,0,1,0,.55l-1.75,1.42a.33.33,0,0,1-.38,0l-1.92-1.15a.34.34,0,0,1,0-.55l1.75-1.42A.32.32,0,0,1,692.72,294.72Z"/><path class="cls-86" d="M695.26,296.23l1.91,1.15a.34.34,0,0,1,0,.55l-1.75,1.42a.33.33,0,0,1-.38,0l-1.92-1.15a.34.34,0,0,1,0-.55l1.75-1.42A.35.35,0,0,1,695.26,296.23Z"/><path class="cls-86" d="M697.79,297.75l1.92,1.14a.34.34,0,0,1,0,.55L698,300.86a.35.35,0,0,1-.39,0l-1.92-1.15a.34.34,0,0,1,0-.55l1.75-1.42A.33.33,0,0,1,697.79,297.75Z"/><path class="cls-86" d="M690.42,296.59l1.92,1.14a.34.34,0,0,1,0,.55l-1.75,1.42a.35.35,0,0,1-.39,0l-1.91-1.15a.33.33,0,0,1,0-.54l1.75-1.43A.33.33,0,0,1,690.42,296.59Z"/><path class="cls-86" d="M693,298.1l1.92,1.15a.34.34,0,0,1,0,.55l-1.75,1.42a.33.33,0,0,1-.38,0l-1.92-1.15a.34.34,0,0,1,0-.55l1.75-1.42A.33.33,0,0,1,693,298.1Z"/><path class="cls-86" d="M695.48,299.62l1.92,1.14a.34.34,0,0,1,0,.55l-1.75,1.42a.33.33,0,0,1-.38,0l-1.92-1.15a.34.34,0,0,1,0-.55l1.75-1.42A.33.33,0,0,1,695.48,299.62Z"/><path class="cls-86" d="M688.12,298.46l1.91,1.15a.33.33,0,0,1,0,.54l-1.74,1.43a.35.35,0,0,1-.39,0L686,300.46a.34.34,0,0,1,0-.55l1.75-1.42A.35.35,0,0,1,688.12,298.46Z"/><path class="cls-86" d="M685.81,300.33l4.45,2.66a.34.34,0,0,1,0,.55L688.55,305a.33.33,0,0,1-.38,0l-4.45-2.66a.34.34,0,0,1,0-.55l1.75-1.42A.33.33,0,0,1,685.81,300.33Z"/><path class="cls-86" d="M690.65,300l1.92,1.15a.34.34,0,0,1,0,.55l-1.75,1.42a.35.35,0,0,1-.39,0L688.55,302a.33.33,0,0,1,0-.55l1.74-1.42A.35.35,0,0,1,690.65,300Z"/><path class="cls-86" d="M693.18,301.49l1.92,1.15a.33.33,0,0,1,0,.54l-1.75,1.43a.37.37,0,0,1-.39,0l-1.91-1.15a.33.33,0,0,1,0-.54l1.75-1.42A.33.33,0,0,1,693.18,301.49Z"/><path class="cls-86" d="M697.67,304.7l-3.75,3a.89.89,0,0,1-1,.07l-2-1.19-2.12-1.27a.33.33,0,0,1,0-.55l1.75-1.42a.33.33,0,0,1,.38,0l2.13,1.27a.33.33,0,0,0,.38,0l1.93-1.57a.35.35,0,0,1,.39,0l1.92,1.15A.34.34,0,0,1,697.67,304.7Z"/><path class="cls-86" d="M650.08,266.07l1.81,1.08a.39.39,0,0,1,.05.64l-1.65,1.35a.41.41,0,0,1-.45,0L648,268.08a.39.39,0,0,1,0-.64l1.65-1.34A.38.38,0,0,1,650.08,266.07Z"/><path class="cls-86" d="M652.59,267.57l1.88,1.12a.35.35,0,0,1,0,.58l-1.72,1.4a.38.38,0,0,1-.41,0l-1.88-1.13a.36.36,0,0,1,0-.58l1.72-1.39A.33.33,0,0,1,652.59,267.57Z"/><path class="cls-86" d="M655.12,269.08l1.89,1.13a.36.36,0,0,1,0,.58l-1.72,1.39a.35.35,0,0,1-.41,0L653,271.09a.37.37,0,0,1,0-.59l1.72-1.39A.35.35,0,0,1,655.12,269.08Z"/><path class="cls-86" d="M657.66,270.6l1.88,1.12a.36.36,0,0,1,0,.58l-1.72,1.4a.36.36,0,0,1-.4,0l-1.88-1.13a.35.35,0,0,1-.05-.58l1.72-1.4A.36.36,0,0,1,657.66,270.6Z"/><path class="cls-86" d="M655.35,272.47l1.88,1.12a.35.35,0,0,1,0,.58l-1.72,1.4a.38.38,0,0,1-.41,0l-1.88-1.13a.36.36,0,0,1,0-.58L655,272.5A.33.33,0,0,1,655.35,272.47Z"/><path class="cls-86" d="M653.05,274.34l1.88,1.12a.37.37,0,0,1,0,.59l-1.71,1.39a.36.36,0,0,1-.41,0L651,276.34a.35.35,0,0,1,0-.58l1.71-1.39A.35.35,0,0,1,653.05,274.34Z"/><path class="cls-86" d="M650.77,276.22l1.81,1.09a.39.39,0,0,1,0,.64L651,279.29a.39.39,0,0,1-.45,0l-1.81-1.09a.39.39,0,0,1,0-.64l1.65-1.34A.39.39,0,0,1,650.77,276.22Z"/><path class="cls-86" d="M663.16,270.53l1.88,1.12a.37.37,0,0,1,0,.59l-1.72,1.39a.35.35,0,0,1-.4,0l-1.89-1.13a.36.36,0,0,1,0-.58l1.72-1.39A.35.35,0,0,1,663.16,270.53Z"/><path class="cls-86" d="M668.51,273.83l1.9,1.14a.34.34,0,0,1,0,.56l-1.73,1.41a.36.36,0,0,1-.4,0l-1.9-1.14a.35.35,0,0,1,0-.56l1.74-1.41A.33.33,0,0,1,668.51,273.83Z"/><path class="cls-86" d="M666.21,275.7l1.9,1.14a.34.34,0,0,1,0,.56l-1.74,1.41a.35.35,0,0,1-.39,0l-1.9-1.14a.34.34,0,0,1,0-.56l1.73-1.41A.36.36,0,0,1,666.21,275.7Z"/><path class="cls-86" d="M663.9,277.57l1.91,1.14a.35.35,0,0,1,0,.56l-1.74,1.41a.35.35,0,0,1-.39,0l-1.91-1.14a.35.35,0,0,1,0-.56l1.74-1.41A.35.35,0,0,1,663.9,277.57Z"/><path class="cls-86" d="M671,275.34l1.91,1.14a.35.35,0,0,1,0,.56l-1.74,1.41a.32.32,0,0,1-.39,0L669,277.34a.35.35,0,0,1,0-.56l1.74-1.41A.35.35,0,0,1,671,275.34Z"/><path class="cls-86" d="M668.74,277.21l1.9,1.14a.35.35,0,0,1,0,.57L669,280.33a.35.35,0,0,1-.4,0l-1.9-1.14a.34.34,0,0,1,0-.56l1.73-1.41A.36.36,0,0,1,668.74,277.21Z"/><path class="cls-86" d="M666.43,279.09l1.91,1.13a.36.36,0,0,1,0,.57l-1.74,1.41a.33.33,0,0,1-.39,0l-1.9-1.13a.35.35,0,0,1,0-.57l1.73-1.41A.33.33,0,0,1,666.43,279.09Z"/><path class="cls-86" d="M661.6,279.44l1.9,1.14a.34.34,0,0,1,0,.56l-1.73,1.41a.35.35,0,0,1-.4,0l-1.9-1.14a.34.34,0,0,1,0-.56l1.74-1.41A.35.35,0,0,1,661.6,279.44Z"/><path class="cls-86" d="M664.13,281l1.9,1.14a.34.34,0,0,1,0,.56l-1.73,1.41a.35.35,0,0,1-.39,0L662,283a.35.35,0,0,1,0-.56l1.74-1.41A.32.32,0,0,1,664.13,281Z"/><path class="cls-86" d="M666.66,282.47l1.91,1.14a.35.35,0,0,1,0,.56l-1.74,1.41a.33.33,0,0,1-.39,0l-1.91-1.14a.35.35,0,0,1,0-.56l1.74-1.41A.35.35,0,0,1,666.66,282.47Z"/><path class="cls-86" d="M664.36,284.34l1.9,1.14a.34.34,0,0,1,0,.56l-1.73,1.41a.33.33,0,0,1-.4,0l-1.9-1.14a.34.34,0,0,1,0-.56l1.73-1.41A.36.36,0,0,1,664.36,284.34Z"/><path class="cls-86" d="M661.83,282.83l1.9,1.14a.34.34,0,0,1,0,.56L662,285.94a.35.35,0,0,1-.39,0l-1.9-1.14a.34.34,0,0,1,0-.56l1.73-1.41A.35.35,0,0,1,661.83,282.83Z"/><path class="cls-86" d="M659.29,281.31l1.91,1.14a.35.35,0,0,1,0,.56l-1.74,1.41a.32.32,0,0,1-.39,0l-1.9-1.14a.34.34,0,0,1,0-.56l1.73-1.41A.35.35,0,0,1,659.29,281.31Z"/><path class="cls-86" d="M659.52,284.7l1.91,1.14a.35.35,0,0,1,0,.56l-1.74,1.41a.35.35,0,0,1-.39,0l-1.91-1.14a.35.35,0,0,1,0-.56l1.74-1.41A.35.35,0,0,1,659.52,284.7Z"/><path class="cls-86" d="M657,283.18l1.9,1.14a.35.35,0,0,1,0,.57l-1.73,1.41a.33.33,0,0,1-.39,0l-1.91-1.14a.35.35,0,0,1,0-.56l1.74-1.41A.35.35,0,0,1,657,283.18Z"/><path class="cls-86" d="M662.05,286.21l1.91,1.14a.36.36,0,0,1,0,.57l-1.74,1.41a.33.33,0,0,1-.39,0l-1.9-1.14a.34.34,0,0,1,0-.56l1.73-1.41A.35.35,0,0,1,662.05,286.21Z"/><path class="cls-86" d="M679.61,280.37l1.91,1.14a.35.35,0,0,1,0,.56l-1.74,1.41a.33.33,0,0,1-.39,0l-1.9-1.14a.34.34,0,0,1,0-.56l1.73-1.41A.35.35,0,0,1,679.61,280.37Z"/><path class="cls-86" d="M677.31,282.24l1.9,1.14a.35.35,0,0,1,0,.57l-1.73,1.4a.33.33,0,0,1-.4,0l-1.9-1.14a.35.35,0,0,1,0-.56l1.74-1.41A.35.35,0,0,1,677.31,282.24Z"/><path class="cls-86" d="M677.08,278.86,679,280a.34.34,0,0,1,0,.56L677.29,282a.35.35,0,0,1-.39,0L675,280.86a.36.36,0,0,1,0-.57l1.74-1.4A.32.32,0,0,1,677.08,278.86Z"/><path class="cls-86" d="M674.78,280.73l1.9,1.14a.34.34,0,0,1,0,.56L675,283.84a.36.36,0,0,1-.4,0l-1.9-1.14a.34.34,0,0,1,0-.56l1.73-1.41A.35.35,0,0,1,674.78,280.73Z"/><path class="cls-86" d="M675,284.12l1.9,1.13a.36.36,0,0,1,0,.57l-1.74,1.41a.33.33,0,0,1-.39,0l-1.9-1.13a.35.35,0,0,1,0-.57l1.73-1.41A.34.34,0,0,1,675,284.12Z"/><path class="cls-86" d="M682.15,281.89l1.9,1.14a.35.35,0,0,1,0,.56L682.35,285a.35.35,0,0,1-.39,0l-1.9-1.14a.35.35,0,0,1,0-.57l1.73-1.4A.33.33,0,0,1,682.15,281.89Z"/><path class="cls-86" d="M679.84,283.76l1.9,1.14a.34.34,0,0,1,0,.56l-1.73,1.41a.35.35,0,0,1-.39,0l-1.91-1.14a.35.35,0,0,1,0-.56l1.74-1.41A.33.33,0,0,1,679.84,283.76Z"/><path class="cls-86" d="M677.54,285.63l1.9,1.14a.34.34,0,0,1,0,.56l-1.73,1.41a.36.36,0,0,1-.4,0l-1.9-1.14a.34.34,0,0,1,0-.56l1.73-1.41A.36.36,0,0,1,677.54,285.63Z"/><path class="cls-86" d="M672.7,286l1.9,1.13a.35.35,0,0,1,0,.57l-1.73,1.41a.33.33,0,0,1-.39,0L670.61,288a.36.36,0,0,1,0-.57l1.74-1.4A.32.32,0,0,1,672.7,286Z"/><path class="cls-86" d="M675.23,287.5l1.91,1.14a.35.35,0,0,1,0,.56l-1.74,1.41a.35.35,0,0,1-.39,0l-1.9-1.14a.34.34,0,0,1,0-.56l1.73-1.41A.35.35,0,0,1,675.23,287.5Z"/><path class="cls-86" d="M672.93,289.37l1.9,1.14a.34.34,0,0,1,0,.56l-1.73,1.41a.35.35,0,0,1-.4,0l-1.9-1.14a.35.35,0,0,1,0-.56l1.74-1.41A.35.35,0,0,1,672.93,289.37Z"/><path class="cls-86" d="M670.4,287.86l1.9,1.14a.34.34,0,0,1,0,.56L670.61,291a.36.36,0,0,1-.4,0l-1.9-1.14a.35.35,0,0,1,0-.57l1.73-1.4A.33.33,0,0,1,670.4,287.86Z"/><path class="cls-86" d="M670.63,291.24l1.9,1.14a.36.36,0,0,1,0,.57l-1.73,1.4a.33.33,0,0,1-.4,0l-1.9-1.14a.34.34,0,0,1,0-.56l1.73-1.41A.36.36,0,0,1,670.63,291.24Z"/><path class="cls-86" d="M668.1,289.73l1.9,1.14a.35.35,0,0,1,0,.56l-1.74,1.41a.35.35,0,0,1-.39,0l-1.9-1.14a.34.34,0,0,1,0-.56l1.73-1.41A.35.35,0,0,1,668.1,289.73Z"/><path class="cls-86" d="M680.48,293.89l2,1.22a.27.27,0,0,1,0,.44l-1.86,1.51a.27.27,0,0,1-.31,0l-2-1.22a.27.27,0,0,1,0-.44l1.85-1.51A.27.27,0,0,1,680.48,293.89Z"/><path class="cls-86" d="M680.71,297.28l2,1.21a.28.28,0,0,1,0,.45l-1.86,1.51a.27.27,0,0,1-.31,0l-2-1.22a.27.27,0,0,1,0-.44l1.86-1.51A.27.27,0,0,1,680.71,297.28Z"/><path class="cls-86" d="M678.18,295.76l2,1.22a.27.27,0,0,1,0,.44l-1.86,1.51a.27.27,0,0,1-.31,0l-2-1.21a.28.28,0,0,1,0-.45l1.86-1.51A.27.27,0,0,1,678.18,295.76Z"/><path class="cls-86" d="M675.65,294.25l2,1.22a.27.27,0,0,1,0,.44l-1.85,1.51a.27.27,0,0,1-.31,0l-2-1.22a.27.27,0,0,1,0-.44l1.86-1.51A.27.27,0,0,1,675.65,294.25Z"/><path class="cls-86" d="M651.1,263.43l1.81,1.09a.39.39,0,0,1,0,.64l-1.65,1.34a.38.38,0,0,1-.45,0L649,265.45a.39.39,0,0,1,0-.64l1.65-1.35A.43.43,0,0,1,651.1,263.43Z"/><path class="cls-86" d="M647.55,264.55l1.81,1.08a.4.4,0,0,1,0,.65l-1.65,1.34a.38.38,0,0,1-.45,0l-1.81-1.08a.4.4,0,0,1,0-.65l1.65-1.34A.41.41,0,0,1,647.55,264.55Z"/><path class="cls-86" d="M645,263l1.81,1.08a.39.39,0,0,1,0,.64l-1.65,1.35a.43.43,0,0,1-.46,0L643,265.06a.4.4,0,0,1,0-.65l1.65-1.34A.38.38,0,0,1,645,263Z"/><path class="cls-86" d="M647.48,261.26l1.65,1a.39.39,0,0,1,0,.64l-1.65,1.34a.39.39,0,0,1-.45,0l-1.81-1.09a.39.39,0,0,1,0-.64l1.51-1.23A.66.66,0,0,1,647.48,261.26Z"/><path class="cls-86" d="M642.72,264.91l4.34,2.59a.4.4,0,0,1,0,.65l-1.65,1.34a.38.38,0,0,1-.45,0l-4.34-2.59a.4.4,0,0,1,0-.65l1.65-1.34A.39.39,0,0,1,642.72,264.91Z"/><path class="cls-86" d="M640.41,266.78l4.34,2.6a.39.39,0,0,1,0,.64l-1.65,1.34a.39.39,0,0,1-.45,0l-4.34-2.6a.4.4,0,0,1-.05-.65l1.65-1.34A.39.39,0,0,1,640.41,266.78Z"/><path class="cls-86" d="M638.11,268.65l4.34,2.6a.39.39,0,0,1,0,.64l-1.65,1.34a.41.41,0,0,1-.46,0l-4.34-2.6a.4.4,0,0,1,0-.65l1.65-1.34A.39.39,0,0,1,638.11,268.65Z"/><path class="cls-86" d="M635.83,270.54l4.26,2.55a.43.43,0,0,1,0,.71l-1.57,1.29a.45.45,0,0,1-.51,0l-4.35-2.6a.37.37,0,0,1,0-.6l1.66-1.35A.44.44,0,0,1,635.83,270.54Z"/><path class="cls-86" d="M653.61,264.93l1.88,1.13a.36.36,0,0,1,0,.58L653.81,268a.33.33,0,0,1-.4,0l-1.89-1.12a.36.36,0,0,1,0-.58l1.72-1.4A.38.38,0,0,1,653.61,264.93Z"/><path class="cls-86" d="M656.14,266.45l1.88,1.12a.37.37,0,0,1,0,.59l-1.72,1.39a.35.35,0,0,1-.4,0l-1.88-1.13a.35.35,0,0,1,0-.58l1.72-1.39A.35.35,0,0,1,656.14,266.45Z"/><path class="cls-86" d="M658.67,268l1.88,1.13a.36.36,0,0,1,0,.58l-1.71,1.39a.35.35,0,0,1-.41,0L656.59,270a.35.35,0,0,1,0-.58l1.71-1.4A.38.38,0,0,1,658.67,268Z"/><path class="cls-86" d="M647.78,267.94l1.81,1.08a.4.4,0,0,1,0,.65L648,271a.43.43,0,0,1-.46,0L645.72,270a.4.4,0,0,1,0-.65l1.65-1.34A.38.38,0,0,1,647.78,267.94Z"/><path class="cls-86" d="M650.31,269.45l1.81,1.08a.4.4,0,0,1,0,.65l-1.65,1.34a.38.38,0,0,1-.45,0l-1.81-1.08a.4.4,0,0,1,0-.65l1.65-1.34A.41.41,0,0,1,650.31,269.45Z"/><path class="cls-86" d="M652.82,271l1.88,1.13a.35.35,0,0,1,0,.58L653,274.05a.35.35,0,0,1-.41,0L650.74,273a.37.37,0,0,1,0-.59l1.71-1.39A.38.38,0,0,1,652.82,271Z"/><path class="cls-86" d="M645.48,269.81l1.81,1.08a.4.4,0,0,1,0,.65l-1.65,1.34a.39.39,0,0,1-.45,0l-1.81-1.08a.4.4,0,0,1,0-.65l1.65-1.34A.41.41,0,0,1,645.48,269.81Z"/><path class="cls-86" d="M648,271.32l1.81,1.09a.39.39,0,0,1,0,.64l-1.65,1.34a.38.38,0,0,1-.45,0L646,273.34a.39.39,0,0,1,0-.64l1.65-1.34A.39.39,0,0,1,648,271.32Z"/><path class="cls-86" d="M650.54,272.84l1.81,1.08a.4.4,0,0,1,0,.65l-1.65,1.34a.43.43,0,0,1-.46,0l-1.81-1.08a.4.4,0,0,1,0-.65l1.65-1.34A.39.39,0,0,1,650.54,272.84Z"/><path class="cls-86" d="M643.17,271.68l1.81,1.08a.4.4,0,0,1,0,.65l-1.65,1.34a.39.39,0,0,1-.45,0l-1.81-1.08a.4.4,0,0,1,0-.65l1.65-1.34A.39.39,0,0,1,643.17,271.68Z"/><path class="cls-86" d="M645.7,273.19l1.81,1.09a.39.39,0,0,1,0,.64l-1.65,1.34a.39.39,0,0,1-.45,0l-1.81-1.09a.39.39,0,0,1,0-.64l1.65-1.34A.39.39,0,0,1,645.7,273.19Z"/><path class="cls-86" d="M648.24,274.71l1.81,1.08a.4.4,0,0,1,0,.65l-1.65,1.34a.39.39,0,0,1-.45,0l-1.81-1.08a.4.4,0,0,1,0-.65l1.65-1.34A.41.41,0,0,1,648.24,274.71Z"/><path class="cls-86" d="M640.87,273.55l1.81,1.08a.4.4,0,0,1,.05.65l-1.66,1.34a.39.39,0,0,1-.45,0l-1.81-1.08a.4.4,0,0,1,0-.65l1.65-1.34A.41.41,0,0,1,640.87,273.55Z"/><path class="cls-86" d="M643.4,275.07l1.81,1.08a.39.39,0,0,1,0,.64l-1.65,1.35a.43.43,0,0,1-.46,0l-1.81-1.09a.39.39,0,0,1,0-.64L643,275.1A.38.38,0,0,1,643.4,275.07Z"/><path class="cls-86" d="M645.93,276.58l1.81,1.08a.4.4,0,0,1,0,.65l-1.65,1.34a.39.39,0,0,1-.45,0l-1.81-1.08a.4.4,0,0,1,0-.65l1.65-1.34A.39.39,0,0,1,645.93,276.58Z"/><path class="cls-87" d="M710.69,302.19l-16.12,13.07a.84.84,0,0,1-1,.07L630.91,278a.88.88,0,0,1-.1-1.42l1.46-1.18,60.94,36.34a.86.86,0,0,0,1-.08l14.65-11.88,1.75,1A.86.86,0,0,1,710.69,302.19Z"/><path class="cls-88" d="M710.31,298.55l-1.47,1.19-14.65,11.88a.86.86,0,0,1-1,.08l-60.94-36.34-1.74-1a.86.86,0,0,1-.24-1.26.49.49,0,0,0,.14.11l2.61,1.56,60.06,35.82a.84.84,0,0,0,1-.07L708,299.22l2.23-1.81a1,1,0,0,0,.14-.15A.84.84,0,0,1,710.31,298.55Z"/><g id="boy"><path class="cls-89" d="M622.44,241.74a15.32,15.32,0,0,0-5.58.21,10.68,10.68,0,0,0-1.58.5s-3,1-3.85,2.25a7.33,7.33,0,0,0-1,3.38s-2.57.17-5.83.28c-5,.17-11.67.17-13.21-.87a14.5,14.5,0,0,0-5.22-2.15h0c-.07-1.57-.12-3.57,0-5.61,9.5,5.66,20.85,4.48,21.89,4.57a13,13,0,0,0,3.27-1.05,17.81,17.81,0,0,1,1.85-.74,17.36,17.36,0,0,1,3.66-.81,11.17,11.17,0,0,1,2-.06,6.56,6.56,0,0,0-4.21-.81,37.62,37.62,0,0,1-28.17-4.75s2.35-5.82,6.35-6.78a1.63,1.63,0,0,0-1.16-.42,6.6,6.6,0,0,1,4.91-1.28,5.37,5.37,0,0,1,3.67-1.18s.9-2.3,10-.5a11.45,11.45,0,0,1,4.88,3,4.36,4.36,0,0,0,3,1.05s1.49-.56,1.21,2.36c0,0-.65,1.4.19,1.87S624.83,235.93,622.44,241.74Z"/><path class="cls-90" d="M595.26,230.49s5.08-5.16,13.48-1.69A3.05,3.05,0,0,0,610,229a2.41,2.41,0,0,1-1.7.2A19.36,19.36,0,0,0,595.26,230.49Z"/><path class="cls-90" d="M618.75,241.64a16,16,0,0,0-7.5,1.61A13,13,0,0,1,608,244.3c-1-.09-12.39,1.09-21.89-4.57,0-1.23.13-2.47.28-3.65a37.62,37.62,0,0,0,28.17,4.75A6.56,6.56,0,0,1,618.75,241.64Z"/><path class="cls-91" d="M609.44,263a10.9,10.9,0,0,1-4.47-.86c-2.17-.78-2.37.14-2.37.14l0,3.71a9.74,9.74,0,0,1,1.39.93l0,0c1.37,1.13.8,1.67.8,1.67-12.45.2-16.1-6.48-16.1-6.48s4.29-1.43,4.31-1.48,0-2.89,0-2.89a13,13,0,0,0,6.26-.24,4.39,4.39,0,0,0,1.61-.92C603.08,262.3,609.44,263,609.44,263Z"/><path class="cls-91" d="M616.62,251.84a2.62,2.62,0,0,1,.37,1.23c-.11.51-2.36,1.29-2.36,1.29s-1,.35.18,1.84c.9,1.15-1.2,1.05-1.2,1.05,1,.77.47,1.85-.31,1.87s-.64.43-.64.43c-.38,2.44-1.7,3.3-3.22,3.44-4.81-1.75-7-8.69-7-8.69a3.63,3.63,0,0,0,.17-1.16c0-1.8,2.11-4.6,2.77-4.73a4.61,4.61,0,0,1,2.08.8,10.55,10.55,0,0,1,1.13.75,3.21,3.21,0,0,1,.46.38c.93.92,1.2-.43,1.2-.43s0-.19,0-.28c0-.3,0-.59.07-.86s.06-.47.09-.69a7.33,7.33,0,0,1,1-3.38c.89-1.25,3.85-2.25,3.85-2.25a10.68,10.68,0,0,1,1.58-.5c.67,3,.2,4-.08,4.23a.49.49,0,0,1-.17.11,2.27,2.27,0,0,0-.56.76,3.61,3.61,0,0,0-.33,1.68,6.17,6.17,0,0,0,.08.81,4.49,4.49,0,0,0,.16.75,5.42,5.42,0,0,0,.22.56Z"/><path class="cls-92" d="M619.47,249.27c0,2.22-2.85,2.57-2.85,2.57l-.44-1s2-.25,2.11-1.35l-2.49,0-5.55.09-1.68.33a33.52,33.52,0,0,0-3.3.77s-.64.35-.93-.1.32-.79.32-.79,1.29-.33,2.78-.63a28.14,28.14,0,0,1,2.88-.44,5.94,5.94,0,0,1,.91,0c1,.05,2.9,0,4.49,0l2.61-.08a2.67,2.67,0,0,0-2.28-1.6,2.27,2.27,0,0,1,.56-.76.49.49,0,0,0,.17-.11S619.47,246.92,619.47,249.27Z"/><path class="cls-90" d="M610.41,248.08q-.12.79-.18,1.83s-.27,1.35-1.2.43c-.74-.74-3-2.05-3.67-1.93s-2.8,2.93-2.77,4.73a4.8,4.8,0,0,1-3.27,4.37,13,13,0,0,1-6.26.24,4.27,4.27,0,0,1-.81-.3,2.36,2.36,0,0,1-1.56-2.33c-.06-.18-.38-4.78-4.32-6.58,0,0-.13-1.29-.23-3.2h0a14.5,14.5,0,0,1,5.22,2.15c1.54,1,8.2,1,13.21.87C607.84,248.25,610.41,248.08,610.41,248.08Z"/><path class="cls-93" d="M609.44,263s-6.36-.69-8.51-6.4a5,5,0,0,0,1.49-2.29S604.63,261.24,609.44,263Z"/><path class="cls-94" d="M606.86,270.35a1.19,1.19,0,0,1-.6.55,1.66,1.66,0,0,0-1.33-1.27c-13,.28-18.4-6.19-18-7s1.84-.48,1.84-.48,3.37,6.18,14.71,6.46c.45,0,.92,0,1.39,0,0,0,.57-.54-.8-1.67C606.9,268.71,607.14,269.78,606.86,270.35Z"/><path class="cls-95" d="M628.09,300.6c-2.93,1.61-5.22,5.94-6.43,8.58-.59,1.27-.93,2.14-1,2.14s-7.62-8.4-7.62-8.4a10.68,10.68,0,0,0-1.63,4.35.06.06,0,0,0,0,0c-.31.74-5.21,12.6-6.3,14.88s-4.61,5.29-7.83,5.29a28.89,28.89,0,0,1-23.69-10.41h0c-.14-.15-.26-.3-.39-.45s0-.56,0-.85a36.53,36.53,0,0,0-.91-11.21c-2.8-11.1-1.88-25.12-1.25-29.9s4.1-10.71,6.3-12.35,5.55-.44,6.87.3a2.88,2.88,0,0,0,2.64,0c-.38.84,5,7.31,18,7a1.74,1.74,0,0,1,1.19.86l0,0,.12.37s8.84,2,13.91,12.83c4,8.47,6.55,14,7.51,16Z"/><path class="cls-96" d="M630.75,299.2c-.08.42-.88.76-1.46.94h0l-.6.16a4.6,4.6,0,0,0-.59.29h0a0,0,0,0,0,0,0l-.06-.14c0-.08-.1-.19-.16-.33s-.11-.22-.17-.36v0c-1-2-3.56-7.53-7.51-16-5.07-10.87-13.91-12.83-13.91-12.83a1.19,1.19,0,0,0,.6-.55,18.1,18.1,0,0,1,13.93,9.33s1.16,2.16,2.68,5.05c1.2,2.28,2.63,5,3.91,7.48A66,66,0,0,1,630.75,299.2Z"/><path class="cls-97" d="M612.23,336.35a16.37,16.37,0,0,1-4.06.72c-8.34.28-4.35.93-7.44,1.46s-10.35-1-10.35-1l-.46-.24-12.72-7.05L572,327.41l-.84-.47s.21-.61.51-1.7c0-.14.08-.3.13-.46l.35-1.43a49.31,49.31,0,0,0,1-6.74c.13.15.25.3.39.45h0a30.3,30.3,0,0,0,7.6,6.48,29.68,29.68,0,0,0,16.09,3.93,7.59,7.59,0,0,0,3.88-1.24l.05,0a10.54,10.54,0,0,0,3.9-4c.59-1.24,2.32-5.34,3.82-8.92,1.25-3,2.33-5.62,2.48-6a32.17,32.17,0,0,0-.18,7.36c.11,1.55.25,2.84.27,3.6a30.93,30.93,0,0,1-1.78,8.34,8.49,8.49,0,0,0-1,3.36,3,3,0,0,0,0,.31,5.43,5.43,0,0,0,1,1.75c.53.74,1.18,1.57,1.7,2.3C612.11,335.32,612.59,336.15,612.23,336.35Z"/><path class="cls-98" d="M572.17,323.35l-.35,1.43a9.56,9.56,0,0,0-2.17.71,1.7,1.7,0,0,0-.46.33l-.44-.24-1.42-.8S570.83,322.88,572.17,323.35Z"/><path class="cls-99" d="M571.18,326.94l.64-2.16a6.85,6.85,0,0,0-2.63,1.05Z"/><path class="cls-100" d="M625.2,334.41l-4.29,2.46-1.1.63-11.93,6.83,0,0a12.29,12.29,0,0,1-7.1-5.83c3.09-.53-.9-1.18,7.44-1.46a16.37,16.37,0,0,0,4.06-.72c.36-.2-.12-1-.83-2,0,0,2.44.28,6,.34h1.11A66.15,66.15,0,0,0,625.2,334.41Z"/><path class="cls-100" d="M648.81,330.78c-2.19,1.54-9.32,6.06-11.53,7.46h0l-1.31.68a67.26,67.26,0,0,1-11.9,4.94l11.9-7.31s1.51-.8,0-2.68l-.07,0a1.17,1.17,0,0,0-.68-.75c-.16-.08-.61-.24-1.14-.42a51.76,51.76,0,0,1,5.19-1.38C645.54,330.05,648.81,330.78,648.81,330.78Z"/><path class="cls-101" d="M646.32,351a4.15,4.15,0,0,0-2.78-.92,4.27,4.27,0,0,0-2.77-.13,3.3,3.3,0,0,0-.51-2.13C643.15,346.3,645,347.68,646.32,351Z"/><path class="cls-98" d="M667.12,394l-1.83.45a51.14,51.14,0,0,1-6.32,1.29l-.86-2.43c-2.38-6.8-9-26.07-9.88-33.45q-.16-1.31-.36-2.52v-.05a5.8,5.8,0,0,0-.49-5,4.54,4.54,0,0,0-1.06-1.33c-1.29-3.29-3.17-4.67-6.06-3.18a5.31,5.31,0,0,0-.38-.58l-17.81,5.26,1.66-6.87s.35-1.24,0-1.53l.32-.2a67.26,67.26,0,0,0,11.9-4.94l1.31-.68h0c2.21-1.4,9.34-5.92,11.53-7.46,0,0,6.51,1.87,7.25,10S655.73,353.88,667.12,394Z"/><path class="cls-98" d="M616.23,348.23l-.84,4.24A3.6,3.6,0,0,1,612.6,350,14.91,14.91,0,0,0,616.23,348.23Z"/><path class="cls-102" d="M615.39,352.47l-.42,2.09L602,358.38c-2.18-6.21-4.49-12.87-4.49-12.87a10.9,10.9,0,0,0-2.6-4l-.1-.09h0s-.14-1.66-4.47-3.87c0,0,7.25,1.5,10.35,1a12.29,12.29,0,0,0,7.1,5.83,2.22,2.22,0,0,0-1.12,2,1.88,1.88,0,0,0,0,.33,2.25,2.25,0,0,0,.26.63s.49,2.93,3.23,3a6.87,6.87,0,0,0,2.35-.37A3.6,3.6,0,0,0,615.39,352.47Z"/><path class="cls-103" d="M642.85,370.88c0,.45-.71.89-1.75,1.32-2.05.83-5.45,1.59-7.82,2.27-3.59,1-4.34-6.66-4.34-6.66,3.75-2.53,8.34-5.63,10.09-6.86C639,363.86,642.9,369.55,642.85,370.88Z"/><path class="cls-100" d="M641.09,373.36a1.12,1.12,0,0,1-.29.52c-.55.53-7,2.08-7,2.08l-.53-1.49.08,0c2.06-.59,4.87-1.24,6.9-1.94.3-.1.58-.2.84-.31A2.74,2.74,0,0,1,641.09,373.36Z"/><path class="cls-104" d="M652.06,388.49s-16.52.21-16.76-.41a8.45,8.45,0,0,1-.37-1.49h16.58A9.82,9.82,0,0,0,652.06,388.49Z"/><path class="cls-105" d="M651.51,386.59H634.93c-3.95-4.3-1.12-10.63-1.12-10.63s6.44-1.55,7-2.08a1.12,1.12,0,0,0,.29-.52l.07.1c2.58,3.71,8.43,5.55,8.43,5.55a16.56,16.56,0,0,1,1.47,5.54A9,9,0,0,0,651.51,386.59Z"/><path class="cls-101" d="M659,395.76a12.56,12.56,0,0,1-3.56.31c-2.25-.19-2-1.47-2-1.47a25.13,25.13,0,0,0-1.33-6.11,9.82,9.82,0,0,1-.55-1.9,9,9,0,0,1-.45-2,16.56,16.56,0,0,0-1.47-5.54c-3.93-7.24-6.38-18-6.48-18.4a3.54,3.54,0,0,0,2.21-.16,6.49,6.49,0,0,0,2.53-3.09h0q.2,1.22.36,2.52c.91,7.38,7.5,26.65,9.88,33.45Z"/><path class="cls-100" d="M666.18,396.79a10.73,10.73,0,0,1-11,.68l.24-1.37v0a11.72,11.72,0,0,0,3.12-.23l.44-.08a18.29,18.29,0,0,0,2.86-.49c1.16-.25,2.44-.55,3.46-.8A5.76,5.76,0,0,1,666.18,396.79Z"/><path class="cls-105" d="M683.66,407.86s0-.61-1.67-.41a16.45,16.45,0,0,0-3.3.83c-5,1.67-7.12,1-7.12,1-3.53-2.69-7.72-1.85-11.67-.24-3.79,1.55-5.38.13-5.5,0v0c-2.57-4.55.78-11.58.78-11.58a10.73,10.73,0,0,0,11-.68c4.66,3.78,11.14,4.66,14.79,5.4S683.66,407.86,683.66,407.86Z"/><path class="cls-104" d="M683.66,407.86s0,2.17-.78,1.91-3.59.39-3.59.39a19.15,19.15,0,0,1-7.3,1,2.53,2.53,0,0,1-1.37-.51c-1.06-.79-3.94-2.26-9.1-.25-6.4,2.5-7.08-1-7.12-1.3.12.11,1.71,1.53,5.5,0,4-1.61,8.14-2.45,11.67.24,0,0,2.16.66,7.12-1a16.45,16.45,0,0,1,3.3-.83C683.66,407.25,683.66,407.86,683.66,407.86Z"/><path class="cls-98" d="M631.54,331.89a2.41,2.41,0,0,0-2.08.08l-4.26,2.44a66.15,66.15,0,0,1-6.69.27c0-.28.37-5.84-.51-6.54s-7.64,3.8-8.3,3.89a5.43,5.43,0,0,1-1-1.75,3,3,0,0,1,0-.31,8.49,8.49,0,0,1,1-3.36,30.93,30.93,0,0,0,1.78-8.34c0-.76-.16-2-.27-3.6l12.69-3.06a57.46,57.46,0,0,0,6.43,5.56l-.13.22Z"/><path class="cls-91" d="M678.13,283.07c-4.31,0-6.18,1.79-6.18,2.4s-1,3-4.54,5a10.82,10.82,0,0,0-4.34,5.35,18.14,18.14,0,0,1-2.19,3.79c-4.15,5.6-15.27,20-20.71,21.23-2.83.65-6.5-1.23-9.81-3.64a57.46,57.46,0,0,1-6.43-5.56c-1.31-1.29-2.11-2.19-2.11-2.19l-.16-.24c1.21-2.64,3.5-7,6.43-8.58,4.21,6.69,9.2,8,9.28,8a1.94,1.94,0,0,0,.73.36,1.48,1.48,0,0,0,1.51-.64c19.86-15.55,22.08-21.24,22.08-21.24a11.13,11.13,0,0,1,4-6.55,7.8,7.8,0,0,1,5.08-1.84c1.11,0,2.39,0,3.43,0,2.38.06,1.81,2,1.81,2,2.1-.11,1.59,1.08,1.59,1.08C679.12,282.14,678.13,283.07,678.13,283.07Z"/><path class="cls-91" d="M666,277.76a18.15,18.15,0,0,1-4.34,2.89c-.92.35-8,3.62-2.71,6,0,0,1.6,1.16.44,1.64-.93.4-5.53-.61-7.25-1a6.72,6.72,0,0,1-1.28-.45,21.78,21.78,0,0,1-4.4-2.46s-.7-.5-1.77.29c-1.71,1.25-15.15,7.36-17.29,7.58-1.28-2.47-2.71-5.2-3.91-7.48,0,0,18.74-2.88,23.84-5s6.92-4.45,15.86-4.5c0,0,1.52-.1,1,.76,0,0,1.8-.16.85,1C665,277,667,276.74,666,277.76Z"/><path class="cls-106" d="M637.37,308.62h0c-.08-.06-5.07-1.34-9.28-8h0a4.6,4.6,0,0,1,.59-.29l.6-.16C629.84,301.42,635.2,307.11,637.37,308.62Z"/></g><path class="cls-107" d="M748.21,204.53v10.75a3.15,3.15,0,0,1-1.49,2.71,3,3,0,0,1-.59.3,3.13,3.13,0,0,1-2.75-.23l-17.82-10.31a10,10,0,0,1-5-8.67v-9.89a2.72,2.72,0,0,1,1.23-2.3,3,3,0,0,1,.75-.35h0a2.72,2.72,0,0,1,2.25.3l20.8,13A5.55,5.55,0,0,1,748.21,204.53Z"/><path class="cls-108" d="M753,202.88v9.65a3.57,3.57,0,0,1-1.91,3.17L746.72,218a3.15,3.15,0,0,0,1.49-2.71V204.53a5.55,5.55,0,0,0-2.6-4.7l-20.8-13a2.72,2.72,0,0,0-2.25-.3h0a3,3,0,0,0-.75.35l4.64-1.89a4.55,4.55,0,0,1,3.38.11l19.44,11.49A7.17,7.17,0,0,1,753,202.88Z"/><path class="cls-109" d="M731.79,200.34s2.39,1.26,2.36,1.16,0-2.1,0-2.1l1.33.67v2.2l2.06,1.29v1.61l-2.12-1.2,0,2.6-1.54-.74,0-2.66L731.81,202Z"/><path class="cls-109" d="M738.35,204s2.4,1.26,2.36,1.16,0-2.1,0-2.1l1.33.67V206l2.06,1.3v1.6l-2.13-1.2,0,2.6-1.53-.74,0-2.66-2.07-1.16Z"/><path class="cls-109" d="M729.66,197.67a4.59,4.59,0,0,0-.58-3c-.94-1.44-3-1.77-4,0-.53,1-.79,7.5,1.69,9.85a1.84,1.84,0,0,0,1.58.41,2.48,2.48,0,0,0,1.57-2.73l-1.22,0c.26,1.27-1.6,3.15-2.59-2.26a9.32,9.32,0,0,1,0-4.35s.4-1.72,1.78-.56a2.88,2.88,0,0,1,.61,2.52Z"/><path class="cls-110" d="M684.28,169.85V180.6a3.15,3.15,0,0,1-1.49,2.71,3,3,0,0,1-.59.3,3.13,3.13,0,0,1-2.75-.23l-17.82-10.31a10,10,0,0,1-5-8.67v-9.09a4.93,4.93,0,0,1,.58-2.38,1.87,1.87,0,0,1,.65-.72,3.47,3.47,0,0,1,.75-.35h0a2.72,2.72,0,0,1,2.25.3l20.8,13A5.55,5.55,0,0,1,684.28,169.85Z"/><path class="cls-111" d="M689,168.19v9.66a3.59,3.59,0,0,1-1.91,3.17l-4.34,2.29a3.15,3.15,0,0,0,1.49-2.71V169.85a5.55,5.55,0,0,0-2.6-4.7l-20.8-13a2.72,2.72,0,0,0-2.25-.3h0a3,3,0,0,0-.75.35l4.63-1.9a4.6,4.6,0,0,1,3.38.11l19.45,11.49A7.17,7.17,0,0,1,689,168.19Z"/><path class="cls-112" d="M661.7,159.05v9.33l1.51.59v-3.12s3.36,2.65,3.65-1.24C667.16,160.49,664.92,159.05,661.7,159.05Zm4,5c-.31,2.31-2.58.5-2.58.5v-3.42A2.52,2.52,0,0,1,665.69,164Z"/><path class="cls-112" d="M674.8,167.32v9l1.51.93v-3.12s3.36,2.65,3.65-1.24C680.26,168.76,678.27,167.9,674.8,167.32Zm4,5c-.31,2.31-2.58.5-2.58.5v-3.42A2.52,2.52,0,0,1,678.79,172.28Z"/><polygon class="cls-112" points="667.98 162.73 667.98 172.09 669.71 172.88 669.71 168.9 671.76 170.07 671.76 173.68 673.45 174.56 673.45 165.45 671.87 164.62 671.82 168.23 669.68 166.94 669.71 163.6 667.98 162.73"/><path class="cls-113" d="M642.19,199.05V209.8a3.15,3.15,0,0,1-1.49,2.71,3,3,0,0,1-.59.3,3.13,3.13,0,0,1-2.75-.23l-17.82-10.31a10,10,0,0,1-5-8.67v-9.89a2.72,2.72,0,0,1,1.23-2.3,3,3,0,0,1,.75-.35h0a2.72,2.72,0,0,1,2.25.3l20.8,13A5.55,5.55,0,0,1,642.19,199.05Z"/><path class="cls-114" d="M647,197.39V207a3.6,3.6,0,0,1-1.91,3.18l-4.34,2.29a3.15,3.15,0,0,0,1.49-2.71V199.05a5.55,5.55,0,0,0-2.6-4.7l-20.8-13a2.72,2.72,0,0,0-2.25-.3h0a3,3,0,0,0-.75.35l4.64-1.9a4.55,4.55,0,0,1,3.38.11l19.45,11.49A7.18,7.18,0,0,1,647,197.39Z"/><path class="cls-115" d="M622.76,188.72V195a2.11,2.11,0,0,1-2.26,2.1,2.62,2.62,0,0,1-2.75-2.25,15.21,15.21,0,0,1,0-2.41l1.52,0v1.86s-.5,1.32.59,1.2a1.52,1.52,0,0,0,1.49-1.28c0-.37-.11-6.09-.11-6.09h1.52Z"/><path class="cls-115" d="M623.42,192.33v1.33s2.45-.62,2.37,1.75c0,0-2.79-2-2.82,1.35s3.59,3.59,4.09,3.56v-6.08S627.09,191.77,623.42,192.33Zm1.6,6a.88.88,0,0,1,0-1.75.88.88,0,0,1,0,1.75Z"/><path class="cls-115" d="M633.09,197.68V199s2.45-.62,2.37,1.75c0,0-2.79-2-2.82,1.35s3.59,3.59,4.09,3.56v-6.08S636.76,197.12,633.09,197.68Zm1.6,6a.88.88,0,0,1,0-1.75.88.88,0,0,1,0,1.75Z"/><polygon class="cls-115" points="627.78 194.64 629.35 202.98 632.64 197.06 631.36 196.29 630.01 198.29 629.4 194.93 627.78 194.64"/><path class="cls-116" d="M778.59,271.69v10.75a3.15,3.15,0,0,1-1.49,2.71,3,3,0,0,1-.59.3,3.13,3.13,0,0,1-2.75-.23l-17.82-10.31a10,10,0,0,1-5-8.67v-9.89a2.72,2.72,0,0,1,1.23-2.3,3,3,0,0,1,.75-.35h0a2.72,2.72,0,0,1,2.25.3L776,267A5.55,5.55,0,0,1,778.59,271.69Z"/><path class="cls-117" d="M783.35,270v9.65a3.57,3.57,0,0,1-1.91,3.17l-4.34,2.29a3.15,3.15,0,0,0,1.49-2.71V271.69A5.55,5.55,0,0,0,776,267l-20.8-13a2.72,2.72,0,0,0-2.25-.3h0a3,3,0,0,0-.75.35l4.64-1.89a4.5,4.5,0,0,1,3.38.11l19.44,11.48A7.19,7.19,0,0,1,783.35,270Z"/><path class="cls-118" d="M760.71,265.14c0,.14,1.45,0,1.45,0s.64-3.27-2.44-4.12c-2.87-.79-2.82,1.59-2.73,2.24.1.86.87,2,3,4.32,0,0,1.57,1.67.39,2.38s-1.74-1.45-1.91-1.92H757s.51,3.5,3.21,3.5c1.94,0,3.31-2.49.39-5.36,0,0-3-2.43-2.08-3.54C759.23,261.78,760.94,262.87,760.71,265.14Z"/><path class="cls-118" d="M766.12,264.32c-2.38-.47-3.28.23-3.27,1l.08,6.8a2.78,2.78,0,0,0,1.77,2.63c2,.7,3,.29,3.51-.21a1.78,1.78,0,0,0,.51-1.3V268.1S768.49,264.79,766.12,264.32Zm1.24,8.06a.88.88,0,0,1-.4.74,1.43,1.43,0,0,1-1.46.08,2.16,2.16,0,0,1-1.36-2l0-3.92c0-.43.44-1.37,1.81-1.11s1.46,2.78,1.46,2.78Z"/><polygon class="cls-118" points="769.49 268.04 769.64 277.42 774.15 279.7 774.15 277.81 771.09 276.33 771.02 268.5 769.49 268.04"/><path class="cls-119" d="M723.66,144.24l-.29,17.08,0,2.17a2.21,2.21,0,0,1,0,.37,1.94,1.94,0,0,1-2.82,1.31l-15.73-8.44a7.21,7.21,0,0,1-3.81-6.49l.18-10.49.12-7.22v-.69a1.92,1.92,0,0,1,1.13-1.73l.43-.15h0a1.89,1.89,0,0,1,1.32.21l1.17.67,2.25,1.27,13.56,7.69.22.13.21.15a4.45,4.45,0,0,1,.48.38l.15.14c.11.11.22.23.32.35l0,.06a.21.21,0,0,1,0,.06s0,0,0,0a5.77,5.77,0,0,1,.37.54,6.27,6.27,0,0,1,.29.58s0,.07,0,.11a2,2,0,0,1,.08.22,4,4,0,0,1,.18.68,5.35,5.35,0,0,1,.08.7C723.66,144,723.66,144.13,723.66,144.24Z"/><path class="cls-120" d="M727.7,143.14l-.31,18.58a2.44,2.44,0,0,1-1.11,2.25,8,8,0,0,1-3.59.94,1.32,1.32,0,0,0,.6-1,2.21,2.21,0,0,0,0-.37l0-2.17.29-17.08c0-.11,0-.22,0-.33a4.06,4.06,0,0,0-.08-.7,4,4,0,0,0-.18-.68,1.43,1.43,0,0,0-.08-.22s0-.08,0-.11a4.48,4.48,0,0,0-.29-.58,5.77,5.77,0,0,0-.37-.54l-.06-.07,0-.06c-.1-.12-.21-.24-.32-.35l-.15-.14a3.48,3.48,0,0,0-.48-.38c-.07-.06-.14-.1-.21-.15l-.22-.13-13.56-7.69-2.25-1.27-1.17-.67a1.89,1.89,0,0,0-1.32-.21l2.43-.82.48-.17a4.2,4.2,0,0,1,3.38.31l16.06,9.32A5.16,5.16,0,0,1,727.7,143.14Z"/><ellipse class="cls-121" cx="710.65" cy="153.87" rx="1.42" ry="1.77" transform="translate(9.32 345.79) rotate(-27.52)"/><path class="cls-121" d="M720.64,148.15l-1.46,1.45a11.36,11.36,0,0,0-5.59-6.47c-3.92-2.18-8.23-.31-8.23-.31l-1-1.74s5.55-2.24,10.14.4C719.91,144.57,720.64,148.15,720.64,148.15Z"/><path class="cls-121" d="M715.55,152.9l-1.22,1s-2.11-4.35-6.3-3.59l-.79-1.65a6.19,6.19,0,0,1,5.06.57A8.41,8.41,0,0,1,715.55,152.9Z"/><path class="cls-121" d="M718.07,150.92l-1.24,1a10,10,0,0,0-4.32-4.76,7.71,7.71,0,0,0-5.75-.28l-.8-2a8.71,8.71,0,0,1,7.56.48A9.43,9.43,0,0,1,718.07,150.92Z"/><text class="cls-122"><tspan class="cls-123" x="82.75" y="250.3">I</tspan><tspan class="cls-124" x="101.9" y="250.3"></tspan><tspan x="109.03" y="250.3">m </tspan><tspan class="cls-125" x="155.82" y="250.3">n</tspan><tspan class="cls-126" x="179.11" y="250.3">i</tspan><tspan class="cls-127" x="191.68" y="250.3">t</tspan><tspan x="206" y="250.3">in</tspan></text><text class="cls-122" transform="translate(85.91 199.23)">h<tspan class="cls-128" x="19.15" y="0">e</tspan><tspan x="37.61" y="0">y</tspan></text></g></g></svg>