<svg xmlns="http://www.w3.org/2000/svg" xmlns:xlink="http://www.w3.org/1999/xlink" viewBox="0 0 929.73 523.77"><defs><style>.cls-1{fill:url(#linear-gradient);}.cls-2{fill:url(#linear-gradient-2);}.cls-3,.cls-4,.cls-6,.cls-9{fill:none;}.cls-18,.cls-19,.cls-21,.cls-22,.cls-24,.cls-25,.cls-26,.cls-27,.cls-28,.cls-29,.cls-3,.cls-30,.cls-31,.cls-32,.cls-33,.cls-34,.cls-35,.cls-36,.cls-37,.cls-38,.cls-39,.cls-4,.cls-40,.cls-41,.cls-42,.cls-43,.cls-44,.cls-45,.cls-46,.cls-47,.cls-48,.cls-49,.cls-50,.cls-52,.cls-53,.cls-54,.cls-55,.cls-56,.cls-57,.cls-58,.cls-59,.cls-6,.cls-60,.cls-61,.cls-62,.cls-63,.cls-64,.cls-65,.cls-67,.cls-68,.cls-69,.cls-70,.cls-71,.cls-72,.cls-73,.cls-74,.cls-75,.cls-76,.cls-77,.cls-78,.cls-79,.cls-80,.cls-82,.cls-9{stroke-miterlimit:10;}.cls-3{stroke:url(#linear-gradient-3);}.cls-4{stroke:url(#linear-gradient-4);}.cls-5{fill:url(#linear-gradient-5);}.cls-6{stroke:url(#linear-gradient-6);}.cls-7{fill:url(#linear-gradient-7);}.cls-8{fill:url(#linear-gradient-8);}.cls-9{stroke:#4f70b6;}.cls-10{fill:url(#linear-gradient-9);}.cls-11{fill:url(#linear-gradient-10);}.cls-12{fill:url(#linear-gradient-11);}.cls-13{fill:#aebce0;}.cls-14{fill:url(#linear-gradient-12);}.cls-15{fill:#3e68b1;}.cls-16{fill:#222457;}.cls-17{fill:#273c8c;}.cls-18,.cls-81{fill:#272d67;}.cls-18{stroke:#644497;}.cls-19{fill:#25255b;stroke:#3374a9;}.cls-20{fill:#1e1e4e;}.cls-21{fill:#070808;}.cls-21,.cls-22,.cls-24,.cls-25,.cls-26,.cls-27,.cls-28,.cls-29,.cls-30,.cls-31,.cls-32,.cls-33,.cls-34,.cls-35,.cls-36,.cls-37,.cls-38,.cls-39,.cls-40,.cls-41,.cls-42,.cls-43,.cls-44,.cls-45,.cls-46,.cls-47,.cls-48,.cls-49,.cls-50,.cls-52,.cls-53,.cls-54,.cls-55,.cls-56,.cls-57,.cls-58,.cls-59,.cls-60,.cls-61,.cls-62,.cls-63,.cls-64,.cls-65,.cls-67,.cls-68,.cls-69,.cls-70,.cls-71,.cls-72,.cls-73,.cls-74,.cls-75,.cls-76,.cls-77,.cls-78,.cls-79,.cls-80{stroke:#000;stroke-width:0.1px;}.cls-22{fill:#d1d0e9;}.cls-23{fill:#52499e;}.cls-24{fill:#6163ac;}.cls-25{fill:#bc90b1;}.cls-26{fill:#584b9f;}.cls-27{fill:#6a6ab1;}.cls-28{fill:#be8caf;}.cls-29{fill:#456db2;}.cls-30{fill:#dcdcdb;}.cls-31{fill:#493c95;}.cls-32{fill:#4e72b8;}.cls-33{fill:#4070b3;}.cls-34{fill:#a37691;}.cls-35{fill:#3e70b7;}.cls-36{fill:#a8789d;}.cls-37{fill:#cec9c8;}.cls-38{fill:#a17595;}.cls-39{fill:#4e86c6;}.cls-40{fill:#d0d0cf;}.cls-41{fill:#d5d5d5;}.cls-42{fill:#e6e7e7;}.cls-43{fill:#cbcbca;}.cls-44{fill:#b3b4b4;}.cls-45{fill:#dbd6d8;}.cls-46{fill:#b48bad;}.cls-47{fill:#dbddde;}.cls-48{fill:#dad9dc;}.cls-49{fill:#c7c8ca;}.cls-50{fill:#b284b1;}.cls-51{fill:#6066af;}.cls-52{fill:#446fb6;}.cls-53{fill:#b7b6db;}.cls-54{fill:#c8e0f4;}.cls-55{fill:#9b77b5;}.cls-56{fill:#768bc5;}.cls-57{fill:#d4d5eb;}.cls-58{fill:#5d72b6;}.cls-59{fill:#9a94ad;}.cls-60{fill:#a5a9c3;}.cls-61{fill:#d9d5ea;}.cls-62{fill:#937fbb;}.cls-63{fill:#7298cf;}.cls-64{fill:#4c87c6;}.cls-65{fill:#6b9dd3;}.cls-66{fill:#27397e;}.cls-67{fill:#2770b3;}.cls-68{fill:#282f6b;}.cls-69{fill:#3e65ae;}.cls-70{fill:#2167a5;}.cls-71{fill:#acbdde;}.cls-72{fill:#3762ae;}.cls-73{fill:#1b4a99;}.cls-74{fill:#182c55;}.cls-75{fill:#28377b;}.cls-76{fill:#194896;}.cls-77{fill:#3660ad;}.cls-78{fill:#213b73;}.cls-79{fill:#1a2a55;}.cls-80{fill:#1e2957;}.cls-82{fill:#d8d4ea;stroke:#262d67;stroke-width:0.4px;}.cls-83{fill:url(#linear-gradient-13);}.cls-84{fill:#d0a0c9;}.cls-85{fill:#6d5424;}.cls-86{fill:#4a3a1e;}.cls-87{fill:#efb384;}.cls-88{fill:#4b77bb;}.cls-89{fill:#cda077;}.cls-90{fill:#f2d7e0;}.cls-91{fill:url(#linear-gradient-14);}.cls-92{fill:#db8bb0;}.cls-93{fill:#a43360;}.cls-94{fill:#3b65af;}.cls-95{fill:#2b337a;}.cls-96{fill:#5079bc;}.cls-97{fill:#194b99;}.cls-98{fill:#355caa;}.cls-99{fill:#3259a6;}.cls-100{fill:#9e9ac2;}.cls-101{fill:#f6cf60;}.cls-102{fill:#f3cbb0;}.cls-103{fill:url(#linear-gradient-15);}.cls-104{fill:url(#linear-gradient-16);}.cls-105{fill:#fff2cb;}.cls-106{fill:url(#linear-gradient-17);}.cls-107{fill:url(#linear-gradient-18);}.cls-108{fill:#d2eefc;}.cls-109{fill:url(#linear-gradient-19);}.cls-110{fill:url(#linear-gradient-20);}.cls-111{fill:#d6dff2;}.cls-112{fill:url(#linear-gradient-21);}.cls-113{fill:url(#linear-gradient-22);}.cls-114{fill:#e6beda;}.cls-115{fill:url(#linear-gradient-23);}.cls-116{fill:url(#linear-gradient-24);}.cls-117{fill:#d0edfc;}.cls-118{fill:#e472a8;}.cls-119{fill:url(#linear-gradient-25);}.cls-120{fill:#8188c3;}.cls-121{font-size:25px;fill:#cfdff2;font-family:Ayuthaya;}</style><linearGradient id="linear-gradient" y1="261.89" x2="929.03" y2="261.89" gradientUnits="userSpaceOnUse"><stop offset="0" stop-color="#253e8c"/><stop offset="1" stop-color="#232358"/><stop offset="1"/></linearGradient><linearGradient id="linear-gradient-2" x1="730.87" y1="-31.32" x2="742.66" y2="-31.32" gradientTransform="translate(133.44 247.89)" gradientUnits="userSpaceOnUse"><stop offset="0" stop-color="#3862ae"/><stop offset="1" stop-color="#225297"/><stop offset="1" stop-color="#57a2d9"/><stop offset="1"/></linearGradient><linearGradient id="linear-gradient-3" x1="809.43" y1="130.66" x2="809.43" y2="145.78" gradientTransform="translate(61.88 478) rotate(-34.13)" gradientUnits="userSpaceOnUse"><stop offset="0" stop-color="#d970ab"/><stop offset="0.01" stop-color="#d771ac"/><stop offset="0.15" stop-color="#b080b9"/><stop offset="0.31" stop-color="#908cc5"/><stop offset="0.46" stop-color="#7796ce"/><stop offset="0.63" stop-color="#659dd4"/><stop offset="0.8" stop-color="#5aa1d8"/><stop offset="1" stop-color="#57a2d9"/><stop offset="1"/></linearGradient><linearGradient id="linear-gradient-4" x1="837.08" y1="463.12" x2="837.08" y2="478.24" gradientTransform="translate(-119.91 550.78) rotate(-34.13)" gradientUnits="userSpaceOnUse"><stop offset="0" stop-color="#d970ab"/><stop offset="0.14" stop-color="#d273ae"/><stop offset="0.34" stop-color="#be7ab5"/><stop offset="0.59" stop-color="#9d87c0"/><stop offset="0.86" stop-color="#7098d0"/><stop offset="1" stop-color="#57a2d9"/><stop offset="1"/></linearGradient><linearGradient id="linear-gradient-5" x1="287.75" y1="432.05" x2="287.75" y2="457.17" gradientTransform="translate(-199.91 238.05) rotate(-34.13)" gradientUnits="userSpaceOnUse"><stop offset="0" stop-color="#d970ab"/><stop offset="0.01" stop-color="#d771ac"/><stop offset="0.35" stop-color="#a086bf"/><stop offset="0.63" stop-color="#7895cd"/><stop offset="0.86" stop-color="#609fd6"/><stop offset="1" stop-color="#57a2d9"/><stop offset="1"/></linearGradient><linearGradient id="linear-gradient-6" x1="121.34" y1="376.21" x2="136.28" y2="376.21" gradientTransform="matrix(1, 0, 0, 1, 0, 0)" xlink:href="#linear-gradient-3"/><linearGradient id="linear-gradient-7" x1="342.11" y1="288.64" x2="352.92" y2="288.64" gradientTransform="matrix(1, 0, 0, 1, 0, 0)" xlink:href="#linear-gradient-3"/><linearGradient id="linear-gradient-8" x1="458" y1="334.21" x2="782.41" y2="334.21" gradientUnits="userSpaceOnUse"><stop offset="0" stop-color="#273685"/><stop offset="0" stop-color="#383d8a"/><stop offset="0" stop-color="#634e96"/><stop offset="0.01" stop-color="#875c9f"/><stop offset="0.01" stop-color="#a368a7"/><stop offset="0.01" stop-color="#b770ad"/><stop offset="0.01" stop-color="#c374b0"/><stop offset="0.02" stop-color="#c776b1"/><stop offset="1" stop-color="#5aa8dd"/></linearGradient><linearGradient id="linear-gradient-9" x1="457.52" y1="327.37" x2="780.42" y2="327.37" gradientUnits="userSpaceOnUse"><stop offset="0" stop-color="#253e8a"/><stop offset="0.43" stop-color="#28377c"/><stop offset="1" stop-color="#2c2a63"/><stop offset="1" stop-color="#24275d"/></linearGradient><linearGradient id="linear-gradient-10" x1="489.66" y1="319.45" x2="751.83" y2="319.45" gradientUnits="userSpaceOnUse"><stop offset="0" stop-color="#273685"/><stop offset="0.05" stop-color="#273481"/><stop offset="0.37" stop-color="#252d6d"/><stop offset="0.68" stop-color="#242861"/><stop offset="1" stop-color="#24275d"/><stop offset="1" stop-color="#11083b"/></linearGradient><linearGradient id="linear-gradient-11" x1="487.11" y1="398.5" x2="566" y2="398.5" gradientTransform="translate(-197.22 -105.81) scale(1.42 1.17)" gradientUnits="userSpaceOnUse"><stop offset="0" stop-color="#293476"/><stop offset="0.78" stop-color="#2b2d68"/><stop offset="1" stop-color="#2c2a63"/><stop offset="1" stop-color="#25285f"/></linearGradient><linearGradient id="linear-gradient-12" x1="412.77" y1="394.69" x2="837.37" y2="394.69" xlink:href="#linear-gradient-8"/><linearGradient id="linear-gradient-13" x1="580.05" y1="232.04" x2="651.17" y2="273.1" gradientUnits="userSpaceOnUse"><stop offset="0" stop-color="#d478b1"/><stop offset="1" stop-color="#d9d5ea"/></linearGradient><linearGradient id="linear-gradient-14" x1="553.24" y1="234.14" x2="523.91" y2="284.94" gradientUnits="userSpaceOnUse"><stop offset="0" stop-color="#cf6e97"/><stop offset="1" stop-color="#a53461"/></linearGradient><linearGradient id="linear-gradient-15" x1="665.24" y1="151.25" x2="693.35" y2="179.36" gradientUnits="userSpaceOnUse"><stop offset="0" stop-color="#a05a32"/><stop offset="0.17" stop-color="#b9783c"/><stop offset="0.36" stop-color="#d09445"/><stop offset="0.55" stop-color="#e1a84b"/><stop offset="0.75" stop-color="#ebb44f"/><stop offset="0.94" stop-color="#eeb850"/></linearGradient><linearGradient id="linear-gradient-16" x1="675.55" y1="144.67" x2="695.34" y2="178.95" gradientUnits="userSpaceOnUse"><stop offset="0" stop-color="#93542c"/><stop offset="0.62" stop-color="#eeb850"/><stop offset="0.72" stop-color="#e1a443"/><stop offset="0.9" stop-color="#ce852f"/><stop offset="1" stop-color="#c77a27"/></linearGradient><linearGradient id="linear-gradient-17" x1="601.31" y1="116.57" x2="629.41" y2="144.68" gradientUnits="userSpaceOnUse"><stop offset="0" stop-color="#006587"/><stop offset="0.01" stop-color="#04688b"/><stop offset="0.14" stop-color="#2685a9"/><stop offset="0.27" stop-color="#439dc3"/><stop offset="0.41" stop-color="#59afd6"/><stop offset="0.56" stop-color="#68bce4"/><stop offset="0.74" stop-color="#71c4ec"/><stop offset="1" stop-color="#74c6ef"/></linearGradient><linearGradient id="linear-gradient-18" x1="611.61" y1="109.99" x2="631.41" y2="144.27" gradientUnits="userSpaceOnUse"><stop offset="0" stop-color="#006587"/><stop offset="0.15" stop-color="#04688a"/><stop offset="0.28" stop-color="#0f7295"/><stop offset="0.41" stop-color="#2281a6"/><stop offset="0.54" stop-color="#3c97bd"/><stop offset="0.66" stop-color="#5bb2da"/><stop offset="0.7" stop-color="#48a2c9"/><stop offset="0.78" stop-color="#2988ad"/><stop offset="0.86" stop-color="#127598"/><stop offset="0.93" stop-color="#056a8c"/><stop offset="1" stop-color="#068"/></linearGradient><linearGradient id="linear-gradient-19" x1="559.22" y1="145.77" x2="587.33" y2="173.87" gradientUnits="userSpaceOnUse"><stop offset="0" stop-color="#293476"/><stop offset="0.05" stop-color="#353f80"/><stop offset="0.2" stop-color="#515a99"/><stop offset="0.36" stop-color="#6770ac"/><stop offset="0.53" stop-color="#777eba"/><stop offset="0.72" stop-color="#8087c2"/><stop offset="1" stop-color="#838ac4"/></linearGradient><linearGradient id="linear-gradient-20" x1="569.53" y1="139.19" x2="589.32" y2="173.47" gradientUnits="userSpaceOnUse"><stop offset="0" stop-color="#293476"/><stop offset="0.14" stop-color="#2d3879"/><stop offset="0.29" stop-color="#394384"/><stop offset="0.43" stop-color="#4d5695"/><stop offset="0.57" stop-color="#6870ad"/><stop offset="0.68" stop-color="#838ac4"/><stop offset="0.75" stop-color="#666eab"/><stop offset="0.86" stop-color="#454f8e"/><stop offset="0.94" stop-color="#303b7c"/><stop offset="1" stop-color="#293476"/></linearGradient><linearGradient id="linear-gradient-21" x1="695.62" y1="218.41" x2="723.73" y2="246.52" gradientUnits="userSpaceOnUse"><stop offset="0" stop-color="#a5147c"/><stop offset="0.13" stop-color="#ae2987"/><stop offset="0.35" stop-color="#bb4596"/><stop offset="0.57" stop-color="#c55aa1"/><stop offset="0.79" stop-color="#ca66a8"/><stop offset="1" stop-color="#cc6aaa"/><stop offset="1" stop-color="#232358"/></linearGradient><linearGradient id="linear-gradient-22" x1="705.93" y1="211.83" x2="725.72" y2="246.11" gradientUnits="userSpaceOnUse"><stop offset="0" stop-color="#a5147c"/><stop offset="0.19" stop-color="#ae2987"/><stop offset="0.57" stop-color="#c75ea4"/><stop offset="0.65" stop-color="#cc6aaa"/><stop offset="0.74" stop-color="#c0509c"/><stop offset="0.91" stop-color="#ad2585"/><stop offset="1" stop-color="#a5147c"/></linearGradient><linearGradient id="linear-gradient-23" x1="643.55" y1="96.64" x2="671.19" y2="124.29" gradientUnits="userSpaceOnUse"><stop offset="0" stop-color="#142360"/><stop offset="0.14" stop-color="#1f3677"/><stop offset="0.32" stop-color="#2a4b90"/><stop offset="0.52" stop-color="#3359a1"/><stop offset="0.72" stop-color="#3762ac"/><stop offset="0.97" stop-color="#3965af"/></linearGradient><linearGradient id="linear-gradient-24" x1="654.61" y1="88.88" x2="675.2" y2="124.55" gradientUnits="userSpaceOnUse"><stop offset="0" stop-color="#192a6b"/><stop offset="0.11" stop-color="#1d3173"/><stop offset="0.28" stop-color="#264388"/><stop offset="0.49" stop-color="#3760aa"/><stop offset="0.51" stop-color="#3965af"/><stop offset="0.66" stop-color="#2f5198"/><stop offset="0.88" stop-color="#21377a"/><stop offset="1" stop-color="#1c2d6f"/></linearGradient><linearGradient id="linear-gradient-25" x1="0.71" y1="478.93" x2="97.01" y2="478.93" gradientUnits="userSpaceOnUse"><stop offset="0" stop-color="#8d84be"/><stop offset="0.16" stop-color="#7f8cc5"/><stop offset="0.45" stop-color="#6998d0"/><stop offset="0.74" stop-color="#5ba0d7"/><stop offset="1" stop-color="#57a2d9"/><stop offset="1"/></linearGradient></defs><title>Asset 2</title><g id="Layer_2" data-name="Layer 2"><g id="Layer_2-2" data-name="Layer 2"><path class="cls-1" d="M929,0V523.77H0V0Z"/><rect class="cls-2" x="864.31" y="210.67" width="11.79" height="11.79" rx="2.9" transform="translate(271.43 -450.98) rotate(34.13)"/><rect class="cls-3" x="803.54" y="132.32" width="11.79" height="11.79" rx="2.9" transform="translate(217 -430.38) rotate(34.13)"/><rect class="cls-4" x="831.18" y="464.78" width="11.79" height="11.79" rx="2.9" transform="translate(408.31 -388.62) rotate(34.13)"/><rect class="cls-5" x="277.89" y="434.75" width="19.71" height="19.71" rx="2.9" transform="translate(299.05 -84.87) rotate(34.13)"/><circle class="cls-6" cx="128.81" cy="376.21" r="6.97"/><circle class="cls-7" cx="347.51" cy="288.64" r="5.41"/><ellipse class="cls-8" cx="620.2" cy="334.21" rx="162.2" ry="94.05"/><ellipse class="cls-9" cx="618.97" cy="329.75" rx="161.45" ry="94.05"/><ellipse class="cls-10" cx="618.97" cy="327.37" rx="161.45" ry="94.05"/><path class="cls-11" d="M492.29,298.79l156.6,91.78a28.69,28.69,0,0,0,29.14-.06l70.46-41.73a6.81,6.81,0,0,0-.15-11.8L591.53,249.33a38.87,38.87,0,0,0-40.38,1.48l-59.1,38.95A5.32,5.32,0,0,0,492.29,298.79Z"/><ellipse class="cls-12" cx="552.92" cy="359.58" rx="56.19" ry="30.63" transform="translate(-90.41 214.15) rotate(-20.3)"/><path class="cls-13" d="M770.8,252s-116.5-92.12-276-16.13c0,0-107.6,48.64-44.84,129.07,0,0-102.33-74.74,39.66-151C489.66,214,648.3,139,770.8,252Z"/><path class="cls-14" d="M412.77,366.06s94.37,139.76,327.14,62.2c0,0,94-33,89.22-113.29,0,0,47.45,81.88-85.42,136.73S441.35,455.84,412.77,366.06Z"/><g id="table"><path class="cls-15" d="M717.24,286.65c0,1.56,6.28,53.36,6.28,53.36a1.19,1.19,0,0,0,1.29.78c1-.11,1.06-1.23,1.06-1.23l-6.44-54.15Z"/><path class="cls-16" d="M723.43,283.14l4.36,56.14s-.65,1.73-2,.73l-6.33-54.6Z"/><path class="cls-15" d="M652.35,382.27c-.25.42-.34,1.09-1.09.93s-1.18-1.35-1.18-1.35l4.51-74.17,2.57,1.47Z"/><path class="cls-17" d="M661.19,311.44l-6.65,70.33s-.59,1.76-2.19.5l4.81-73.12Z"/><path class="cls-18" d="M732.26,278.13l-58.13,33a13.75,13.75,0,0,1-13.64-.05L550.72,247.91a13.64,13.64,0,0,1-6.86-12.78,13.56,13.56,0,0,0,6.67,9.45l109.76,63.17a13.75,13.75,0,0,0,13.64,0l58.13-33a5.06,5.06,0,0,0,2.42-3.1A5.14,5.14,0,0,1,732.26,278.13Z"/><path class="cls-19" d="M734.48,271.71a5.06,5.06,0,0,1-2.42,3.1l-58.13,33a13.75,13.75,0,0,1-13.64,0L550.53,244.58a13.74,13.74,0,0,1-.06-23.79l44.89-26.11a13.73,13.73,0,0,1,13.8,0L732.1,265.89A5.13,5.13,0,0,1,734.48,271.71Z"/><path class="cls-20" d="M679.55,269.48c0,2.08-3.5,3.78-8.38,3.78s-8.85-1.68-8.85-3.76c0-1.12,1.14-2.12,3-2.8v1a1.79,1.79,0,0,0,.53,1.29,7.2,7.2,0,0,0,4.86,1.66,8.51,8.51,0,0,0,4.9-1.44,1.85,1.85,0,0,0,.71-1.46v-1.34C678.54,267.11,679.55,268.21,679.55,269.48Z"/><path class="cls-20" d="M700.13,266.64a4.39,4.39,0,0,1-5,.83c-.91-.43-24.46-13.92-37.91-21.63a1.63,1.63,0,0,0,.15-.44,2.79,2.79,0,0,0-.16-1.62,3,3,0,0,0-1.64-2.72l-8.15-4.48-.63-.83c-1.4-1.78-3.13-3.78-3.45-4.14L664,243.41l20.17,11.52a3.49,3.49,0,0,0,.39.19l13.93,7.93S701.8,265,700.13,266.64Z"/><path class="cls-20" d="M701.82,249a4.67,4.67,0,0,0-4.93.72c-2.41,2-1.4,4.07-.27,5s18.44,11.44,18.44,11.44,3.34,1.22,5.88-.78.39-5.12-.7-5.75Z"/></g><g id="display"><polygon class="cls-21" points="686.02 253.21 603.27 205.82 603.27 149.48 686.02 196.13 686.02 253.21"/><path class="cls-22" d="M687.05,193.84l-82-46.21a2.88,2.88,0,0,0-4.3,2.51v55.44a2.89,2.89,0,0,0,1.46,2.51l38,21.7,3.07,1.76L664,243.41l20.17,11.52a3.49,3.49,0,0,0,.39.19,2.88,2.88,0,0,0,3.92-2.69V196.36A2.89,2.89,0,0,0,687.05,193.84Zm-1,58.59a.37.37,0,0,1-.19.33.36.36,0,0,1-.38,0l-82-46.84a.4.4,0,0,1-.2-.34V150.14a.37.37,0,0,1,.19-.33.36.36,0,0,1,.2-.06l.15,0,0,0,82,46.22h0a.4.4,0,0,1,.17.33Z"/><path class="cls-23" d="M616.73,166.62,612.49,164a.73.73,0,0,1-.34-.62V162.2s0-.15.15-.12,4.22,2.51,4.22,2.51a.71.71,0,0,1,.36.6s0,1.18,0,1.33S616.73,166.62,616.73,166.62Z"/><path class="cls-24" d="M616.55,171.62,612.3,169a.72.72,0,0,1-.34-.62V167.2s0-.14.15-.12,4.22,2.51,4.22,2.51a.71.71,0,0,1,.36.6s0,1.18,0,1.33S616.55,171.62,616.55,171.62Z"/><path class="cls-25" d="M629.71,175.84l-4.24-2.63a.73.73,0,0,1-.35-.62v-1.16s0-.15.16-.13,4.22,2.51,4.22,2.51a.73.73,0,0,1,.35.61s0,1.17,0,1.33S629.71,175.84,629.71,175.84Z"/><path class="cls-26" d="M629.89,182.72l-4.25-2.63a.73.73,0,0,1-.34-.62v-1.16s0-.15.15-.12,4.22,2.5,4.22,2.5a.74.74,0,0,1,.36.61s0,1.18,0,1.33S629.89,182.72,629.89,182.72Z"/><path class="cls-27" d="M643.06,183.25l-4.24-2.63a.75.75,0,0,1-.34-.62v-1.16s0-.15.15-.13,4.22,2.51,4.22,2.51a.74.74,0,0,1,.36.61s0,1.17,0,1.33S643.06,183.25,643.06,183.25Z"/><path class="cls-28" d="M656.18,196.9l-4.25-2.63a.73.73,0,0,1-.34-.62v-1.16s0-.15.15-.12,4.22,2.5,4.22,2.5a.74.74,0,0,1,.36.61s0,1.18,0,1.33S656.18,196.9,656.18,196.9Z"/><path class="cls-29" d="M668.65,197.58,664.41,195a.73.73,0,0,1-.34-.62v-1.16s0-.15.15-.12,4.22,2.5,4.22,2.5a.76.76,0,0,1,.36.61s0,1.17,0,1.33S668.65,197.58,668.65,197.58Z"/><path class="cls-30" d="M662.76,206.37l-4.24-2.63a.75.75,0,0,1-.34-.62V202s0-.15.15-.13,4.22,2.51,4.22,2.51a.74.74,0,0,1,.36.61s0,1.17,0,1.33S662.76,206.37,662.76,206.37Z"/><path class="cls-31" d="M676.21,204.44,672,201.81a.73.73,0,0,1-.34-.62V200s0-.15.15-.12,4.22,2.5,4.22,2.5a.74.74,0,0,1,.36.61s0,1.18,0,1.33S676.21,204.44,676.21,204.44Z"/><path class="cls-32" d="M669.3,213.21l-4.24-2.63a.72.72,0,0,1-.35-.62V208.8s0-.15.16-.12,4.22,2.5,4.22,2.5a.73.73,0,0,1,.35.61s0,1.18,0,1.33S669.3,213.21,669.3,213.21Z"/><path class="cls-33" d="M610,188.21l-4.24-2.63a.73.73,0,0,1-.34-.62V183.8s0-.15.15-.12,4.22,2.5,4.22,2.5a.74.74,0,0,1,.36.61s0,1.18,0,1.33S610,188.21,610,188.21Z"/><path class="cls-34" d="M612.06,201l-4.24-2.64a.72.72,0,0,1-.34-.61v-1.16s0-.15.15-.13,4.22,2.51,4.22,2.51a.72.72,0,0,1,.36.6s0,1.18,0,1.33S612.06,201,612.06,201Z"/><path class="cls-35" d="M617.56,206.59,613.32,204a.73.73,0,0,1-.35-.62v-1.16s0-.15.15-.12,4.22,2.5,4.22,2.5a.74.74,0,0,1,.36.61s0,1.17,0,1.33S617.56,206.59,617.56,206.59Z"/><path class="cls-36" d="M629.92,208.65,625.68,206a.73.73,0,0,1-.35-.62v-1.16s0-.15.15-.12,4.22,2.5,4.22,2.5a.74.74,0,0,1,.36.61s0,1.17,0,1.33S629.92,208.65,629.92,208.65Z"/><path class="cls-37" d="M629.92,216.2l-4.24-2.63a.72.72,0,0,1-.35-.62v-1.16s0-.15.15-.12,4.22,2.5,4.22,2.5a.74.74,0,0,1,.36.61s0,1.18,0,1.33S629.92,216.2,629.92,216.2Z"/><path class="cls-38" d="M636.54,220.53l-4.24-2.64a.72.72,0,0,1-.34-.62v-1.16s0-.14.15-.12,4.22,2.51,4.22,2.51a.73.73,0,0,1,.36.6s0,1.18,0,1.33S636.54,220.53,636.54,220.53Z"/><path class="cls-39" d="M643.21,227.39,639,224.76a.73.73,0,0,1-.34-.62V223s0-.15.15-.12,4.22,2.5,4.22,2.5a.74.74,0,0,1,.36.61s0,1.17,0,1.33S643.21,227.39,643.21,227.39Z"/><path class="cls-40" d="M656.25,225.37,652,222.74a.73.73,0,0,1-.34-.62V221s0-.15.15-.12,4.22,2.5,4.22,2.5a.74.74,0,0,1,.36.61s0,1.18,0,1.33S656.25,225.37,656.25,225.37Z"/><path class="cls-41" d="M665.38,234.06l-4.24-2.64a.72.72,0,0,1-.34-.61v-1.16s0-.15.15-.13,4.22,2.51,4.22,2.51a.74.74,0,0,1,.36.6s0,1.18,0,1.33S665.38,234.06,665.38,234.06Z"/><path class="cls-42" d="M669.3,228.57l-4.24-2.64a.72.72,0,0,1-.35-.62v-1.16s0-.15.16-.12,4.22,2.5,4.22,2.5a.73.73,0,0,1,.35.61s0,1.18,0,1.33S669.3,228.57,669.3,228.57Z"/><path class="cls-43" d="M671,222.55l-4.25-2.64a.72.72,0,0,1-.34-.62v-1.16s0-.14.15-.12,4.22,2.51,4.22,2.51a.71.71,0,0,1,.36.6s0,1.18,0,1.33S671,222.55,671,222.55Z"/><path class="cls-44" d="M675.8,232.77l-4.24-2.64a.73.73,0,0,1-.34-.62v-1.16s0-.14.15-.12,4.22,2.51,4.22,2.51a.71.71,0,0,1,.36.6s0,1.18,0,1.33S675.8,232.77,675.8,232.77Z"/><path class="cls-45" d="M681.79,241.51l-4.24-2.63a.73.73,0,0,1-.34-.62V237.1s0-.15.15-.12,4.22,2.5,4.22,2.5a.76.76,0,0,1,.36.61s0,1.18,0,1.33S681.79,241.51,681.79,241.51Z"/><path class="cls-46" d="M683.2,248.32,679,245.68a.72.72,0,0,1-.34-.62V243.9s0-.14.15-.12,4.22,2.51,4.22,2.51a.71.71,0,0,1,.36.6s0,1.18,0,1.33S683.2,248.32,683.2,248.32Z"/><path class="cls-47" d="M683.4,238.1l-4.24-2.64a.71.71,0,0,1-.35-.62v-1.16s0-.14.15-.12,4.23,2.51,4.23,2.51a.73.73,0,0,1,.35.6s0,1.18,0,1.33S683.4,238.1,683.4,238.1Z"/><path class="cls-48" d="M649.73,229l-4.24-2.64a.71.71,0,0,1-.35-.61v-1.16s0-.15.16-.13,4.22,2.51,4.22,2.51a.72.72,0,0,1,.35.6s0,1.18,0,1.34S649.73,229,649.73,229Z"/><path class="cls-49" d="M609.68,205.59,605.44,203a.73.73,0,0,1-.35-.62v-1.16s0-.15.16-.12,4.22,2.5,4.22,2.5a.73.73,0,0,1,.35.61s0,1.17,0,1.33S609.68,205.59,609.68,205.59Z"/><path class="cls-50" d="M610.19,172.78,606,170.15a.73.73,0,0,1-.34-.62v-1.16s0-.15.15-.12,4.22,2.5,4.22,2.5a.76.76,0,0,1,.36.61s0,1.18,0,1.33S610.19,172.78,610.19,172.78Z"/><path class="cls-51" d="M609.24,166.62,605,164a.72.72,0,0,1-.35-.62V162.2s0-.15.15-.12,4.22,2.51,4.22,2.51a.71.71,0,0,1,.36.6s0,1.18,0,1.33S609.24,166.62,609.24,166.62Z"/><path class="cls-52" d="M648.76,239.19a1.18,1.18,0,0,1-.26.77,1.12,1.12,0,0,1-.4.32h0l-.2.11a1.24,1.24,0,0,1-1.26,0h0a1.68,1.68,0,0,1-.6-.63l-.75-2.26-.9-2.71-1.05-3.17,0-.07.05.06c.32.36,2,2.36,3.45,4.14l.63.83a11.65,11.65,0,0,1,1.11,1.69,2.46,2.46,0,0,1,.17.44v0a1,1,0,0,1,0,.24A1.64,1.64,0,0,1,648.76,239.19Z"/><path class="cls-53" d="M646.6,240.39l-9.15-5.23s-.62-.27-.56-.74a1.43,1.43,0,0,1,.31-.75l1.64-2.12,1.37-1.76,3.07,1.76,1.07,3.24,1.65,5A1.68,1.68,0,0,0,646.6,240.39Z"/><path class="cls-54" d="M657.2,243.78a1.91,1.91,0,0,1-.13.36,2.53,2.53,0,0,1-.9,1.1,7,7,0,0,1-2.91,1.1h0a7,7,0,0,1-1.91.13l-.32,0-.7-.1-.6-.13-.47-.14c-.29-.09-.46-.16-.46-.16l-.31-.19a0,0,0,0,0,0,0l-.22-.13-.41-.25-.44-.26-.78-.48-.59-.36-2.47-1.5-.79-.48-1.38-.83c-.21-.14-.43-.27-.65-.4l-1.06-.65-2.77-1.69-.54-.32-3-1.81-.58-.36-.36-.22-.52-.32-1-.6-.31-.19-.58-.37a1.92,1.92,0,0,1-.72-2.22,1.85,1.85,0,0,1,.21-.49c.37-.62,1.71-1.59,4.79-1.45a8.6,8.6,0,0,1,4.5,1.2l-.74.95-.9,1.17a1.43,1.43,0,0,0-.31.75.19.19,0,0,0,0,.13.74.74,0,0,0,0,.14,1.11,1.11,0,0,0,.51.47l9.15,5.23h0a1.24,1.24,0,0,0,1.26,0l.2-.11h0a1.12,1.12,0,0,0,.4-.32,1.18,1.18,0,0,0,.26-.77,1.64,1.64,0,0,0,0-.22,1,1,0,0,0,0-.24v0a2.46,2.46,0,0,0-.17-.44,11.65,11.65,0,0,0-1.11-1.69l8.15,4.48A3,3,0,0,1,657.2,243.78Z"/><path class="cls-55" d="M639.65,240.39l-1,1.13c-4.45-2.73-8.82-5.42-9.37-5.78-.85-.56-.78-1.74-.4-2.66a2.48,2.48,0,0,1,.49-.79,1.92,1.92,0,0,0,.72,2.22C630.6,234.88,635.17,237.67,639.65,240.39Z"/><path class="cls-56" d="M657.36,245.4a1.63,1.63,0,0,1-.15.44c-.82,1.83-4,2.24-4,2.24a8.4,8.4,0,0,1-4.16-.27,3.28,3.28,0,0,1-.78-.37l-8.07-4.93-1.61-1,1-1.13,1.06.65.65.4,1.38.83.79.48,2.47,1.5.59.36.78.48.44.26.41.25.22.13a0,0,0,0,1,0,0,3.57,3.57,0,0,0,.77.35l.47.14.6.13.7.1.32,0a7,7,0,0,0,1.91-.13h0a7.56,7.56,0,0,0,2.85-1.13,2.89,2.89,0,0,0,1-1.07,1.91,1.91,0,0,0,.13-.36A2.79,2.79,0,0,1,657.36,245.4Z"/></g><g id="mug"><path class="cls-57" d="M677.11,257.22c.78,0,1.83.33,1.9,2.13a5.63,5.63,0,0,1-2.73,4.74v-6.75a3,3,0,0,1,.83-.12m0-1h0a3.79,3.79,0,0,0-1.14.17l-.69.22v9.31l1.54-1A6.62,6.62,0,0,0,680,259.3c-.07-1.92-1.16-3.08-2.9-3.08Z"/><path class="cls-57" d="M676.28,254.48v13.3a1.85,1.85,0,0,1-.71,1.46,8.51,8.51,0,0,1-4.9,1.44,7.2,7.2,0,0,1-4.86-1.66,1.79,1.79,0,0,1-.53-1.29V254.48Z"/><ellipse class="cls-58" cx="670.78" cy="254.47" rx="5.5" ry="3.54"/><ellipse class="cls-59" cx="670.8" cy="254.24" rx="4.32" ry="2.15"/><ellipse class="cls-60" cx="662.32" cy="278.49" rx="0.9" ry="0.58"/></g><g id="mouse"><path class="cls-61" d="M665.47,280.12c-.9.62-4.92,3.22-4.92,3.22a3.71,3.71,0,0,1-1.48.27,6.75,6.75,0,0,1-2.16-1.05s-1.35-.65-1.46-1.44a.9.9,0,0,1,.47-.88l4.68-3.11a2.1,2.1,0,0,1,3-.12,9.65,9.65,0,0,1,2.18,2.33h0A.6.6,0,0,1,665.47,280.12Z"/><path class="cls-62" d="M661.25,284.49a8.7,8.7,0,0,1-2.29,1,6.56,6.56,0,0,1-3.51-1.67c-.4-.55,0-2.7,0-2.7.11.79,1.46,1.44,1.46,1.44a6.75,6.75,0,0,0,2.16,1.05,3.71,3.71,0,0,0,1.48-.27Z"/><path class="cls-63" d="M666.19,281.4c-.67.55-4.94,3.09-4.94,3.09l-.7-1.15s4-2.6,4.92-3.22a.6.6,0,0,0,.27-.77h0S666.86,280.85,666.19,281.4Z"/></g><g id="chair"><path class="cls-64" d="M597.38,359.23h0a3.72,3.72,0,0,0-1.57.51,3.5,3.5,0,0,0-1.31,4.76,2.41,2.41,0,0,0,.29.4,3.79,3.79,0,1,1,2.58-5.68Z"/><path class="cls-65" d="M597.39,359.24a3.79,3.79,0,0,1-1.31,5.19,3.45,3.45,0,0,1-1.28.48,2.41,2.41,0,0,1-.29-.4,3.5,3.5,0,0,1,1.31-4.76A3.72,3.72,0,0,1,597.39,359.24Z"/><path class="cls-64" d="M567.44,384.06h0a3.72,3.72,0,0,0-1.61.33A3.5,3.5,0,0,0,564,389a3.62,3.62,0,0,0,.24.43,3.79,3.79,0,1,1,3.2-5.36Z"/><path class="cls-65" d="M567.44,384.07a3.8,3.8,0,0,1-1.87,5,3.94,3.94,0,0,1-1.33.33A3.62,3.62,0,0,1,564,389a3.5,3.5,0,0,1,1.83-4.59A3.72,3.72,0,0,1,567.44,384.07Z"/><path class="cls-64" d="M518.05,375.14h0a3.72,3.72,0,0,0-1.6-.37,3.5,3.5,0,0,0-3.57,3.42,2.7,2.7,0,0,0,0,.49,3.8,3.8,0,1,1,5.13-3.55Z"/><path class="cls-65" d="M518.05,375.15a3.79,3.79,0,0,1-3.79,3.78,3.75,3.75,0,0,1-1.34-.24,2.7,2.7,0,0,1,0-.49,3.5,3.5,0,0,1,3.57-3.42A3.72,3.72,0,0,1,518.05,375.15Z"/><path class="cls-64" d="M518.68,345.13h0a3.72,3.72,0,0,0-1.6-.37,3.5,3.5,0,0,0-3.57,3.42,2.52,2.52,0,0,0,0,.48,3.79,3.79,0,1,1,5.13-3.54Z"/><path class="cls-65" d="M518.68,345.14a3.79,3.79,0,0,1-3.79,3.78,3.55,3.55,0,0,1-1.34-.25,2.52,2.52,0,0,1,0-.48,3.5,3.5,0,0,1,3.57-3.42A3.72,3.72,0,0,1,518.68,345.14Z"/><path class="cls-66" d="M568.82,331.57l-.08.8-.2,1.93h0l-.15,1.46,0,0-4.26,2.85h0l-.05,0-4.57,3.06h0l-5.53,3.7a6.22,6.22,0,0,0-.89.18h0a2.67,2.67,0,0,1-2.06-.19,1.84,1.84,0,0,1-.42-1.54c.09-.83.3-3.31.38-4.33,0-.28,0-.45,0-.45l6.74-3.92,3-1.39.52-.24,1.75-.82,4.53-2.71s.64-.42,1.09-.2S568.82,331.57,568.82,331.57Z"/><path class="cls-67" d="M550.55,343.89a1.84,1.84,0,0,0,.42,1.54,2.67,2.67,0,0,0,2.06.19c-.09.21-1.15,2.8-3.06,2.46a1.82,1.82,0,0,1-.78-.32l-.17-.12a4.62,4.62,0,0,1-1.28-2.85l-.52-2.45-1-4.59,0-.2c-.14-.63-.29-1.25-.44-1.85-.07-.3-.14-.59-.22-.87s-.14-.54-.22-.81-.2-.74-.31-1.1-.23-.82-.36-1.22-.18-.6-.28-.89c-.26-.81-.53-1.59-.8-2.34s-.53-1.41-.8-2.07c-.16-.4-.32-.78-.48-1.16s-.24-.55-.37-.82c-.24-.54-.48-1.05-.73-1.55l-.37-.74c-.11-.21-.22-.43-.34-.64s-.21-.4-.32-.59c-.58-1-1.17-2-1.75-2.86l-.2-.31-.36-.51-.36-.5q-.16-.24-.36-.48l-.35-.45-.35-.43c-.21-.26-.42-.51-.63-.74s-.17-.18-.24-.27-.31-.34-.47-.5l-.44-.45a5.35,5.35,0,0,0-.42-.41,19.71,19.71,0,0,0-1.5-1.29l-.31-.24c-.3-.23-.57-.4-.78-.54l-.23-.14a4,4,0,0,0-.45-.25,2.36,2.36,0,0,1-3.18.12,1.92,1.92,0,0,1-.62-1c-.34-1.33.92-3,2.56-4.26a11.87,11.87,0,0,1,6.22-2.38,6.59,6.59,0,0,1,2.87.46,4.5,4.5,0,0,1,1.16.72h0l.1.09a10.9,10.9,0,0,1,2.6,4s2.31,6.66,4.49,12.87l.39,1.12.87,2.45c.21.6.42,1.17.61,1.72l.44,1.24c.76,2.11,1.31,3.61,1.46,3.89.64,1.22,1.9,1,3.65.14a16.23,16.23,0,0,0,3.14-2.36l-.46,3.92,0,.14a.34.34,0,0,0,0,.09,3.54,3.54,0,0,0,0,.56,2.33,2.33,0,0,0,.47,1.12L551,339.11s0,.17,0,.45C550.85,340.58,550.64,343.06,550.55,343.89Z"/><path class="cls-68" d="M581.06,297.15c0,.92-1.06,1.52-1.06,1.52l-1.06.64-.24.14-.19.11-.36.22-1.29.77-.4.24-.09,0-1,.62-.06,0-.86.52-2,1.19-1.75,1.05L565,307.67h0l-1.61,1h0l-.73.44a3.24,3.24,0,0,0-.35.21l-.65.39a.67.67,0,0,0-.12.06l-.34.21-1.06.63-.63.37-.09.05a.15.15,0,0,1-.07,0l0,0h0a3.31,3.31,0,0,1-.41.18l-.17.07a9,9,0,0,1-.95.3,7.59,7.59,0,0,1-2,.29,4,4,0,0,1-3.24-1.37l-.3-.41a2.25,2.25,0,0,1-.26-.63,1.88,1.88,0,0,1,0-.33,2.22,2.22,0,0,1,1.12-2l0,0,11.93-6.83,1.1-.63,4.29-2.46,4.26-2.44a2.41,2.41,0,0,1,2.08-.08s1.42.47,2.51.85h0c.53.18,1,.34,1.14.42a1.17,1.17,0,0,1,.68.75A1.35,1.35,0,0,1,581.06,297.15Z"/><path class="cls-69" d="M581.06,299.34l-10.19,6.26-1.71,1-.32.2a.41.41,0,0,0-.11-.07,1.4,1.4,0,0,0-1,.07l-.48.31-4.54,3-.74,3-.29,1.17c-.05.21-.1.42-.16.64s-.08.34-.13.51c-.12.51-.25,1-.38,1.58-.4,1.68-.84,3.51-1.28,5.33-.1.39-.19.79-.29,1.18l-.86,3.61c-.22.92-.42,1.79-.6,2.57l-.25,1.09q-.1.44-.18.81s0,.05,0,.07c-.05.23-.1.44-.14.63-.09.42-.16.73-.2.94l.46-3.92,1.09-5.51.23-1.19,1.05-5.32.42-2.09.84-4.24a14.91,14.91,0,0,1-3.63,1.78,6.87,6.87,0,0,1-2.35.37c-2.74-.11-3.23-3-3.23-3l.3.41a4,4,0,0,0,3.24,1.37,7.59,7.59,0,0,0,2-.29,9,9,0,0,0,.95-.3l.17-.07a3.31,3.31,0,0,0,.41-.18h0l0,0,.16-.08.63-.37,1.06-.63.34-.21a.67.67,0,0,1,.12-.06l.65-.39a3.24,3.24,0,0,1,.35-.21l.73-.44h0l1.61-1h0l5.71-3.41,1.75-1.05,2-1.19.86-.52.06,0,1-.62.09,0,.4-.24,1.29-.77.36-.22.19-.11.24-.14,1.06-.64s1.06-.6,1.06-1.52a1.35,1.35,0,0,0-.07-.46l.07,0C582.57,298.54,581.06,299.34,581.06,299.34Z"/><path class="cls-70" d="M532,308.37c11.21,8.37,16.44,28.38,16.44,28.38s.15.76.52,1a1.3,1.3,0,0,0,1.22,0l5.28-3.09c.14-.73.31-2.17.31-2.17s-3.15,1.66-5,1.31c-.86-.16-1.35-1.35-1.35-1.35s-6.46-17.52-7.49-20.92a19.73,19.73,0,0,0-1.62-3.88,4.4,4.4,0,0,0-2.81-2.22,9.07,9.07,0,0,0-7.16,1.69s-1.4,1.29-.06,1.75A1.51,1.51,0,0,0,532,308.37Z"/><path class="cls-67" d="M593,320.09a.08.08,0,0,0,0,.05,6.49,6.49,0,0,1-2.53,3.09,3.54,3.54,0,0,1-2.21.16,3.31,3.31,0,0,1-.85-.41,1.69,1.69,0,0,0-1.34-.34,3.93,3.93,0,0,0-1.33.69l-.56.4c-1.75,1.23-6.34,4.33-10.09,6.86-2.91,2-5.33,3.6-5.51,3.71l.2-1.93.08-.8s.2-1.51-.25-1.74-1.09.2-1.09.2l-.17.1,0,0L566,331l0,0-3,1.77.35-1.47h0l.25-1.07h0l0-.15.6-2.48.39-1.61,19.22-11.49a10.6,10.6,0,0,1,4.84-1.63,4.15,4.15,0,0,1,2.78.92,4.54,4.54,0,0,1,1.06,1.33A5.8,5.8,0,0,1,593,320.09Z"/><path class="cls-70" d="M589.8,321.65a2.45,2.45,0,0,1-2.26-.18,1.57,1.57,0,0,0-1-.25,3.35,3.35,0,0,0-1.23.5l-16.58,10.65.08-.8s.2-1.51-.25-1.74-1.09.2-1.09.2L563,332.74l1.25-5.18,20.71-12.34s4.51-3,6.41.46A4.41,4.41,0,0,1,589.8,321.65Z"/><rect class="cls-71" x="563.03" y="329.25" width="4.74" height="1.87" rx="0.93" transform="translate(-89.34 326.94) rotate(-30)"/><path class="cls-72" d="M540,304.22a4.5,4.5,0,0,0-1.16-.72,6.59,6.59,0,0,0-2.87-.46,11.87,11.87,0,0,0-6.22,2.38c-1.64,1.25-2.9,2.93-2.56,4.26L517.51,304,493,289.72,485,285s-.85-2.28,2.8-5.89,9.09-.33,9.09-.33l10.38,5.85,5.17,2.9,1.42.8.44.24,2,1.12.84.47,5.17,2.89c5.75,3.21,10.75,6,12.73,7l.46.24C539.82,302.56,540,304.22,540,304.22Z"/><path class="cls-73" d="M549,347.64l-3.4-2.24-1.79-1.18c-13.5-30.79-43.12-39.79-43.12-39.79L493,289.72l34.13,20a1.92,1.92,0,0,0,.62,1,2.36,2.36,0,0,0,3.18-.12,4,4,0,0,1,.45.25l.23.14c.21.14.48.31.78.54l.31.24a19.71,19.71,0,0,1,1.5,1.29l.42.41.44.45.47.5c.07.09.16.18.24.27l.63.74.35.43.35.45.36.48.36.5.36.51c.64.94,1.3,2,1.95,3.17.11.19.22.39.32.59s.23.43.34.64l.37.74c.25.5.49,1,.73,1.55.13.27.25.54.37.82s.32.76.48,1.16c.27.66.54,1.35.8,2.07s.54,1.53.8,2.34c.09.29.19.59.28.89s.25.81.36,1.22.21.73.31,1.1.15.54.22.81.15.57.22.87c.15.6.3,1.22.44,1.85l0,.2,1,4.59.52,2.45A4.62,4.62,0,0,0,549,347.64Z"/><path class="cls-74" d="M504.22,321.08c1.21-1.33.45-4.44.45-4.44l-4-12.21s29.62,9,43.12,39.79Z"/><path class="cls-75" d="M559.43,356.83l.12.6c.74,3.72,4.64,23.47,4.81,24.5l-.27,1.37-1.82-.84L550,362.92a31,31,0,0,0-3.27-4.4c-.9-.68-2.76.39-2.76.39s-26.44,13.41-27.07,13.71a16,16,0,0,1-3.38.29l.49-2.15s19.06-15.1,23.17-18.37l.76-.61c.76-.63,0-.92,0-.92l-22.29-7.24L514,342.06l2.45-.7,29.18,4,3.4,2.24.17.12a1.82,1.82,0,0,0,.78.32c1.91.34,3-2.25,3.06-2.46h0a6.22,6.22,0,0,1,.89-.18l5.53-3.7h0l4.57-3.06.05,0h0v0h0l-.05.07c-.43.75-3.4,5.84-3.91,6.72a3.85,3.85,0,0,0-.75,1.94c0,.55,1,.71,1,.71l.49.13,34.12,9,.55,1.18-1.08.38s-33.84-3.55-34.54-3.5C559,355.36,559.43,356.83,559.43,356.83Z"/><path class="cls-76" d="M559,322.66l-.23,1.19-1.09,5.51a16.23,16.23,0,0,1-3.14,2.36c-1.75.85-3,1.08-3.65-.14-.15-.28-.7-1.78-1.46-3.89l-.44-1.24Z"/><path class="cls-76" d="M588.65,312.83a10.6,10.6,0,0,0-4.84,1.63L564.59,326l1.2-5,.23-1,18.21-6.88a12.94,12.94,0,0,1,1.64-.44h0A4.27,4.27,0,0,1,588.65,312.83Z"/><path class="cls-77" d="M537.92,351.78l-.76.61-22.9-7.7,1.35-1.07,22.29,7.24S538.68,351.15,537.92,351.78Z"/><path class="cls-77" d="M562.27,382.46l-.79,1.09-14.22-22.29c-1-1.62-1.6-1.39-1.6-1.39a2.32,2.32,0,0,0-1.49.46L516.43,374.2l.45-1.58c.63-.3,27.07-13.71,27.07-13.71s1.86-1.07,2.76-.39a31,31,0,0,1,3.27,4.4Z"/><path class="cls-77" d="M595.56,360.25l-36-2.82-.12-.6s-.4-1.47.51-1.52c.7-.05,34.54,3.5,34.54,3.5Z"/><path class="cls-77" d="M564.59,340.19h0l-3.7,8-.49-.13s-1-.16-1-.71a3.85,3.85,0,0,1,.75-1.94c.51-.88,3.48-6,3.91-6.72a3.07,3.07,0,0,0,.13,1,3.52,3.52,0,0,0,.18.45Z"/><path class="cls-65" d="M565.7,340a3.54,3.54,0,0,1-1.11.15h-.25a3.52,3.52,0,0,1-.18-.45,3.07,3.07,0,0,1-.13-1l.05-.07h0v0l4.26-2.85A3.76,3.76,0,0,1,565.7,340Z"/><ellipse class="cls-78" cx="552.32" cy="330.81" rx="0.99" ry="1.18" transform="translate(60.3 746.02) rotate(-71.08)"/><path class="cls-79" d="M560.08,317.34,559,322.66l-5.76,2.18L549,326.45c-.19-.55-.4-1.12-.61-1.72l-.87-2.45-.39-1.12Z"/><path class="cls-79" d="M585.88,312.7h0a12.94,12.94,0,0,0-1.64.44L566,320l1.09-4.49.07-.28L585,310a5.31,5.31,0,0,1,.38.58A3.3,3.3,0,0,1,585.88,312.7Z"/><ellipse class="cls-80" cx="549.98" cy="350.86" rx="2.63" ry="1.49"/><path class="cls-68" d="M568.84,308.38l-1.66,6.87-.07.28L566,320l-.23,1-1.2,5-.39,1.61-.6,2.48,0,.15h0l-.25,1.07h0l-.35,1.47-.18.74,0,.24v0s-.71,2.77-2.9,2.47a4.88,4.88,0,0,1-.62-.12,2.66,2.66,0,0,1-1.48-.91,2.33,2.33,0,0,1-.47-1.12,3.54,3.54,0,0,1,0-.56.34.34,0,0,1,0-.09s0-.09,0-.14c0-.21.11-.52.2-.94,0-.19.09-.4.14-.63,0,0,0,0,0-.07q.09-.37.18-.81l.25-1.09c.18-.78.38-1.65.6-2.57l.86-3.61h0c.09-.39.18-.79.28-1.18.44-1.82.88-3.65,1.28-5.33h0c.13-.55.26-1.07.38-1.58l.12-.51c.06-.22.11-.43.16-.64l.29-1.17.74-3,4.54-3,.48-.31a1.4,1.4,0,0,1,1-.07.41.41,0,0,1,.11.07C569.19,307.14,568.84,308.38,568.84,308.38Z"/></g><path class="cls-81" d="M655.46,260a1,1,0,0,1-.14.15l-16.13,13.07a.84.84,0,0,1-1,.07l-62.67-37.38a.49.49,0,0,1-.14-.11.86.86,0,0,1,0-1.3l16.11-13.08a.88.88,0,0,1,1-.07l62.7,37.39A.86.86,0,0,1,655.46,260Z"/><path class="cls-82" d="M632.27,247.67l2,1.21a.28.28,0,0,1,0,.45l-1.86,1.5a.27.27,0,0,1-.31,0l-2-1.22a.28.28,0,0,1,0-.45l1.85-1.5A.27.27,0,0,1,632.27,247.67Z"/><path class="cls-82" d="M647.73,260.16l1.86,1.12a.38.38,0,0,1,0,.62l-1.7,1.38a.35.35,0,0,1-.39,0l-1.92-1.15a.33.33,0,0,1,0-.55l1.74-1.42A.35.35,0,0,1,647.73,260.16Z"/><path class="cls-82" d="M645.42,262l1.92,1.15a.34.34,0,0,1,0,.55l-4,3.29a.35.35,0,0,1-.39,0L641,265.9a.34.34,0,0,1,0-.55l4-3.29A.33.33,0,0,1,645.42,262Z"/><path class="cls-82" d="M634.8,249.18l2,1.22a.27.27,0,0,1,0,.44L635,252.35a.29.29,0,0,1-.32,0l-2-1.22a.27.27,0,0,1,0-.44l1.85-1.51A.27.27,0,0,1,634.8,249.18Z"/><path class="cls-82" d="M637.33,250.69l2,1.22a.28.28,0,0,1,0,.45l-1.85,1.5a.27.27,0,0,1-.31,0l-2-1.22a.28.28,0,0,1,0-.45l1.85-1.5A.29.29,0,0,1,637.33,250.69Z"/><path class="cls-82" d="M630,249.54l2,1.21a.28.28,0,0,1,0,.45l-1.85,1.51a.27.27,0,0,1-.31,0l-2-1.22a.27.27,0,0,1,0-.44l1.86-1.51A.27.27,0,0,1,630,249.54Z"/><path class="cls-82" d="M632.5,251.05l2,1.22a.27.27,0,0,1,0,.44l-1.86,1.51a.27.27,0,0,1-.31,0l-2-1.22a.27.27,0,0,1,0-.44l1.86-1.51A.27.27,0,0,1,632.5,251.05Z"/><path class="cls-82" d="M635,252.57l2,1.21a.28.28,0,0,1,0,.45l-1.86,1.5a.26.26,0,0,1-.31,0l-2-1.22a.27.27,0,0,1,0-.44l1.85-1.51A.27.27,0,0,1,635,252.57Z"/><path class="cls-82" d="M627.66,251.41l2,1.22a.27.27,0,0,1,0,.44l-1.85,1.51a.29.29,0,0,1-.32,0l-2-1.22a.27.27,0,0,1,0-.44l1.85-1.51A.27.27,0,0,1,627.66,251.41Z"/><path class="cls-82" d="M630.2,252.92l2,1.22a.27.27,0,0,1,0,.44l-1.85,1.51a.27.27,0,0,1-.31,0l-2-1.21a.28.28,0,0,1,0-.45l1.85-1.5A.27.27,0,0,1,630.2,252.92Z"/><path class="cls-82" d="M632.73,254.44l2,1.22a.27.27,0,0,1,0,.44l-1.85,1.51a.27.27,0,0,1-.31,0l-2-1.22a.27.27,0,0,1,0-.44l1.86-1.51A.27.27,0,0,1,632.73,254.44Z"/><path class="cls-82" d="M640.13,255.62l1.92,1.15a.34.34,0,0,1,0,.55l-1.75,1.42a.32.32,0,0,1-.38,0L638,257.62a.34.34,0,0,1,0-.55l1.75-1.42A.33.33,0,0,1,640.13,255.62Z"/><path class="cls-82" d="M642.66,257.13l1.92,1.15a.34.34,0,0,1,0,.55l-1.75,1.42a.33.33,0,0,1-.38,0l-1.92-1.15a.34.34,0,0,1,0-.55l1.75-1.42A.33.33,0,0,1,642.66,257.13Z"/><path class="cls-82" d="M645.2,258.65l1.91,1.15a.33.33,0,0,1,0,.55l-1.74,1.42a.35.35,0,0,1-.39,0l-1.92-1.14a.34.34,0,0,1,0-.55l1.75-1.42A.35.35,0,0,1,645.2,258.65Z"/><path class="cls-82" d="M637.83,257.49l1.92,1.15a.34.34,0,0,1,0,.55L638,260.61a.33.33,0,0,1-.39,0l-1.91-1.14a.34.34,0,0,1,0-.55l1.74-1.42A.35.35,0,0,1,637.83,257.49Z"/><path class="cls-82" d="M640.36,259l1.92,1.15a.34.34,0,0,1,0,.55l-1.75,1.42a.33.33,0,0,1-.38,0L638.27,261a.34.34,0,0,1,0-.55L640,259A.33.33,0,0,1,640.36,259Z"/><path class="cls-82" d="M642.89,260.52l1.92,1.15a.34.34,0,0,1,0,.55l-1.75,1.42a.32.32,0,0,1-.38,0l-1.92-1.14a.34.34,0,0,1,0-.55l1.75-1.42A.33.33,0,0,1,642.89,260.52Z"/><path class="cls-82" d="M635.53,259.36l1.91,1.15a.34.34,0,0,1,0,.55l-1.75,1.42a.33.33,0,0,1-.38,0l-1.92-1.15a.34.34,0,0,1,0-.55l1.75-1.42A.35.35,0,0,1,635.53,259.36Z"/><path class="cls-82" d="M638.06,260.88,640,262a.33.33,0,0,1,0,.55L638.27,264a.35.35,0,0,1-.39,0L636,262.87a.34.34,0,0,1,0-.55l1.75-1.42A.33.33,0,0,1,638.06,260.88Z"/><path class="cls-82" d="M640.59,262.39l1.92,1.15a.34.34,0,0,1,0,.55l-1.75,1.42a.35.35,0,0,1-.39,0l-1.91-1.15a.33.33,0,0,1,0-.55l1.74-1.42A.35.35,0,0,1,640.59,262.39Z"/><path class="cls-82" d="M633.22,261.23l1.92,1.15a.34.34,0,0,1,0,.55l-1.75,1.42a.33.33,0,0,1-.38,0l-1.92-1.15a.34.34,0,0,1,0-.55l1.75-1.42A.33.33,0,0,1,633.22,261.23Z"/><path class="cls-82" d="M630.92,263.1l4.45,2.67a.34.34,0,0,1,0,.55l-1.75,1.42a.35.35,0,0,1-.39,0l-4.45-2.66a.34.34,0,0,1,0-.55l1.75-1.42A.35.35,0,0,1,630.92,263.1Z"/><path class="cls-82" d="M635.75,262.75l1.92,1.15a.33.33,0,0,1,0,.54L636,265.86a.33.33,0,0,1-.38,0l-1.92-1.15a.33.33,0,0,1,0-.54l1.75-1.42A.33.33,0,0,1,635.75,262.75Z"/><path class="cls-82" d="M638.29,264.26l1.91,1.15a.34.34,0,0,1,0,.55l-1.75,1.42a.33.33,0,0,1-.38,0l-1.92-1.15a.34.34,0,0,1,0-.55l1.75-1.42A.35.35,0,0,1,638.29,264.26Z"/><path class="cls-82" d="M642.77,267.48l-3.75,3a.87.87,0,0,1-1,.08l-2-1.2-2.12-1.26a.34.34,0,0,1,0-.55l1.75-1.42a.35.35,0,0,1,.39,0l2.12,1.27a.33.33,0,0,0,.39,0l1.93-1.57a.33.33,0,0,1,.38,0l1.92,1.16A.34.34,0,0,1,642.77,267.48Z"/><path class="cls-82" d="M595.19,228.84l1.81,1.08a.4.4,0,0,1,0,.65l-1.66,1.34a.39.39,0,0,1-.45,0l-1.81-1.08a.4.4,0,0,1,0-.65l1.65-1.34A.39.39,0,0,1,595.19,228.84Z"/><path class="cls-82" d="M597.7,230.34l1.88,1.13a.36.36,0,0,1,0,.58l-1.71,1.39a.35.35,0,0,1-.41,0l-1.88-1.12a.36.36,0,0,1,0-.59l1.71-1.39A.36.36,0,0,1,597.7,230.34Z"/><path class="cls-82" d="M600.23,231.86l1.88,1.12a.36.36,0,0,1,0,.58l-1.71,1.4a.38.38,0,0,1-.41,0l-1.88-1.13a.36.36,0,0,1,0-.58l1.71-1.4A.36.36,0,0,1,600.23,231.86Z"/><path class="cls-82" d="M602.76,233.37l1.88,1.13a.35.35,0,0,1,0,.58L603,236.47a.35.35,0,0,1-.41,0l-1.88-1.13a.36.36,0,0,1,0-.58l1.71-1.39A.36.36,0,0,1,602.76,233.37Z"/><path class="cls-82" d="M600.46,235.24l1.88,1.13a.36.36,0,0,1,0,.58l-1.71,1.39a.35.35,0,0,1-.41,0l-1.88-1.12a.36.36,0,0,1,0-.59l1.71-1.39A.36.36,0,0,1,600.46,235.24Z"/><path class="cls-82" d="M598.15,237.11l1.89,1.13a.36.36,0,0,1,0,.58l-1.72,1.39a.35.35,0,0,1-.41,0l-1.88-1.12a.36.36,0,0,1,0-.58l1.72-1.4A.36.36,0,0,1,598.15,237.11Z"/><path class="cls-82" d="M595.87,239l1.81,1.08a.4.4,0,0,1,.05.65l-1.65,1.34a.39.39,0,0,1-.45,0L593.82,241a.4.4,0,0,1-.05-.65l1.65-1.34A.39.39,0,0,1,595.87,239Z"/><path class="cls-82" d="M608.26,233.3l1.88,1.13a.35.35,0,0,1,0,.58l-1.71,1.39a.35.35,0,0,1-.41,0l-1.88-1.12a.36.36,0,0,1,0-.58l1.71-1.4A.38.38,0,0,1,608.26,233.3Z"/><path class="cls-82" d="M613.62,236.6l1.9,1.14a.35.35,0,0,1,0,.56l-1.74,1.41a.33.33,0,0,1-.39,0l-1.9-1.14a.34.34,0,0,1,0-.56l1.73-1.41A.36.36,0,0,1,613.62,236.6Z"/><path class="cls-82" d="M611.31,238.47l1.9,1.14a.35.35,0,0,1,0,.57l-1.74,1.41a.33.33,0,0,1-.39,0l-1.91-1.14a.35.35,0,0,1,0-.56l1.74-1.41A.35.35,0,0,1,611.31,238.47Z"/><path class="cls-82" d="M609,240.35l1.9,1.13a.35.35,0,0,1,0,.57l-1.73,1.41a.35.35,0,0,1-.4,0l-1.9-1.13a.35.35,0,0,1,0-.57l1.73-1.41A.35.35,0,0,1,609,240.35Z"/><path class="cls-82" d="M616.15,238.12l1.9,1.14a.34.34,0,0,1,0,.56l-1.73,1.41a.36.36,0,0,1-.4,0l-1.9-1.14a.34.34,0,0,1,0-.56l1.73-1.41A.33.33,0,0,1,616.15,238.12Z"/><path class="cls-82" d="M613.84,240l1.91,1.14a.35.35,0,0,1,0,.56l-1.74,1.41a.35.35,0,0,1-.39,0L611.75,242a.35.35,0,0,1,0-.56l1.74-1.41A.33.33,0,0,1,613.84,240Z"/><path class="cls-82" d="M611.54,241.86l1.9,1.14a.34.34,0,0,1,0,.56L611.75,245a.36.36,0,0,1-.4,0l-1.9-1.14a.34.34,0,0,1,0-.56l1.74-1.41A.35.35,0,0,1,611.54,241.86Z"/><path class="cls-82" d="M606.7,242.22l1.91,1.14a.35.35,0,0,1,0,.56l-1.74,1.41a.35.35,0,0,1-.39,0l-1.91-1.14a.36.36,0,0,1,0-.57l1.74-1.4A.32.32,0,0,1,606.7,242.22Z"/><path class="cls-82" d="M609.24,243.73l1.9,1.14a.35.35,0,0,1,0,.56l-1.74,1.41a.35.35,0,0,1-.39,0l-1.9-1.14a.34.34,0,0,1,0-.56l1.73-1.41A.36.36,0,0,1,609.24,243.73Z"/><path class="cls-82" d="M611.77,245.25l1.9,1.14a.34.34,0,0,1,0,.56L612,248.36a.36.36,0,0,1-.4,0l-1.9-1.14a.35.35,0,0,1,0-.57l1.73-1.41A.35.35,0,0,1,611.77,245.25Z"/><path class="cls-82" d="M609.46,247.12l1.91,1.14a.35.35,0,0,1,0,.56l-1.74,1.41a.35.35,0,0,1-.39,0l-1.91-1.14a.35.35,0,0,1,0-.56l1.74-1.41A.32.32,0,0,1,609.46,247.12Z"/><path class="cls-82" d="M606.93,245.6l1.91,1.14a.35.35,0,0,1,0,.56l-1.74,1.41a.33.33,0,0,1-.39,0l-1.91-1.14a.35.35,0,0,1,0-.56l1.74-1.41A.35.35,0,0,1,606.93,245.6Z"/><path class="cls-82" d="M604.4,244.09l1.9,1.14a.34.34,0,0,1,0,.56l-1.73,1.41a.36.36,0,0,1-.4,0l-1.9-1.14a.35.35,0,0,1,0-.56l1.74-1.41A.33.33,0,0,1,604.4,244.09Z"/><path class="cls-82" d="M604.63,247.47l1.9,1.14a.35.35,0,0,1,0,.57l-1.73,1.4a.33.33,0,0,1-.4,0l-1.9-1.14a.34.34,0,0,1,0-.56l1.73-1.41A.36.36,0,0,1,604.63,247.47Z"/><path class="cls-82" d="M602.1,246l1.9,1.14a.34.34,0,0,1,0,.56l-1.74,1.41a.35.35,0,0,1-.39,0L600,248a.34.34,0,0,1,0-.56L601.7,246A.36.36,0,0,1,602.1,246Z"/><path class="cls-82" d="M607.16,249l1.9,1.14a.34.34,0,0,1,0,.56l-1.73,1.41a.36.36,0,0,1-.4,0l-1.9-1.14a.35.35,0,0,1,0-.56l1.74-1.41A.33.33,0,0,1,607.16,249Z"/><path class="cls-82" d="M624.72,243.15l1.9,1.13a.35.35,0,0,1,0,.57l-1.73,1.41a.36.36,0,0,1-.4,0l-1.9-1.14a.36.36,0,0,1,0-.57l1.73-1.4A.33.33,0,0,1,624.72,243.15Z"/><path class="cls-82" d="M622.42,245l1.9,1.14a.35.35,0,0,1,0,.56l-1.74,1.41a.35.35,0,0,1-.39,0l-1.9-1.14a.35.35,0,0,1,0-.57l1.73-1.4A.35.35,0,0,1,622.42,245Z"/><path class="cls-82" d="M622.19,241.63l1.9,1.14a.34.34,0,0,1,0,.56l-1.73,1.41a.35.35,0,0,1-.4,0l-1.9-1.14a.34.34,0,0,1,0-.56l1.73-1.41A.36.36,0,0,1,622.19,241.63Z"/><path class="cls-82" d="M619.88,243.5l1.9,1.14a.35.35,0,0,1,.05.57l-1.74,1.4a.32.32,0,0,1-.39,0l-1.9-1.14a.34.34,0,0,1,0-.56l1.73-1.41A.35.35,0,0,1,619.88,243.5Z"/><path class="cls-82" d="M620.11,246.89,622,248a.34.34,0,0,1,0,.56L620.32,250a.35.35,0,0,1-.39,0L618,248.89a.35.35,0,0,1,0-.56l1.74-1.41A.35.35,0,0,1,620.11,246.89Z"/><path class="cls-82" d="M627.25,244.66l1.9,1.14a.34.34,0,0,1,0,.56l-1.73,1.41a.36.36,0,0,1-.4,0l-1.9-1.14a.35.35,0,0,1,0-.56l1.74-1.41A.35.35,0,0,1,627.25,244.66Z"/><path class="cls-82" d="M625,246.53l1.9,1.14a.35.35,0,0,1,0,.57l-1.73,1.4a.35.35,0,0,1-.4,0l-1.9-1.14a.34.34,0,0,1,0-.56l1.73-1.41A.36.36,0,0,1,625,246.53Z"/><path class="cls-82" d="M622.64,248.4l1.9,1.14a.35.35,0,0,1,.05.57l-1.74,1.4a.32.32,0,0,1-.39,0l-1.9-1.13a.35.35,0,0,1,0-.57l1.73-1.41A.35.35,0,0,1,622.64,248.4Z"/><path class="cls-82" d="M617.81,248.76l1.9,1.14a.34.34,0,0,1,0,.56L618,251.87a.36.36,0,0,1-.4,0l-1.9-1.14a.34.34,0,0,1,0-.56l1.73-1.41A.36.36,0,0,1,617.81,248.76Z"/><path class="cls-82" d="M620.34,250.28l1.9,1.13a.35.35,0,0,1,0,.57l-1.73,1.41a.34.34,0,0,1-.4,0l-1.9-1.13a.36.36,0,0,1,0-.57l1.73-1.41A.35.35,0,0,1,620.34,250.28Z"/><path class="cls-82" d="M618,252.15l1.9,1.13a.36.36,0,0,1,0,.57l-1.74,1.41a.35.35,0,0,1-.39,0l-1.9-1.14a.35.35,0,0,1,0-.57l1.73-1.4A.33.33,0,0,1,618,252.15Z"/><path class="cls-82" d="M615.5,250.63l1.91,1.14a.35.35,0,0,1,0,.56l-1.74,1.41a.33.33,0,0,1-.39,0l-1.9-1.14a.34.34,0,0,1,0-.56l1.73-1.41A.35.35,0,0,1,615.5,250.63Z"/><path class="cls-82" d="M615.73,254l1.9,1.14a.34.34,0,0,1,0,.56l-1.73,1.41a.35.35,0,0,1-.39,0L613.64,256a.36.36,0,0,1,0-.57l1.74-1.4A.33.33,0,0,1,615.73,254Z"/><path class="cls-82" d="M613.2,252.5l1.9,1.14a.35.35,0,0,1,0,.57l-1.73,1.4a.33.33,0,0,1-.4,0l-1.9-1.14a.35.35,0,0,1,0-.56l1.74-1.41A.35.35,0,0,1,613.2,252.5Z"/><path class="cls-82" d="M625.59,256.67l2,1.21a.28.28,0,0,1,0,.45l-1.85,1.5a.27.27,0,0,1-.31,0l-2-1.22a.28.28,0,0,1,0-.45l1.86-1.5A.27.27,0,0,1,625.59,256.67Z"/><path class="cls-82" d="M625.82,260.05l2,1.22a.27.27,0,0,1,0,.44L626,263.22a.27.27,0,0,1-.31,0l-2-1.22a.27.27,0,0,1,0-.44l1.85-1.51A.29.29,0,0,1,625.82,260.05Z"/><path class="cls-82" d="M623.28,258.54l2,1.21a.28.28,0,0,1,0,.45l-1.85,1.51a.27.27,0,0,1-.31,0l-2-1.22a.27.27,0,0,1,0-.44l1.85-1.51A.27.27,0,0,1,623.28,258.54Z"/><path class="cls-82" d="M620.75,257l2,1.22a.27.27,0,0,1,0,.44L621,260.19a.27.27,0,0,1-.31,0l-2-1.22a.27.27,0,0,1,0-.44l1.85-1.51A.27.27,0,0,1,620.75,257Z"/><path class="cls-82" d="M596.2,226.21l1.81,1.08a.4.4,0,0,1,0,.65l-1.65,1.34a.41.41,0,0,1-.45,0l-1.81-1.08a.4.4,0,0,1,0-.65l1.65-1.34A.38.38,0,0,1,596.2,226.21Z"/><path class="cls-82" d="M592.66,227.33l1.81,1.08a.39.39,0,0,1,0,.64l-1.65,1.34a.39.39,0,0,1-.45,0l-1.81-1.09a.39.39,0,0,1-.05-.64l1.66-1.34A.38.38,0,0,1,592.66,227.33Z"/><path class="cls-82" d="M590.13,225.81l1.81,1.08a.4.4,0,0,1,0,.65l-1.65,1.34a.39.39,0,0,1-.45,0l-1.81-1.08a.4.4,0,0,1-.05-.65l1.65-1.34A.43.43,0,0,1,590.13,225.81Z"/><path class="cls-82" d="M592.58,224l1.66,1a.4.4,0,0,1,0,.65L592.64,227a.41.41,0,0,1-.46,0L590.37,226a.4.4,0,0,1,0-.65l1.51-1.23A.65.65,0,0,1,592.58,224Z"/><path class="cls-82" d="M587.82,227.68l4.34,2.6a.4.4,0,0,1,.05.65l-1.65,1.34a.41.41,0,0,1-.45,0l-4.34-2.6a.4.4,0,0,1,0-.65l1.65-1.34A.41.41,0,0,1,587.82,227.68Z"/><path class="cls-82" d="M585.52,229.55l4.34,2.6a.4.4,0,0,1,0,.65l-1.65,1.34a.41.41,0,0,1-.46,0l-4.34-2.6a.39.39,0,0,1,0-.64l1.65-1.34A.39.39,0,0,1,585.52,229.55Z"/><path class="cls-82" d="M583.21,231.42l4.35,2.6a.4.4,0,0,1,0,.65L586,236a.39.39,0,0,1-.45,0l-4.34-2.6a.39.39,0,0,1,0-.64l1.65-1.34A.39.39,0,0,1,583.21,231.42Z"/><path class="cls-82" d="M580.94,233.31l4.26,2.55a.44.44,0,0,1,0,.72l-1.58,1.28a.44.44,0,0,1-.5,0l-4.36-2.61a.37.37,0,0,1,0-.59l1.66-1.35A.45.45,0,0,1,580.94,233.31Z"/><path class="cls-82" d="M598.71,227.71l1.88,1.12a.36.36,0,0,1,0,.59l-1.71,1.39a.38.38,0,0,1-.41,0l-1.88-1.13a.36.36,0,0,1,0-.58l1.71-1.39A.35.35,0,0,1,598.71,227.71Z"/><path class="cls-82" d="M601.24,229.22l1.88,1.13a.35.35,0,0,1,0,.58l-1.72,1.39a.35.35,0,0,1-.41,0l-1.88-1.12a.36.36,0,0,1,0-.58l1.72-1.4A.36.36,0,0,1,601.24,229.22Z"/><path class="cls-82" d="M603.77,230.74l1.89,1.12a.37.37,0,0,1,0,.59L604,233.84a.38.38,0,0,1-.41,0l-1.88-1.13a.36.36,0,0,1,0-.58l1.72-1.39A.33.33,0,0,1,603.77,230.74Z"/><path class="cls-82" d="M592.89,230.71l1.81,1.08a.4.4,0,0,1,0,.65l-1.65,1.34a.38.38,0,0,1-.45,0l-1.81-1.08a.4.4,0,0,1-.05-.65l1.65-1.34A.43.43,0,0,1,592.89,230.71Z"/><path class="cls-82" d="M595.42,232.23l1.81,1.08a.39.39,0,0,1,0,.64l-1.65,1.35a.41.41,0,0,1-.45,0l-1.81-1.08a.4.4,0,0,1-.05-.65l1.66-1.34A.38.38,0,0,1,595.42,232.23Z"/><path class="cls-82" d="M597.93,233.73l1.88,1.12a.36.36,0,0,1,0,.58l-1.72,1.4a.36.36,0,0,1-.4,0l-1.89-1.13a.36.36,0,0,1,0-.58l1.72-1.39A.35.35,0,0,1,597.93,233.73Z"/><path class="cls-82" d="M590.58,232.58l1.81,1.09a.39.39,0,0,1,.05.64l-1.65,1.34a.38.38,0,0,1-.45,0l-1.81-1.08a.39.39,0,0,1,0-.64l1.65-1.35A.41.41,0,0,1,590.58,232.58Z"/><path class="cls-82" d="M593.11,234.1l1.81,1.08a.4.4,0,0,1,.05.65l-1.65,1.34a.41.41,0,0,1-.45,0l-1.81-1.08a.4.4,0,0,1,0-.65l1.65-1.34A.38.38,0,0,1,593.11,234.1Z"/><path class="cls-82" d="M595.65,235.61l1.81,1.08a.4.4,0,0,1,0,.65l-1.65,1.34a.38.38,0,0,1-.45,0l-1.81-1.08a.39.39,0,0,1-.05-.64l1.65-1.35A.43.43,0,0,1,595.65,235.61Z"/><path class="cls-82" d="M588.28,234.45l1.81,1.09a.39.39,0,0,1,0,.64l-1.65,1.34a.39.39,0,0,1-.45,0l-1.81-1.09a.39.39,0,0,1,0-.64l1.65-1.34A.39.39,0,0,1,588.28,234.45Z"/><path class="cls-82" d="M590.81,236l1.81,1.08a.4.4,0,0,1,0,.65L591,239a.41.41,0,0,1-.46,0L588.75,238a.4.4,0,0,1,0-.65l1.65-1.34A.39.39,0,0,1,590.81,236Z"/><path class="cls-82" d="M593.34,237.48l1.81,1.09a.39.39,0,0,1,.05.64l-1.65,1.34a.39.39,0,0,1-.45,0l-1.81-1.09a.39.39,0,0,1,0-.64l1.65-1.34A.39.39,0,0,1,593.34,237.48Z"/><path class="cls-82" d="M586,236.33l1.81,1.08a.39.39,0,0,1,.05.64l-1.65,1.34a.39.39,0,0,1-.45,0l-1.81-1.09a.39.39,0,0,1,0-.64l1.65-1.34A.38.38,0,0,1,586,236.33Z"/><path class="cls-82" d="M588.51,237.84l1.81,1.08a.4.4,0,0,1,0,.65l-1.65,1.34a.39.39,0,0,1-.45,0l-1.81-1.08a.4.4,0,0,1-.05-.65l1.65-1.34A.41.41,0,0,1,588.51,237.84Z"/><path class="cls-82" d="M591,239.35l1.81,1.09a.39.39,0,0,1,0,.64l-1.65,1.34a.39.39,0,0,1-.45,0L589,241.37a.39.39,0,0,1,0-.64l1.65-1.34A.39.39,0,0,1,591,239.35Z"/><path class="cls-83" d="M655.8,265,639.68,278a.84.84,0,0,1-1,.07L576,240.73a.88.88,0,0,1-.1-1.42l1.46-1.18,60.94,36.34a.86.86,0,0,0,1-.08L654,262.51l1.75,1A.86.86,0,0,1,655.8,265Z"/><path class="cls-84" d="M655.42,261.32,654,262.51,639.3,274.39a.86.86,0,0,1-1,.08l-60.94-36.34-1.74-1a.86.86,0,0,1-.24-1.26.49.49,0,0,0,.14.11l2.61,1.56,60.06,35.82a.84.84,0,0,0,1-.07L653.09,262l2.23-1.81a1,1,0,0,0,.14-.15A.84.84,0,0,1,655.42,261.32Z"/><g id="boy"><path class="cls-85" d="M567.55,204.52a15.32,15.32,0,0,0-5.58.21,10.68,10.68,0,0,0-1.58.5s-3,1-3.85,2.25a7.33,7.33,0,0,0-1,3.38s-2.57.17-5.83.28c-5,.17-11.67.17-13.21-.87a14.5,14.5,0,0,0-5.22-2.15h0c-.07-1.57-.12-3.57,0-5.61,9.5,5.66,20.85,4.48,21.89,4.57a13,13,0,0,0,3.27-1.05,17.81,17.81,0,0,1,1.85-.74,17.36,17.36,0,0,1,3.66-.81,11.17,11.17,0,0,1,2-.06,6.56,6.56,0,0,0-4.21-.81,37.62,37.62,0,0,1-28.17-4.75s2.35-5.82,6.35-6.78a1.63,1.63,0,0,0-1.16-.42,6.6,6.6,0,0,1,4.91-1.28,5.37,5.37,0,0,1,3.67-1.18s.9-2.3,10-.5a11.45,11.45,0,0,1,4.88,3,4.36,4.36,0,0,0,3,1.05s1.49-.56,1.21,2.36c0,0-.65,1.4.19,1.87S569.94,198.71,567.55,204.52Z"/><path class="cls-86" d="M540.36,193.26s5.09-5.15,13.49-1.68a3.23,3.23,0,0,0,1.23.22,2.41,2.41,0,0,1-1.69.19A19.46,19.46,0,0,0,540.36,193.26Z"/><path class="cls-86" d="M563.86,204.42a16,16,0,0,0-7.5,1.61,13,13,0,0,1-3.27,1.05c-1-.09-12.39,1.09-21.89-4.57,0-1.23.13-2.47.28-3.65a37.62,37.62,0,0,0,28.17,4.75A6.56,6.56,0,0,1,563.86,204.42Z"/><path class="cls-87" d="M554.55,225.77a10.9,10.9,0,0,1-4.47-.86c-2.17-.78-2.37.14-2.37.14l0,3.71a9.74,9.74,0,0,1,1.39.93l0,0c1.37,1.13.8,1.67.8,1.67-12.45.2-16.1-6.48-16.1-6.48s4.29-1.43,4.31-1.48,0-2.89,0-2.89a13,13,0,0,0,6.26-.24,4.39,4.39,0,0,0,1.61-.92C548.19,225.08,554.55,225.77,554.55,225.77Z"/><path class="cls-87" d="M561.73,214.62a2.62,2.62,0,0,1,.37,1.23c-.11.51-2.36,1.29-2.36,1.29s-1,.35.18,1.84c.9,1.15-1.2,1.05-1.2,1.05,1,.77.47,1.85-.31,1.87s-.64.43-.64.43c-.38,2.44-1.7,3.3-3.22,3.44-4.81-1.75-7-8.69-7-8.69a3.63,3.63,0,0,0,.17-1.16c0-1.8,2.11-4.6,2.77-4.73a4.61,4.61,0,0,1,2.08.8,10.55,10.55,0,0,1,1.13.75,3.21,3.21,0,0,1,.46.38c.93.92,1.2-.43,1.2-.43s0-.19,0-.28c0-.3,0-.59.07-.86l.09-.69a7.33,7.33,0,0,1,1-3.38c.89-1.25,3.85-2.25,3.85-2.25a10.68,10.68,0,0,1,1.58-.5c.67,3,.2,4-.08,4.23a.49.49,0,0,1-.17.11,2.27,2.27,0,0,0-.56.76,3.61,3.61,0,0,0-.33,1.68,6.17,6.17,0,0,0,.08.81,4.49,4.49,0,0,0,.16.75,5.42,5.42,0,0,0,.22.56Z"/><path class="cls-88" d="M564.58,212.05c0,2.22-2.85,2.57-2.85,2.57l-.44-1s2-.25,2.11-1.35l-2.49,0-5.55.09-1.68.33a33.52,33.52,0,0,0-3.3.77s-.64.35-.93-.1.32-.79.32-.79,1.29-.33,2.78-.63a28.14,28.14,0,0,1,2.88-.44,5.94,5.94,0,0,1,.91,0c1,.05,2.9,0,4.49,0l2.61-.08a2.67,2.67,0,0,0-2.28-1.6,2.27,2.27,0,0,1,.56-.76.49.49,0,0,0,.17-.11S564.58,209.7,564.58,212.05Z"/><path class="cls-86" d="M555.52,210.86q-.12.79-.18,1.83s-.27,1.35-1.2.43c-.74-.74-3-2.05-3.67-1.93s-2.8,2.93-2.77,4.73a4.8,4.8,0,0,1-3.27,4.37,13,13,0,0,1-6.26.24,4.27,4.27,0,0,1-.81-.3,2.36,2.36,0,0,1-1.56-2.33c-.06-.18-.38-4.78-4.32-6.58,0,0-.13-1.29-.23-3.2h0a14.5,14.5,0,0,1,5.22,2.15c1.54,1,8.2,1,13.21.87C553,211,555.52,210.86,555.52,210.86Z"/><path class="cls-89" d="M554.55,225.77s-6.36-.69-8.51-6.4a5,5,0,0,0,1.49-2.29S549.74,224,554.55,225.77Z"/><path class="cls-90" d="M552,233.13a1.19,1.19,0,0,1-.6.55,1.66,1.66,0,0,0-1.33-1.27c-13,.28-18.4-6.19-18-7s1.84-.48,1.84-.48,3.37,6.18,14.71,6.46c.45,0,.92,0,1.39,0,0,0,.57-.54-.8-1.67C552,231.49,552.25,232.56,552,233.13Z"/><path class="cls-91" d="M573.2,263.38c-2.93,1.61-5.22,5.94-6.43,8.58-.59,1.27-.93,2.14-1,2.14s-7.62-8.4-7.62-8.4a10.68,10.68,0,0,0-1.63,4.35.06.06,0,0,0,0,0c-.31.74-5.21,12.6-6.3,14.88s-4.61,5.29-7.83,5.29a28.89,28.89,0,0,1-23.69-10.41h0c-.14-.15-.26-.3-.39-.45s0-.56,0-.85a36.53,36.53,0,0,0-.91-11.21c-2.8-11.1-1.88-25.12-1.25-29.9s4.1-10.71,6.3-12.35,5.55-.44,6.87.3a2.88,2.88,0,0,0,2.64,0c-.38.84,5,7.31,18,7a1.74,1.74,0,0,1,1.19.86l0,0,.12.37s8.84,2,13.91,12.83c4,8.47,6.55,14,7.51,16Z"/><path class="cls-92" d="M575.86,262c-.08.42-.88.76-1.46.94h0l-.6.16a4.6,4.6,0,0,0-.59.29h0v0l-.06-.14c0-.08-.1-.19-.16-.33s-.11-.22-.17-.36v0c-1-2-3.56-7.53-7.51-16-5.07-10.87-13.91-12.83-13.91-12.83a1.19,1.19,0,0,0,.6-.55,18.1,18.1,0,0,1,13.93,9.33s1.16,2.16,2.68,5c1.2,2.28,2.63,5,3.91,7.48A66,66,0,0,1,575.86,262Z"/><path class="cls-93" d="M557.34,299.13a16.37,16.37,0,0,1-4.06.72c-8.34.28-4.35.93-7.44,1.46s-10.35-1-10.35-1l-.46-.24-12.72-7.05-5.18-2.87-.84-.47s.21-.61.51-1.7c0-.14.08-.3.13-.46l.35-1.43a49.31,49.31,0,0,0,1-6.74c.13.15.25.3.39.45h0a30.3,30.3,0,0,0,7.6,6.48,29.68,29.68,0,0,0,16.09,3.93,7.59,7.59,0,0,0,3.88-1.24l.05,0a10.54,10.54,0,0,0,3.9-4c.59-1.24,2.32-5.34,3.82-8.92,1.25-3,2.33-5.62,2.48-6a32.17,32.17,0,0,0-.18,7.36c.11,1.55.25,2.84.27,3.6a30.93,30.93,0,0,1-1.78,8.34,8.49,8.49,0,0,0-1,3.36,3,3,0,0,0,0,.31,5.43,5.43,0,0,0,1,1.75c.53.74,1.18,1.57,1.7,2.3C557.22,298.1,557.7,298.93,557.34,299.13Z"/><path class="cls-94" d="M517.28,286.13l-.35,1.43a9.56,9.56,0,0,0-2.17.71,1.7,1.7,0,0,0-.46.33l-.44-.24-1.42-.8S515.94,285.66,517.28,286.13Z"/><path class="cls-95" d="M516.29,289.72l.64-2.16a6.78,6.78,0,0,0-2.63,1Z"/><path class="cls-96" d="M570.31,297.19,566,299.65l-1.1.63L553,307.11l0,0a12.29,12.29,0,0,1-7.1-5.83c3.09-.53-.9-1.18,7.44-1.46a16.37,16.37,0,0,0,4.06-.72c.36-.2-.12-1-.83-2,0,0,2.44.28,6,.34h1.11A66.15,66.15,0,0,0,570.31,297.19Z"/><path class="cls-96" d="M593.92,293.56c-2.19,1.54-9.32,6.06-11.53,7.46h0l-1.31.68a67.26,67.26,0,0,1-11.9,4.94l11.9-7.31s1.51-.8,0-2.68l-.07,0a1.17,1.17,0,0,0-.68-.75c-.16-.08-.61-.24-1.14-.42a51.76,51.76,0,0,1,5.19-1.38C590.65,292.83,593.92,293.56,593.92,293.56Z"/><path class="cls-97" d="M591.43,313.75a4.15,4.15,0,0,0-2.78-.92,4.27,4.27,0,0,0-2.77-.13,3.3,3.3,0,0,0-.51-2.13C588.26,309.08,590.14,310.46,591.43,313.75Z"/><path class="cls-94" d="M612.23,356.8l-1.83.45a51.14,51.14,0,0,1-6.32,1.29l-.86-2.43c-2.38-6.8-9-26.07-9.88-33.45q-.17-1.31-.36-2.52v-.05a5.8,5.8,0,0,0-.49-5,4.54,4.54,0,0,0-1.06-1.33c-1.29-3.29-3.17-4.67-6.06-3.18A5.31,5.31,0,0,0,585,310l-17.81,5.26,1.66-6.87s.35-1.24,0-1.53l.32-.2a67.26,67.26,0,0,0,11.9-4.94l1.31-.68h0c2.21-1.4,9.34-5.92,11.53-7.46,0,0,6.51,1.87,7.25,10S600.84,316.66,612.23,356.8Z"/><path class="cls-94" d="M561.34,311l-.84,4.24a3.6,3.6,0,0,1-2.79-2.46A14.91,14.91,0,0,0,561.34,311Z"/><path class="cls-98" d="M560.5,315.25l-.42,2.09-12.93,3.82c-2.18-6.21-4.49-12.87-4.49-12.87a10.9,10.9,0,0,0-2.6-4l-.1-.09h0s-.14-1.66-4.47-3.87c0,0,7.25,1.5,10.35,1a12.29,12.29,0,0,0,7.1,5.83,2.22,2.22,0,0,0-1.12,2,1.88,1.88,0,0,0,0,.33,2.25,2.25,0,0,0,.26.63s.49,2.93,3.23,3a6.87,6.87,0,0,0,2.35-.37A3.6,3.6,0,0,0,560.5,315.25Z"/><path class="cls-99" d="M588,333.66c0,.45-.71.89-1.75,1.32-2.05.83-5.45,1.59-7.82,2.27-3.59,1-4.34-6.66-4.34-6.66,3.75-2.53,8.34-5.63,10.09-6.86C584.11,326.64,588,332.33,588,333.66Z"/><path class="cls-96" d="M586.2,336.14a1.12,1.12,0,0,1-.29.52c-.55.53-7,2.08-7,2.08l-.53-1.49.08,0c2.06-.59,4.87-1.24,6.9-1.94.3-.1.58-.2.84-.31A2.74,2.74,0,0,1,586.2,336.14Z"/><path class="cls-100" d="M597.17,351.27s-16.52.21-16.76-.41a8.45,8.45,0,0,1-.37-1.49h16.58A9.82,9.82,0,0,0,597.17,351.27Z"/><path class="cls-101" d="M596.62,349.37H580c-3.95-4.3-1.12-10.63-1.12-10.63s6.44-1.55,7-2.08a1.12,1.12,0,0,0,.29-.52l.07.1c2.58,3.71,8.43,5.55,8.43,5.55a16.56,16.56,0,0,1,1.47,5.54A9,9,0,0,0,596.62,349.37Z"/><path class="cls-97" d="M604.08,358.54a12.56,12.56,0,0,1-3.56.31c-2.25-.19-2-1.47-2-1.47a25.13,25.13,0,0,0-1.33-6.11,9.82,9.82,0,0,1-.55-1.9,9,9,0,0,1-.45-2,16.56,16.56,0,0,0-1.47-5.54c-3.93-7.24-6.38-18-6.48-18.4a3.54,3.54,0,0,0,2.21-.16,6.49,6.49,0,0,0,2.53-3.09h0q.19,1.22.36,2.52c.91,7.38,7.5,26.65,9.88,33.45Z"/><path class="cls-96" d="M611.29,359.57a10.73,10.73,0,0,1-11,.68l.24-1.37v0a11.72,11.72,0,0,0,3.12-.23l.44-.08a18.29,18.29,0,0,0,2.86-.49c1.16-.25,2.44-.55,3.46-.8A5.76,5.76,0,0,1,611.29,359.57Z"/><path class="cls-101" d="M628.77,370.64s0-.61-1.67-.41a16.45,16.45,0,0,0-3.3.83c-5,1.67-7.12,1-7.12,1-3.53-2.69-7.72-1.85-11.67-.24-3.79,1.55-5.38.13-5.5,0v0c-2.57-4.55.78-11.58.78-11.58a10.73,10.73,0,0,0,11-.68c4.66,3.78,11.14,4.66,14.79,5.4S628.77,370.64,628.77,370.64Z"/><path class="cls-100" d="M628.77,370.64s0,2.16-.78,1.91-3.59.39-3.59.39a19.19,19.19,0,0,1-7.3,1,2.69,2.69,0,0,1-1.38-.52c-1.06-.79-3.94-2.25-9.09-.24-6.4,2.5-7.08-1-7.12-1.3.12.11,1.71,1.53,5.5,0,4-1.61,8.14-2.45,11.67.24,0,0,2.16.66,7.12-1a16.45,16.45,0,0,1,3.3-.83C628.77,370,628.77,370.64,628.77,370.64Z"/><path class="cls-94" d="M576.65,294.67a2.41,2.41,0,0,0-2.08.08l-4.26,2.44a66.15,66.15,0,0,1-6.69.27c0-.28.37-5.84-.51-6.54s-7.64,3.8-8.3,3.89a5.43,5.43,0,0,1-1-1.75,3,3,0,0,1,0-.31,8.49,8.49,0,0,1,1-3.36,30.93,30.93,0,0,0,1.78-8.34c0-.76-.16-2.05-.27-3.6L569,274.39a57.46,57.46,0,0,0,6.43,5.56l-.13.22Z"/><path class="cls-87" d="M623.24,245.85c-4.31,0-6.18,1.79-6.18,2.4s-1,3-4.54,5a10.82,10.82,0,0,0-4.34,5.35,18.14,18.14,0,0,1-2.19,3.79c-4.15,5.6-15.27,20-20.71,21.23-2.83.65-6.5-1.23-9.81-3.64a57.46,57.46,0,0,1-6.43-5.56c-1.31-1.29-2.11-2.19-2.11-2.19l-.16-.24c1.21-2.64,3.5-7,6.43-8.58,4.21,6.69,9.2,8,9.28,8a1.94,1.94,0,0,0,.73.36,1.48,1.48,0,0,0,1.51-.64c19.86-15.55,22.08-21.24,22.08-21.24a11.13,11.13,0,0,1,4.05-6.55,7.8,7.8,0,0,1,5.08-1.84c1.11,0,2.39,0,3.43,0,2.38.06,1.81,2,1.81,2,2.1-.11,1.59,1.08,1.59,1.08C624.23,244.92,623.24,245.85,623.24,245.85Z"/><path class="cls-87" d="M611.09,240.54a18.15,18.15,0,0,1-4.34,2.89c-.92.35-8,3.62-2.71,6,0,0,1.6,1.16.44,1.64-.93.4-5.53-.61-7.25-1a6.72,6.72,0,0,1-1.28-.45,21.78,21.78,0,0,1-4.4-2.46s-.7-.5-1.77.29c-1.71,1.25-15.15,7.36-17.29,7.58-1.28-2.47-2.71-5.2-3.91-7.48,0,0,18.74-2.88,23.84-4.95s6.92-4.45,15.86-4.5c0,0,1.52-.1,1,.76,0,0,1.8-.16.85,1C610.09,239.8,612.13,239.52,611.09,240.54Z"/><path class="cls-102" d="M582.48,271.4h0c-.08-.06-5.07-1.34-9.28-8h0a4.6,4.6,0,0,1,.59-.29l.6-.16C575,264.2,580.31,269.89,582.48,271.4Z"/></g><path class="cls-103" d="M693.32,167.31v10.75a3.15,3.15,0,0,1-1.49,2.71,3,3,0,0,1-.59.3,3.13,3.13,0,0,1-2.75-.23l-17.82-10.31a10,10,0,0,1-5-8.67V152a2.72,2.72,0,0,1,1.23-2.3,3,3,0,0,1,.75-.35h0a2.72,2.72,0,0,1,2.25.3l20.8,13A5.55,5.55,0,0,1,693.32,167.31Z"/><path class="cls-104" d="M698.08,165.65v9.65a3.61,3.61,0,0,1-1.91,3.18l-4.34,2.29a3.15,3.15,0,0,0,1.49-2.71V167.31a5.55,5.55,0,0,0-2.6-4.7l-20.8-13a2.72,2.72,0,0,0-2.25-.3h0a3,3,0,0,0-.75.35l4.63-1.9a4.6,4.6,0,0,1,3.38.11l19.45,11.49A7.17,7.17,0,0,1,698.08,165.65Z"/><path class="cls-105" d="M676.89,163.12s2.4,1.26,2.37,1.16,0-2.1,0-2.1l1.33.66V165l2.06,1.3v1.6l-2.13-1.19,0,2.59L679,168.6l0-2.66-2.07-1.16Z"/><path class="cls-105" d="M683.46,166.8s2.39,1.26,2.36,1.16,0-2.1,0-2.1l1.33.66v2.21l2.06,1.29v1.6l-2.12-1.19,0,2.59-1.54-.73,0-2.66-2.07-1.17Z"/><path class="cls-105" d="M674.77,160.44a4.56,4.56,0,0,0-.59-3.05c-.93-1.43-3-1.77-3.94,0-.54,1-.8,7.51,1.68,9.86a1.82,1.82,0,0,0,1.59.4,2.47,2.47,0,0,0,1.57-2.73l-1.23,0c.27,1.27-1.59,3.14-2.58-2.26a9.24,9.24,0,0,1,0-4.35s.4-1.73,1.78-.57a2.91,2.91,0,0,1,.62,2.53Z"/><path class="cls-106" d="M629.38,132.62v10.75a3.15,3.15,0,0,1-1.49,2.71,3,3,0,0,1-.59.3,3.13,3.13,0,0,1-2.75-.23l-17.82-10.31a10,10,0,0,1-5-8.67v-9.89A2.72,2.72,0,0,1,603,115a3,3,0,0,1,.75-.35h0a2.72,2.72,0,0,1,2.25.3l20.8,13A5.55,5.55,0,0,1,629.38,132.62Z"/><path class="cls-107" d="M634.14,131v9.65a3.57,3.57,0,0,1-1.91,3.17l-4.34,2.29a3.15,3.15,0,0,0,1.49-2.71V132.62a5.55,5.55,0,0,0-2.6-4.7l-20.8-13a2.72,2.72,0,0,0-2.25-.3h0a3,3,0,0,0-.75.35l4.64-1.89a4.55,4.55,0,0,1,3.38.11l19.44,11.49A7.17,7.17,0,0,1,634.14,131Z"/><path class="cls-108" d="M606.81,121.83v9.33l1.51.59v-3.12s3.36,2.65,3.65-1.24C612.27,123.27,610,121.83,606.81,121.83Zm4,5c-.31,2.31-2.58.5-2.58.5v-3.42A2.52,2.52,0,0,1,610.8,126.79Z"/><path class="cls-108" d="M619.9,130.09v9l1.51.92v-3.12s3.36,2.65,3.65-1.24C625.36,131.53,623.37,130.68,619.9,130.09Zm4,5c-.31,2.31-2.58.5-2.58.5v-3.42A2.52,2.52,0,0,1,623.89,135.05Z"/><polygon class="cls-108" points="613.09 125.5 613.09 134.86 614.81 135.66 614.81 131.67 616.86 132.84 616.86 136.45 618.56 137.34 618.56 128.22 616.98 127.39 616.92 131 614.78 129.71 614.81 126.38 613.09 125.5"/><path class="cls-109" d="M587.3,161.82v10.75a3.15,3.15,0,0,1-1.49,2.71,3,3,0,0,1-.59.3,3.13,3.13,0,0,1-2.75-.23L564.65,165a10,10,0,0,1-5-8.67v-9.89a2.72,2.72,0,0,1,1.23-2.3,3,3,0,0,1,.75-.35h0a2.72,2.72,0,0,1,2.25.3l20.8,13A5.55,5.55,0,0,1,587.3,161.82Z"/><path class="cls-110" d="M592.06,160.17v9.65a3.59,3.59,0,0,1-1.91,3.17l-4.34,2.29a3.15,3.15,0,0,0,1.49-2.71V161.82a5.55,5.55,0,0,0-2.6-4.7l-20.8-13a2.72,2.72,0,0,0-2.25-.3h0a3,3,0,0,0-.75.35l4.63-1.89a4.55,4.55,0,0,1,3.38.1l19.45,11.49A7.19,7.19,0,0,1,592.06,160.17Z"/><path class="cls-111" d="M567.86,151.5v6.23a2.1,2.1,0,0,1-2.25,2.1,2.63,2.63,0,0,1-2.76-2.24,15.36,15.36,0,0,1,0-2.42l1.52,0V157s-.49,1.32.59,1.21a1.52,1.52,0,0,0,1.49-1.28c0-.37-.11-6.09-.11-6.09h1.52Z"/><path class="cls-111" d="M568.53,155.11v1.33s2.45-.62,2.37,1.75c0,0-2.79-2-2.82,1.35s3.59,3.59,4.09,3.56V157S572.2,154.55,568.53,155.11Zm1.6,6a.88.88,0,0,1,0-1.75.88.88,0,0,1,0,1.75Z"/><path class="cls-111" d="M578.19,160.46v1.33s2.45-.62,2.37,1.75c0,0-2.79-2-2.82,1.35s3.59,3.59,4.09,3.56v-6.08S581.86,159.9,578.19,160.46Zm1.6,6a.88.88,0,0,1,0-1.75.88.88,0,0,1,0,1.75Z"/><polygon class="cls-111" points="572.88 157.42 574.45 165.75 577.74 159.83 576.47 159.06 575.11 161.07 574.5 157.71 572.88 157.42"/><path class="cls-112" d="M723.7,234.47v10.75a3.15,3.15,0,0,1-1.49,2.71,3,3,0,0,1-.59.3,3.13,3.13,0,0,1-2.75-.23l-17.82-10.31a10,10,0,0,1-5-8.67v-9.89a2.72,2.72,0,0,1,1.23-2.3,3,3,0,0,1,.75-.35h0a2.72,2.72,0,0,1,2.25.3l20.8,13A5.55,5.55,0,0,1,723.7,234.47Z"/><path class="cls-113" d="M728.46,232.81v9.65a3.62,3.62,0,0,1-1.91,3.18l-4.34,2.29a3.15,3.15,0,0,0,1.49-2.71V234.47a5.55,5.55,0,0,0-2.6-4.7l-20.8-13a2.72,2.72,0,0,0-2.25-.3h0a3,3,0,0,0-.75.35l4.63-1.9a4.55,4.55,0,0,1,3.38.11l19.45,11.49A7.17,7.17,0,0,1,728.46,232.81Z"/><path class="cls-114" d="M705.82,227.92c0,.13,1.45,0,1.45,0s.64-3.28-2.44-4.12c-2.88-.8-2.82,1.58-2.74,2.24.11.85.88,2,3,4.32,0,0,1.56,1.66.39,2.37s-1.75-1.45-1.91-1.91h-1.52s.51,3.49,3.21,3.49c1.94,0,3.3-2.49.38-5.35,0,0-3-2.44-2.07-3.55C704.33,224.56,706.05,225.64,705.82,227.92Z"/><path class="cls-114" d="M711.23,227.09c-2.38-.47-3.28.23-3.27,1l.08,6.8a2.77,2.77,0,0,0,1.77,2.63c2,.71,3,.29,3.5-.21a1.77,1.77,0,0,0,.52-1.29v-5.13S713.6,227.56,711.23,227.09Zm1.23,8.07a.89.89,0,0,1-.39.73,1.38,1.38,0,0,1-1.46.08,2.15,2.15,0,0,1-1.36-2l0-3.92c0-.43.44-1.37,1.81-1.11s1.45,2.78,1.45,2.78Z"/><polygon class="cls-114" points="714.6 230.82 714.75 240.19 719.26 242.47 719.26 240.58 716.19 239.11 716.12 231.28 714.6 230.82"/><path class="cls-115" d="M668.77,107l-.29,17.08,0,2.17a2.21,2.21,0,0,1,0,.37,1.94,1.94,0,0,1-2.82,1.31l-15.73-8.44A7.21,7.21,0,0,1,646,113l.18-10.49.12-7.22v-.69a1.92,1.92,0,0,1,1.13-1.73l.43-.15h0a1.89,1.89,0,0,1,1.32.21l1.17.67,2.25,1.27,13.56,7.69.22.13.21.15a4.45,4.45,0,0,1,.48.38l.15.14c.11.11.22.23.32.35l0,.06,0,.06s0,0,0,0a5.77,5.77,0,0,1,.37.54,6.27,6.27,0,0,1,.29.58s0,.07,0,.11a2,2,0,0,1,.08.22,4,4,0,0,1,.18.68,5.35,5.35,0,0,1,.08.7C668.77,106.8,668.77,106.91,668.77,107Z"/><path class="cls-116" d="M672.81,105.92l-.31,18.58a2.44,2.44,0,0,1-1.11,2.25,8,8,0,0,1-3.59.94,1.32,1.32,0,0,0,.6-1,2.21,2.21,0,0,0,0-.37l0-2.17.29-17.08c0-.11,0-.22,0-.33a4.06,4.06,0,0,0-.08-.7,4,4,0,0,0-.18-.68,1.43,1.43,0,0,0-.08-.22s0-.08,0-.11a4.48,4.48,0,0,0-.29-.58,5.77,5.77,0,0,0-.37-.54l-.06-.07,0-.06c-.1-.12-.21-.24-.32-.35l-.15-.14a3.48,3.48,0,0,0-.48-.38c-.07-.06-.14-.1-.21-.15l-.22-.13-13.56-7.69-2.25-1.27L649.25,93a1.89,1.89,0,0,0-1.32-.21l2.43-.82.48-.17a4.2,4.2,0,0,1,3.38.31l16.06,9.32A5.16,5.16,0,0,1,672.81,105.92Z"/><ellipse class="cls-117" cx="655.76" cy="116.65" rx="1.42" ry="1.77" transform="translate(20.31 316.21) rotate(-27.52)"/><path class="cls-117" d="M665.74,110.93l-1.46,1.44a11.35,11.35,0,0,0-5.58-6.46c-3.93-2.19-8.23-.31-8.23-.31l-1-1.74s5.55-2.25,10.14.39C665,107.35,665.74,110.93,665.74,110.93Z"/><path class="cls-117" d="M660.66,115.67l-1.23,1s-2.1-4.35-6.3-3.6l-.78-1.64a6.19,6.19,0,0,1,5,.56A8.48,8.48,0,0,1,660.66,115.67Z"/><path class="cls-117" d="M663.17,113.7l-1.24,1a10,10,0,0,0-4.31-4.76,7.77,7.77,0,0,0-5.75-.28l-.81-2a8.71,8.71,0,0,1,7.57.47A9.39,9.39,0,0,1,663.17,113.7Z"/><path class="cls-118" d="M.71,94.11s14.07,2.35,20.59-7.82,2.09-33.37,14.08-44.84S69.53,31.8,80,33.63c0,0,22.15,3.39,36.49-9.65S128.7,0,128.7,0H.71Z"/><path class="cls-119" d="M.71,434.09s34,2.88,62.57,30S97,523.76,97,523.76H.71Z"/><path class="cls-120" d="M871.2,0s-5.92,89.78,58.53,115.92V0Z"/><text class="cls-121"><tspan x="93.86" y="205.88">Im nitin</tspan></text><text class="cls-121" transform="translate(97.01 162.01)">hey</text></g></g></svg>